<?xml version="1.0" standalone="no"?>
<!DOCTYPE svg PUBLIC "-//W3C//DTD SVG 1.1//EN" "http://www.w3.org/Graphics/SVG/1.1/DTD/svg11.dtd" >
<svg xmlns="http://www.w3.org/2000/svg" xmlns:xlink="http://www.w3.org/1999/xlink" version="1.1">
<metadata>
Created by FontForge 20170731 at Tue Apr  7 00:40:26 2020
 By Aleksey,,,
Copyright (c) 2016-2019 by TypeType. Designers Ivan Gladkikh, Pavel Emelyanov. Technical designers Vika Usmanova, Olexa Volochay, Nadyr Rakhimov. All rights reserved.
</metadata>
<defs>
<font id="MailSansRoman-Medium" horiz-adv-x="620" >
  <font-face 
    font-family="Mail Sans Roman Med"
    font-weight="500"
    font-stretch="normal"
    units-per-em="1000"
    panose-1="0 0 0 0 0 0 0 0 0 0"
    ascent="800"
    descent="-200"
    x-height="480"
    cap-height="700"
    bbox="-545 -225 1120 930"
    underline-thickness="50"
    underline-position="-200"
    unicode-range="U+000D-F6D4"
  />
<missing-glyph horiz-adv-x="0" 
 />
    <glyph glyph-name=".notdef" horiz-adv-x="0" 
 />
    <glyph glyph-name="uni0000" horiz-adv-x="0" 
 />
    <glyph glyph-name="uni0000" horiz-adv-x="0" 
 />
    <glyph glyph-name="uni000D" unicode="&#xd;" horiz-adv-x="0" 
 />
    <glyph glyph-name="space" unicode=" " horiz-adv-x="210" 
 />
    <glyph glyph-name="exclam" unicode="!" horiz-adv-x="310" 
d="M95 700h120l-20 -510h-80zM90 55q0 26 19.5 45.5t45.5 19.5t45.5 -19.5t19.5 -45.5t-19.5 -45.5t-45.5 -19.5t-45.5 19.5t-19.5 45.5z" />
    <glyph glyph-name="quotedbl" unicode="&#x22;" horiz-adv-x="380" 
d="M230 700h90v-225h-90v225zM60 700h90v-225h-90v225z" />
    <glyph glyph-name="numbersign" unicode="#" horiz-adv-x="720" 
d="M10 200l15 75h150l30 150h-145l15 75h145l40 200h85l-40 -200h170l40 200h85l-40 -200h150l-15 -75h-150l-30 -150h145l-15 -75h-145l-40 -200h-85l40 200h-170l-40 -200h-85l40 200h-150zM260 275h170l30 150h-170z" />
    <glyph glyph-name="dollar" unicode="$" horiz-adv-x="570" 
d="M105 170q14 -20 34 -35t43.5 -25t48.5 -15t49 -5t48.5 6t45 19t33.5 32.5t13 47.5q0 36 -24 56t-61 34q-23 8 -48.5 15.5t-51.5 15.5q-35 11 -68 25t-59 36.5t-42 55.5t-16 82q0 38 13.5 70t38 57t58.5 41t75 22v100h100v-97q44 -7 76 -21.5t55 -29.5q25 -17 44 -37
l-75 -75q-24 32 -65 48.5t-80 16.5q-22 0 -45 -5t-42 -16.5t-31 -29.5t-12 -44q0 -34 21 -53.5t54 -32.5q22 -9 47.5 -16.5t52.5 -15.5q36 -10 71 -24t62.5 -36.5t44.5 -56.5t17 -85q0 -39 -14.5 -73t-40 -60.5t-61.5 -43.5t-79 -23v-100h-100v98q-53 7 -91 23.5t-64 33.5
q-30 21 -50 45z" />
    <glyph glyph-name="percent" unicode="%" horiz-adv-x="790" 
d="M200 400q-34 0 -63 12.5t-50.5 33.5t-34 49t-12.5 60t12.5 60t34 49t50.5 33.5t63 12.5t63 -12.5t50.5 -33.5t34 -49t12.5 -60t-12.5 -60t-34 -49t-50.5 -33.5t-63 -12.5zM570 700h90l-440 -700h-90zM200 475q34 0 57 23t23 57t-23 57t-57 23t-57 -23t-23 -57t23 -57
t57 -23zM590 -10q-34 0 -63 12.5t-50.5 33.5t-34 49t-12.5 60t12.5 60t34 49t50.5 33.5t63 12.5t63 -12.5t50.5 -33.5t34 -49t12.5 -60t-12.5 -60t-34 -49t-50.5 -33.5t-63 -12.5zM590 65q34 0 57 23t23 57t-23 57t-57 23t-57 -23t-23 -57t23 -57t57 -23z" />
    <glyph glyph-name="ampersand" unicode="&#x26;" 
d="M440 200q11 18 20 40q8 19 14 44.5t6 55.5h90q0 -45 -10 -84t-22 -68q-15 -35 -33 -63q10 -13 23 -22q10 -9 23.5 -16t28.5 -7q12 0 21 3q5 1 9 2v-90l-9 -3q-5 -1 -13.5 -1.5t-22.5 -0.5q-28 0 -50 11t-38 24q-18 15 -32 35q-22 -21 -50 -37q-25 -14 -60 -26t-80 -12
q-47 0 -85 14t-64.5 38.5t-41 57.5t-14.5 70q0 51 21 88.5t47 62.5q29 29 67 49q-28 28 -50 59q-19 26 -34.5 59t-15.5 67t12.5 63t35.5 50.5t55.5 34t71.5 12.5q38 0 69 -12.5t53.5 -33.5t35 -49t12.5 -60q0 -42 -19.5 -76t-42.5 -60q-28 -30 -63 -54zM240 305
q-25 -17 -45 -37q-17 -18 -31 -43t-14 -55q0 -19 8 -36t22.5 -30t35 -21t44.5 -8q30 0 53 8t40 17q18 11 32 25zM255 425q22 20 40 42q15 18 27.5 40.5t12.5 42.5q0 30 -20.5 50t-54.5 20q-38 0 -59 -20t-21 -50q0 -20 12 -42.5t26 -40.5q16 -22 37 -42z" />
    <glyph glyph-name="quotesingle" unicode="'" horiz-adv-x="210" 
d="M60 700h90v-225h-90v225z" />
    <glyph glyph-name="parenleft" unicode="(" horiz-adv-x="325" 
d="M234 -225q-49 56 -87 129q-16 31 -31.5 68.5t-28 81t-20 93t-7.5 103.5t7.5 103.5t20 93t28 81t31.5 68.5q38 73 87 129l76 -50q-42 -53 -75 -119q-28 -57 -51.5 -134.5t-23.5 -171.5t23.5 -171.5t51.5 -134.5q33 -66 75 -119z" />
    <glyph glyph-name="parenright" unicode=")" horiz-adv-x="325" 
d="M15 -175q42 53 75 119q29 57 52 134.5t23 171.5t-23 171.5t-52 134.5q-33 66 -75 119l76 50q49 -56 87 -129q33 -62 60 -149.5t27 -196.5t-27 -196.5t-60 -149.5q-38 -73 -87 -129z" />
    <glyph glyph-name="asterisk" unicode="*" horiz-adv-x="400" 
d="M150 515l-120 30l25 75l115 -45l-10 125h80l-10 -125l115 45l25 -75l-120 -30l80 -100l-60 -50l-70 110l-70 -110l-60 50z" />
    <glyph glyph-name="plus" unicode="+" horiz-adv-x="515" 
d="M215 340v180h85v-180h180v-90h-180v-180h-85v180h-180v90h180z" />
    <glyph glyph-name="comma" unicode="," horiz-adv-x="220" 
d="M90 120l90 -50l-125 -200l-65 35z" />
    <glyph glyph-name="hyphen" unicode="-" horiz-adv-x="410" 
d="M45 340h320v-90h-320v90z" />
    <glyph glyph-name="period" unicode="." horiz-adv-x="220" 
d="M45 55q0 26 19.5 45.5t45.5 19.5t45.5 -19.5t19.5 -45.5t-19.5 -45.5t-45.5 -19.5t-45.5 19.5t-19.5 45.5z" />
    <glyph glyph-name="slash" unicode="/" horiz-adv-x="390" 
d="M300 710h90l-300 -920h-90z" />
    <glyph glyph-name="zero" unicode="0" horiz-adv-x="690" 
d="M345 -10q-60 0 -113 24t-92 70t-62 113t-23 153t23 153t62 113t92 70t113 24t113 -24t92 -70t62 -113t23 -153t-23 -153t-62 -113t-92 -70t-113 -24zM345 90q36 0 68.5 16t57 48.5t39.5 81t15 114.5t-15 114.5t-39.5 81t-57 48.5t-68.5 16t-68.5 -16t-57 -48.5t-39.5 -81
t-15 -114.5t15 -114.5t39.5 -81t57 -48.5t68.5 -16z" />
    <glyph glyph-name="one" unicode="1" horiz-adv-x="370" 
d="M160 535h-125v70q34 4 58 12t41.5 20.5t29.5 28t21 34.5h85v-700h-110v535z" />
    <glyph glyph-name="two" unicode="2" horiz-adv-x="560" 
d="M505 105v-105h-470q0 79 26.5 134.5t66.5 96t87 71t87 59.5t66.5 60t26.5 74q0 49 -32.5 79.5t-92.5 30.5q-39 0 -65 -15t-42 -32q-18 -21 -28 -48l-90 40q14 45 43 80q25 30 69 55t113 25q53 0 96 -16.5t74 -46t48 -68.5t17 -84q0 -51 -19.5 -89t-50.5 -68.5t-70 -56
t-76.5 -52t-70.5 -56t-53 -68.5h340z" />
    <glyph glyph-name="three" unicode="3" horiz-adv-x="565" 
d="M265 -10q-62 0 -108 16.5t-76 36.5q-36 23 -61 52l75 75q17 -22 42 -40q21 -15 53 -27.5t75 -12.5q68 0 104 33t36 82q0 45 -36 77.5t-104 32.5h-75v105h75q57 0 86 26.5t29 68.5t-29 68.5t-86 26.5q-35 0 -63 -10.5t-48 -24.5q-22 -15 -39 -35l-75 75q25 27 58 48
q29 17 71 32t96 15q53 0 94.5 -15t70.5 -40t44.5 -58.5t15.5 -71.5q0 -43 -16 -72t-35 -48q-23 -21 -52 -34v-2q36 -13 64 -36q24 -20 44 -52t20 -81q0 -43 -17.5 -81.5t-49.5 -67t-78.5 -45t-104.5 -16.5z" />
    <glyph glyph-name="four" unicode="4" horiz-adv-x="590" 
d="M30 260l320 440h130v-460h90v-100h-90v-140h-110v140h-340v120zM370 240v325l-235 -325h235z" />
    <glyph glyph-name="five" unicode="5" horiz-adv-x="590" 
d="M115 170q17 -22 42 -40q21 -15 53 -27.5t75 -12.5q68 0 106.5 37.5t38.5 97.5t-38.5 97.5t-106.5 37.5q-32 0 -56 -10.5t-41 -24.5q-19 -15 -33 -35l-80 10l25 400h395v-105h-300l-10 -170q14 10 32 18q16 6 38 11.5t50 5.5q51 0 94 -17.5t74.5 -49t49 -74.5t17.5 -94
t-18 -94t-51.5 -74.5t-80.5 -49t-105 -17.5q-62 0 -108 16.5t-76 36.5q-36 23 -61 52z" />
    <glyph glyph-name="six" unicode="6" horiz-adv-x="590" 
d="M300 700h120l-160 -245q5 1 11 3q6 1 14.5 1.5t19.5 0.5q51 0 94.5 -18.5t76 -50.5t51 -74.5t18.5 -91.5t-18.5 -91.5t-52 -74.5t-79.5 -50.5t-100 -18.5t-100 18.5t-79.5 50.5t-52 74.5t-18.5 91.5q0 30 8 58t17 50q11 25 25 47zM295 90q30 0 55.5 10.5t44.5 29t29.5 43
t10.5 52.5t-10.5 52.5t-29.5 43t-44.5 29t-55.5 10.5t-55.5 -10.5t-44.5 -29t-29.5 -43t-10.5 -52.5t10.5 -52.5t29.5 -43t44.5 -29t55.5 -10.5z" />
    <glyph glyph-name="seven" unicode="7" horiz-adv-x="520" 
d="M370 595h-340v105h460v-100l-290 -600h-120z" />
    <glyph glyph-name="eight" unicode="8" horiz-adv-x="600" 
d="M50 200q0 49 18.5 82t40.5 53q26 24 59 39v2q-25 13 -44 34q-17 18 -30.5 46t-13.5 69q0 38 15.5 71.5t44 58.5t69 40t91.5 15t91.5 -15t69 -40t44 -58.5t15.5 -71.5q0 -41 -13.5 -69t-30.5 -46q-19 -21 -44 -34v-2q33 -15 59 -39q23 -20 41 -53t18 -82
q0 -43 -17.5 -81.5t-49.5 -67t-78.5 -45t-104.5 -16.5t-104.5 16.5t-78.5 45t-49.5 67t-17.5 81.5zM300 320q-68 0 -104 -33t-36 -82t36 -82t104 -33t104 33t36 82t-36 82t-104 33zM300 610q-53 0 -81.5 -26.5t-28.5 -68.5t28.5 -68.5t81.5 -26.5t81.5 26.5t28.5 68.5
t-28.5 68.5t-81.5 26.5z" />
    <glyph glyph-name="nine" unicode="9" horiz-adv-x="590" 
d="M330 245q-5 -1 -11 -2q-12 -3 -34 -3q-51 0 -94.5 18.5t-76 50.5t-51 74.5t-18.5 91.5t18.5 91.5t52 74.5t79.5 50.5t100 18.5t100 -18.5t79.5 -50.5t52 -74.5t18.5 -91.5q0 -30 -7.5 -58t-17.5 -49q-11 -26 -25 -48l-205 -320h-120zM155 475q0 -28 10.5 -52.5t29.5 -43
t44.5 -29t55.5 -10.5t55.5 10.5t44.5 29t29.5 43t10.5 52.5t-10.5 52.5t-29.5 43t-44.5 29t-55.5 10.5t-55.5 -10.5t-44.5 -29t-29.5 -43t-10.5 -52.5z" />
    <glyph glyph-name="colon" unicode=":" horiz-adv-x="220" 
d="M45 55q0 26 19.5 45.5t45.5 19.5t45.5 -19.5t19.5 -45.5t-19.5 -45.5t-45.5 -19.5t-45.5 19.5t-19.5 45.5zM45 425q0 26 19.5 45.5t45.5 19.5t45.5 -19.5t19.5 -45.5t-19.5 -45.5t-45.5 -19.5t-45.5 19.5t-19.5 45.5z" />
    <glyph glyph-name="semicolon" unicode=";" horiz-adv-x="225" 
d="M90 120l90 -50l-125 -200l-65 35zM55 425q0 26 19.5 45.5t45.5 19.5t45.5 -19.5t19.5 -45.5t-19.5 -45.5t-45.5 -19.5t-45.5 19.5t-19.5 45.5z" />
    <glyph glyph-name="less" unicode="&#x3c;" horiz-adv-x="500" 
d="M40 275l420 215v-100l-283 -144v-2l283 -144v-100l-420 215v60z" />
    <glyph glyph-name="equal" unicode="=" horiz-adv-x="490" 
d="M40 435h410v-90h-410v90zM450 245v-90h-410v90h410z" />
    <glyph glyph-name="greater" unicode="&#x3e;" horiz-adv-x="500" 
d="M323 244v2l-283 144v100l420 -215v-60l-420 -215v100z" />
    <glyph glyph-name="question" unicode="?" horiz-adv-x="535" 
d="M200 190q-1 6 -2 13q-3 12 -3 32q0 36 14 62.5t35 47t46 37.5t46 35.5t35 40.5t14 52q0 42 -31.5 71t-88.5 29q-43 0 -71 -15.5t-45 -34.5q-19 -22 -29 -50l-90 35q14 46 44 83q13 15 31 30t41.5 26.5t53 18.5t65.5 7q53 0 95.5 -15.5t72.5 -42t46 -60.5t16 -72
q0 -47 -14.5 -79.5t-36 -57t-47 -43t-47 -39t-36 -45.5t-14.5 -61v-5h-100zM185 55q0 26 19.5 45.5t45.5 19.5t45.5 -19.5t19.5 -45.5t-19.5 -45.5t-45.5 -19.5t-45.5 19.5t-19.5 45.5z" />
    <glyph glyph-name="at" unicode="@" horiz-adv-x="885" 
d="M445 -60q48 0 82 10t57 22q27 15 46 33l45 -55q-23 -24 -57 -43q-29 -16 -71.5 -29t-101.5 -13q-81 0 -151 30t-122 82t-82 122t-30 151t30 151t82 122t122 82t151 30q84 0 155 -28t122 -77.5t79.5 -116t28.5 -143.5q0 -52 -12.5 -91.5t-34 -66t-50.5 -39.5t-63 -13
q-32 0 -54.5 10.5t-36.5 24.5q-17 15 -28 34h-2q-11 -19 -28 -34q-15 -14 -38.5 -24.5t-57.5 -10.5t-64.5 14t-54 39t-37.5 59t-14 73t14 73t37.5 59t54 39t64.5 14q29 0 49.5 -8t33.5 -18q15 -11 25 -26h2v47h80v-230q0 -26 16 -43t39 -17q30 0 55 32t25 103
q0 62 -22.5 115t-62.5 92t-96 61t-124 22q-64 0 -119.5 -24t-96.5 -65.5t-65 -98t-24 -122.5t24 -122.5t65 -98t96.5 -65.5t119.5 -24zM335 245q0 -49 29 -79.5t71 -30.5t71 30.5t29 79.5t-29 79.5t-71 30.5t-71 -30.5t-29 -79.5z" />
    <glyph glyph-name="A" unicode="A" horiz-adv-x="700" 
d="M10 0l280 700h120l280 -700h-115l-70 180h-310l-70 -180h-115zM465 280l-114 288h-2l-114 -288h230z" />
    <glyph glyph-name="B" unicode="B" horiz-adv-x="680" 
d="M100 0v700h280q47 0 85.5 -15t66.5 -40t43 -58.5t15 -71.5q0 -39 -13 -65.5t-28 -42.5q-19 -20 -42 -31v-2q33 -14 59 -38q23 -20 41 -52t18 -79q0 -41 -17 -78.5t-47.5 -65.5t-72.5 -44.5t-93 -16.5h-295zM395 95q53 0 86.5 33t33.5 82t-33.5 82t-86.5 33h-185v-230h185
zM380 415q45 0 72.5 26.5t27.5 68.5t-27.5 68.5t-72.5 26.5h-170v-190h170z" />
    <glyph glyph-name="C" unicode="C" horiz-adv-x="745" 
d="M715 130q-31 -39 -74 -70q-36 -26 -90 -48t-126 -22q-79 0 -146.5 28t-117 77t-78 114.5t-28.5 140.5t28.5 140.5t78 114.5t117 77t146.5 28q72 0 125 -21t89 -46q42 -30 71 -68l-70 -70q-22 29 -53 53q-27 20 -67 36t-95 16q-54 0 -101.5 -20t-83 -55.5t-55.5 -83
t-20 -101.5t20 -101.5t55.5 -83t83 -55.5t101.5 -20q55 0 96 17.5t68 37.5q33 24 56 55z" />
    <glyph glyph-name="D" unicode="D" horiz-adv-x="755" 
d="M100 700h235q77 0 143.5 -28t116 -76t77.5 -111.5t28 -134.5t-28 -134.5t-77.5 -111.5t-116 -76t-143.5 -28h-235v700zM335 100q54 0 101 19.5t81 53t53.5 79.5t19.5 98q0 53 -19.5 98.5t-53.5 79t-81 53t-101 19.5h-125v-500h125z" />
    <glyph glyph-name="E" unicode="E" horiz-adv-x="650" 
d="M595 700v-105h-385v-180h305v-105h-305v-205h395v-105h-505v700h495z" />
    <glyph glyph-name="F" unicode="F" horiz-adv-x="625" 
d="M590 700v-105h-380v-200h300v-105h-300v-290h-110v700h490z" />
    <glyph glyph-name="G" unicode="G" horiz-adv-x="805" 
d="M470 370h255v-245q-32 -38 -77 -67q-38 -26 -93.5 -47t-129.5 -21q-79 0 -146.5 28t-117 77t-78 114.5t-28.5 140.5t28.5 140.5t78 114.5t117 77t146.5 28q72 0 125 -21t89 -46q42 -30 71 -68l-70 -70q-22 29 -53 53q-27 20 -67 36t-95 16q-54 0 -101.5 -20t-83 -55.5
t-55.5 -83t-20 -101.5t20 -101.5t55.5 -83t83 -55.5t101.5 -20q48 0 83 12t59 26q28 16 48 37v105h-145v100z" />
    <glyph glyph-name="H" unicode="H" horiz-adv-x="765" 
d="M210 700v-295h345v295h110v-700h-110v305h-345v-305h-110v700h110z" />
    <glyph glyph-name="I" unicode="I" horiz-adv-x="310" 
d="M100 700h110v-700h-110v700z" />
    <glyph glyph-name="J" unicode="J" horiz-adv-x="500" 
d="M70 140q12 -14 29 -25q15 -9 36.5 -17t49.5 -8q53 0 84 32.5t31 92.5v485h110v-485q0 -51 -16 -92.5t-45.5 -71t-71 -45.5t-92.5 -16q-47 0 -81.5 12.5t-57.5 27.5q-27 18 -46 40z" />
    <glyph glyph-name="K" unicode="K" horiz-adv-x="685" 
d="M210 700v-340l315 340h140l-270 -290l290 -410h-135l-230 330l-110 -120v-210h-110v700h110z" />
    <glyph glyph-name="L" unicode="L" horiz-adv-x="570" 
d="M100 700h110v-595h340v-105h-450v700z" />
    <glyph glyph-name="M" unicode="M" horiz-adv-x="930" 
d="M200 700l265 -340l265 340h100v-700h-110v515l-255 -325l-255 325v-515h-110v700h100z" />
    <glyph glyph-name="N" unicode="N" horiz-adv-x="795" 
d="M200 700l385 -515v515h110v-700h-100l-385 515v-515h-110v700h100z" />
    <glyph glyph-name="O" unicode="O" horiz-adv-x="850" 
d="M425 -10q-79 0 -146.5 28t-117 77t-78 114.5t-28.5 140.5t28.5 140.5t78 114.5t117 77t146.5 28t146.5 -28t117 -77t78 -114.5t28.5 -140.5t-28.5 -140.5t-78 -114.5t-117 -77t-146.5 -28zM425 90q54 0 101.5 20t83 55.5t55.5 83t20 101.5t-20 101.5t-55.5 83t-83 55.5
t-101.5 20t-101.5 -20t-83 -55.5t-55.5 -83t-20 -101.5t20 -101.5t55.5 -83t83 -55.5t101.5 -20z" />
    <glyph glyph-name="P" unicode="P" horiz-adv-x="660" 
d="M100 0v700h280q51 0 94 -17.5t74.5 -48t49 -71.5t17.5 -88t-17.5 -88t-49 -71.5t-74.5 -48t-94 -17.5h-170v-250h-110zM210 600v-250h170q26 0 49 9.5t40 26.5t26.5 40t9.5 49t-9.5 49t-26.5 40t-40 26.5t-49 9.5h-170z" />
    <glyph glyph-name="Q" unicode="Q" horiz-adv-x="850" 
d="M815 -150q-6 -1 -14 -3q-6 -1 -15.5 -1.5t-20.5 -0.5q-72 0 -123.5 23t-85.5 52q-39 33 -66 75q-10 -1 -21 -3q-10 -1 -21.5 -1.5t-22.5 -0.5q-79 0 -146.5 28t-117 77t-78 114.5t-28.5 140.5t28.5 140.5t78 114.5t117 77t146.5 28t146.5 -28t117 -77t78 -114.5
t28.5 -140.5q0 -44 -8.5 -81t-22.5 -67.5t-32 -55.5t-37 -44q-44 -45 -100 -72q17 -25 43 -45q21 -17 54 -31t78 -14q10 0 18 0.5t14 1.5q7 2 13 3v-95zM425 90q54 0 101.5 20t83 55.5t55.5 83t20 101.5t-20 101.5t-55.5 83t-83 55.5t-101.5 20t-101.5 -20t-83 -55.5
t-55.5 -83t-20 -101.5t20 -101.5t55.5 -83t83 -55.5t101.5 -20z" />
    <glyph glyph-name="R" unicode="R" horiz-adv-x="690" 
d="M100 700h290q51 0 93 -17t72.5 -46.5t47.5 -69.5t17 -87q0 -58 -20.5 -96.5t-46.5 -61.5q-29 -27 -67 -42l159 -280h-125l-145 260h-165v-260h-110v700zM210 360h180q53 0 86.5 33.5t33.5 86.5t-33.5 86.5t-86.5 33.5h-180v-240z" />
    <glyph glyph-name="S" unicode="S" horiz-adv-x="570" 
d="M105 170q17 -22 43 -40q21 -15 54 -27.5t78 -12.5q34 0 60 8.5t44 23t27 33.5t9 40q0 29 -16 47.5t-42 31.5t-59 22t-68 19.5t-68 25t-59 37t-42 55.5t-16 82q0 39 16.5 74.5t47.5 62.5t75.5 42.5t100.5 15.5q55 0 96 -14t68 -31q33 -20 56 -45l-75 -75q-15 18 -37 33
q-18 12 -45 22t-63 10q-64 0 -97 -28.5t-33 -66.5q0 -29 16 -47.5t42 -31.5t59 -22t68 -19.5t68 -25t59 -37t42 -55.5t16 -82q0 -41 -17.5 -78.5t-49.5 -65.5t-78.5 -44.5t-104.5 -16.5q-64 0 -110.5 16.5t-78.5 36.5q-36 23 -61 52z" />
    <glyph glyph-name="T" unicode="T" horiz-adv-x="570" 
d="M20 700h530v-105h-210v-595h-110v595h-210v105z" />
    <glyph glyph-name="U" unicode="U" horiz-adv-x="770" 
d="M200 700v-420q0 -41 14 -76t39 -60.5t59 -39.5t73 -14q38 0 71.5 15t58.5 40.5t40 60.5t15 74v420h110v-420q0 -64 -21.5 -117t-60.5 -91.5t-93 -60t-120 -21.5t-120 21.5t-93 60t-60.5 91.5t-21.5 117v420h110z" />
    <glyph glyph-name="V" unicode="V" horiz-adv-x="690" 
d="M130 700l214 -558h2l214 558h115l-270 -700h-120l-270 700h115z" />
    <glyph glyph-name="W" unicode="W" horiz-adv-x="1050" 
d="M20 700h115l169 -523h2l164 523h110l164 -523h2l169 523h115l-230 -700h-110l-164 523h-2l-164 -523h-110z" />
    <glyph glyph-name="X" unicode="X" horiz-adv-x="660" 
d="M260 365l-230 335h130l169 -253h2l169 253h130l-230 -335l250 -365h-130l-189 283h-2l-189 -283h-130z" />
    <glyph glyph-name="Y" unicode="Y" horiz-adv-x="650" 
d="M5 700h125l192 -335h6l192 335h125l-265 -450v-250h-110v250z" />
    <glyph glyph-name="Z" unicode="Z" 
d="M45 105l390 490h-375v105h505v-105l-390 -490h400v-105h-530v105z" />
    <glyph glyph-name="bracketleft" unicode="[" horiz-adv-x="335" 
d="M310 710v-95h-130v-730h130v-95h-230v920h230z" />
    <glyph glyph-name="backslash" unicode="\" horiz-adv-x="390" 
d="M0 710h90l300 -920h-90z" />
    <glyph glyph-name="bracketright" unicode="]" horiz-adv-x="335" 
d="M25 615v95h230v-920h-230v95h130v730h-130z" />
    <glyph glyph-name="asciicircum" unicode="^" horiz-adv-x="410" 
d="M170 700h70l135 -290h-90l-79 178h-2l-79 -178h-90z" />
    <glyph glyph-name="underscore" unicode="_" horiz-adv-x="340" 
d="M-10 -95h360v-90h-360v90z" />
    <glyph glyph-name="grave" unicode="`" horiz-adv-x="240" 
d="M30 700h105l75 -140h-75z" />
    <glyph glyph-name="a" unicode="a" horiz-adv-x="520" 
d="M195 -10q-36 0 -65.5 11.5t-50.5 30.5t-32.5 44.5t-11.5 53.5q0 60 38 99.5t102 50.5l175 30v2q0 36 -27.5 62t-72.5 26q-28 0 -51 -10t-40 -22q-19 -15 -34 -33l-65 65q20 25 48 45q24 17 59.5 31t82.5 14q45 0 82 -14t63 -39t40.5 -59t14.5 -73v-305h-100v68h-1
q-16 -22 -38 -39q-20 -14 -48.5 -26.5t-67.5 -12.5zM210 205q-38 -7 -56.5 -24.5t-18.5 -40.5q0 -26 21 -45.5t59 -19.5q28 0 52.5 10.5t43 29.5t29 44.5t10.5 55.5v15z" />
    <glyph glyph-name="b" unicode="b" horiz-adv-x="605" 
d="M75 700h100v-288h1q16 22 40 39q20 15 51 27t73 12q45 0 86 -18.5t71.5 -52t49 -79.5t18.5 -100t-18.5 -100t-49 -79.5t-71.5 -52t-86 -18.5q-42 0 -73 12.5t-51 26.5q-24 17 -40 39h-1v-68h-100v700zM175 240q0 -34 11.5 -62.5t31 -49t46 -32t56.5 -11.5t56.5 11.5
t46 32t31 49t11.5 62.5t-11.5 62.5t-31 49t-46 32t-56.5 11.5t-56.5 -11.5t-46 -32t-31 -49t-11.5 -62.5z" />
    <glyph glyph-name="c" unicode="c" horiz-adv-x="520" 
d="M495 90q-22 -28 -52 -50q-26 -19 -64 -34.5t-89 -15.5q-52 0 -98 19.5t-79.5 53t-53 79.5t-19.5 98q0 53 19.5 98.5t53 79t79.5 53t98 19.5q51 0 88.5 -15t62.5 -32q29 -21 49 -48l-70 -65q-14 18 -33 33q-17 12 -41 22t-56 10t-59.5 -11.5t-47.5 -32t-31.5 -49
t-11.5 -62.5t11.5 -62.5t31.5 -49t47.5 -32t59.5 -11.5t57 11t42 24q21 15 36 35z" />
    <glyph glyph-name="d" unicode="d" horiz-adv-x="605" 
d="M40 240q0 54 18.5 100t49 79.5t71.5 52t86 18.5q43 0 73.5 -12t50.5 -27q24 -17 40 -39h1v288h100v-700h-100v68h-1q-16 -22 -40 -39q-20 -14 -50.5 -26.5t-73.5 -12.5q-45 0 -86 18.5t-71.5 52t-49 79.5t-18.5 100zM140 240q0 -34 11.5 -62.5t31 -49t46 -32t56.5 -11.5
t56.5 11.5t46 32t31 49t11.5 62.5t-11.5 62.5t-31 49t-46 32t-56.5 11.5t-56.5 -11.5t-46 -32t-31 -49t-11.5 -62.5z" />
    <glyph glyph-name="e" unicode="e" horiz-adv-x="560" 
d="M495 80q-20 -25 -50 -45q-26 -17 -64 -31t-91 -14q-52 0 -98 19.5t-79.5 53t-53 79.5t-19.5 98q0 53 19.5 98.5t52.5 79t77.5 53t95.5 19.5t94 -17.5t74.5 -49t49 -74.5t17.5 -94q0 -11 -0.5 -20t-1.5 -16q-2 -8 -3 -14h-370q4 -24 16.5 -46t32 -38.5t45.5 -26t56 -9.5
q32 0 58 10t44 23q21 14 38 32zM415 290q-11 49 -44 79.5t-86 30.5q-57 0 -91 -30.5t-49 -79.5h270z" />
    <glyph glyph-name="f" unicode="f" horiz-adv-x="350" 
d="M105 480v70q0 79 39 119.5t111 40.5q17 0 30.5 -2.5t23.5 -4.5q12 -4 21 -8v-95q-7 4 -16 8l-18 4.5t-21 2.5q-70 0 -70 -75v-60h115v-95h-115v-385h-100v385h-75v95h75z" />
    <glyph glyph-name="g" unicode="g" horiz-adv-x="580" 
d="M40 250q0 53 17.5 97t47 75.5t68.5 49.5t82 18q39 0 67.5 -11t48.5 -25q22 -17 38 -37h1v63h100v-440q0 -54 -18.5 -100t-52 -79.5t-79.5 -52t-100 -18.5q-51 0 -89 15.5t-64 34.5q-30 22 -52 50l70 65q15 -20 36 -35q17 -14 42 -24.5t57 -10.5q68 0 109 41.5t41 113.5
v43h-1q-16 -20 -38 -36q-20 -14 -48.5 -25.5t-67.5 -11.5q-43 0 -82 18t-68.5 49.5t-47 76t-17.5 96.5zM275 395q-28 0 -52.5 -10.5t-43 -30t-29 -46t-10.5 -58.5t10.5 -58.5t29 -46t43 -30t52.5 -10.5t52.5 10.5t43 30t29 46t10.5 58.5t-10.5 58.5t-29 46t-43 30
t-52.5 10.5z" />
    <glyph glyph-name="h" unicode="h" horiz-adv-x="585" 
d="M175 700v-288h1q16 22 38 39q19 15 46.5 27t64.5 12q41 0 76 -14.5t60.5 -41.5t39.5 -66t14 -88v-280h-100v280q0 53 -30.5 84t-79.5 31q-28 0 -52 -10t-41 -27.5t-27 -42.5t-10 -55v-260h-100v700h100z" />
    <glyph glyph-name="i" unicode="i" horiz-adv-x="250" 
d="M65 630q0 26 18.5 43t41.5 17t41.5 -17t18.5 -43t-18.5 -43t-41.5 -17t-41.5 17t-18.5 43zM75 480h100v-480h-100v480z" />
    <glyph glyph-name="j" unicode="j" horiz-adv-x="250" 
d="M65 630q0 26 18.5 43t41.5 17t41.5 -17t18.5 -43t-18.5 -43t-41.5 -17t-41.5 17t-18.5 43zM-50 -100q7 -4 16 -8l18 -4.5t21 -2.5q70 0 70 75v520h100v-530q0 -79 -39 -119.5t-111 -40.5q-17 0 -30.5 2.5t-23.5 4.5q-12 4 -21 8v95z" />
    <glyph glyph-name="k" unicode="k" horiz-adv-x="520" 
d="M175 700v-440l205 220h125l-185 -195l200 -285h-115l-150 215l-80 -85v-130h-100v700h100z" />
    <glyph glyph-name="l" unicode="l" horiz-adv-x="250" 
d="M75 700h100v-700h-100v700z" />
    <glyph glyph-name="m" unicode="m" horiz-adv-x="870" 
d="M170 480v-68h1q13 22 32 39q17 15 43.5 27t63.5 12q39 0 67 -12.5t47 -26.5q21 -18 35 -40h2q14 22 37 40q20 14 51 26.5t76 12.5q36 0 67.5 -14.5t55.5 -41t38 -64.5t14 -85v-285h-100v285q0 53 -29 81.5t-71 28.5q-49 0 -82 -35t-33 -95v-265h-100v285q0 53 -29 81.5
t-71 28.5q-49 0 -82 -35t-33 -95v-265h-100v480h100z" />
    <glyph glyph-name="n" unicode="n" horiz-adv-x="580" 
d="M170 480v-68h1q16 22 38 39q19 15 46.5 27t64.5 12q41 0 76 -14.5t60.5 -41.5t39.5 -66t14 -88v-280h-100v280q0 53 -30.5 84t-79.5 31q-28 0 -52 -10t-41 -27.5t-27 -42.5t-10 -55v-260h-100v480h100z" />
    <glyph glyph-name="o" unicode="o" horiz-adv-x="580" 
d="M290 -10q-52 0 -98 19.5t-79.5 53t-53 79.5t-19.5 98q0 53 19.5 98.5t53 79t79.5 53t98 19.5q53 0 98.5 -19.5t79 -53t53 -79t19.5 -98.5q0 -52 -19.5 -98t-53 -79.5t-79 -53t-98.5 -19.5zM290 85q32 0 59.5 11.5t47.5 32t31.5 49t11.5 62.5t-11.5 62.5t-31.5 49
t-47.5 32t-59.5 11.5t-59.5 -11.5t-47.5 -32t-31.5 -49t-11.5 -62.5t11.5 -62.5t31.5 -49t47.5 -32t59.5 -11.5z" />
    <glyph glyph-name="p" unicode="p" horiz-adv-x="600" 
d="M70 480h100v-68h1q16 22 40 39q20 15 51 27t73 12q45 0 86 -18.5t71.5 -52t49 -79.5t18.5 -100t-18.5 -100t-49 -79.5t-71.5 -52t-86 -18.5q-42 0 -73 12.5t-51 26.5q-24 17 -40 39h-1v-278h-100v690zM170 240q0 -34 11.5 -62.5t31 -49t46 -32t56.5 -11.5t56.5 11.5
t46 32t31 49t11.5 62.5t-11.5 62.5t-31 49t-46 32t-56.5 11.5t-56.5 -11.5t-46 -32t-31 -49t-11.5 -62.5z" />
    <glyph glyph-name="q" unicode="q" horiz-adv-x="600" 
d="M40 240q0 54 18.5 100t49 79.5t71.5 52t86 18.5q43 0 73.5 -12t50.5 -27q24 -17 40 -39h1v68h100v-690h-100v278h-1q-16 -22 -40 -39q-20 -14 -50.5 -26.5t-73.5 -12.5q-45 0 -86 18.5t-71.5 52t-49 79.5t-18.5 100zM140 240q0 -34 11.5 -62.5t31 -49t46 -32t56.5 -11.5
t56.5 11.5t46 32t31 49t11.5 62.5t-11.5 62.5t-31 49t-46 32t-56.5 11.5t-56.5 -11.5t-46 -32t-31 -49t-11.5 -62.5z" />
    <glyph glyph-name="r" unicode="r" horiz-adv-x="360" 
d="M70 480h100v-63h2q15 20 36 37q18 14 45 25t62 11h25v-105q-6 1 -12 3q-6 1 -13 1.5t-15 0.5q-26 0 -49.5 -10.5t-41.5 -30t-28.5 -46t-10.5 -58.5v-245h-100v480z" />
    <glyph glyph-name="s" unicode="s" horiz-adv-x="435" 
d="M90 145q15 -18 34 -32q17 -13 40 -23t51 -10q42 0 63.5 18.5t21.5 41.5q0 20 -19 31.5t-47 20.5t-61.5 19t-61.5 26.5t-47 43.5t-19 69q0 28 12 53.5t34.5 44.5t55 30.5t73.5 11.5q44 0 75.5 -10t52.5 -22q25 -15 42 -33l-65 -65q-12 11 -28 20q-14 8 -33 14t-44 6
q-38 0 -56.5 -15.5t-18.5 -34.5q0 -20 19 -31.5t47 -20.5t61.5 -19t61.5 -26.5t47 -43t19 -69.5q0 -30 -12.5 -57t-36.5 -48t-58.5 -33t-77.5 -12q-47 0 -82.5 14t-59.5 31q-28 20 -48 45z" />
    <glyph glyph-name="t" unicode="t" horiz-adv-x="395" 
d="M85 480q23 0 34 12.5t11 42.5v105h90v-160h110v-95h-110v-225q0 -75 70 -75q11 0 21 2.5t18 5.5q9 3 16 7v-95q-9 -4 -21 -8q-10 -2 -23.5 -4.5t-30.5 -2.5q-72 0 -111 40.5t-39 119.5v235h-90v95h55z" />
    <glyph glyph-name="u" unicode="u" horiz-adv-x="580" 
d="M170 480v-280q0 -53 30.5 -84t79.5 -31q28 0 52 10t41 27.5t27 42.5t10 55v260h100v-480h-100v68h-1q-16 -22 -38 -39q-19 -14 -46.5 -26.5t-64.5 -12.5q-41 0 -76 14.5t-60.5 41.5t-39.5 66t-14 88v280h100z" />
    <glyph glyph-name="v" unicode="v" horiz-adv-x="510" 
d="M10 480h110l134 -353h2l134 353h110l-190 -480h-110z" />
    <glyph glyph-name="w" unicode="w" horiz-adv-x="760" 
d="M10 480h110l109 -323h2l104 323h90l104 -323h2l109 323h110l-170 -480h-95l-104 318h-2l-104 -318h-95z" />
    <glyph glyph-name="x" unicode="x" horiz-adv-x="500" 
d="M10 0l180 250l-165 230h115l109 -153h2l109 153h115l-165 -230l180 -250h-115l-124 173h-2l-124 -173h-115z" />
    <glyph glyph-name="y" unicode="y" horiz-adv-x="510" 
d="M10 480h110l134 -353h2l134 353h110l-210 -535q-30 -76 -72.5 -115.5t-102.5 -39.5q-17 0 -30.5 2.5t-23.5 4.5q-12 4 -21 8v95q8 -4 17 -8q8 -2 19 -4.5t24 -2.5q30 0 51.5 17.5t33.5 47.5l20 50z" />
    <glyph glyph-name="z" unicode="z" horiz-adv-x="485" 
d="M40 95l265 290h-255v95h385v-95l-265 -290h275v-95h-405v95z" />
    <glyph glyph-name="braceleft" unicode="{" horiz-adv-x="350" 
d="M30 295h15q30 0 47.5 17.5t17.5 47.5v200q0 68 41.5 109t113.5 41h60v-95h-50q-30 0 -47.5 -17.5t-17.5 -47.5v-190q0 -35 -10.5 -56.5t-23.5 -33.5q-15 -13 -34 -19v-2q19 -6 34 -19q13 -12 23.5 -33.5t10.5 -56.5v-190q0 -30 17.5 -47.5t47.5 -17.5h50v-95h-60
q-72 0 -113.5 41t-41.5 109v200q0 30 -17.5 47.5t-47.5 17.5h-15v90z" />
    <glyph glyph-name="bar" unicode="|" horiz-adv-x="340" 
d="M120 710h100v-920h-100v920z" />
    <glyph glyph-name="braceright" unicode="}" horiz-adv-x="350" 
d="M30 710h60q72 0 113.5 -41t41.5 -109v-200q0 -30 17.5 -47.5t47.5 -17.5h15v-90h-15q-30 0 -47.5 -17.5t-17.5 -47.5v-200q0 -68 -41.5 -109t-113.5 -41h-60v95h50q30 0 47.5 17.5t17.5 47.5v190q0 35 10.5 56.5t23.5 33.5q15 13 34 19v2q-19 6 -34 19q-13 12 -23.5 33.5
t-10.5 56.5v190q0 30 -17.5 47.5t-47.5 17.5h-50v95z" />
    <glyph glyph-name="asciitilde" unicode="~" horiz-adv-x="545" 
d="M35 275q13 27 33 48q17 17 45 32t67 15q32 0 56.5 -11t45.5 -24t41 -24t42 -11q23 0 38.5 9.5t26.5 20.5q12 13 20 30l60 -45q-13 -27 -33 -47q-17 -18 -44.5 -33t-67.5 -15q-32 0 -56.5 11t-45.5 24t-40.5 24t-42.5 11t-38.5 -9.5t-26.5 -20.5q-12 -13 -20 -30z" />
    <glyph glyph-name="uni00A0" unicode="&#xa0;" horiz-adv-x="210" 
 />
    <glyph glyph-name="exclamdown" unicode="&#xa1;" horiz-adv-x="290" 
d="M80 425q0 26 19.5 45.5t45.5 19.5t45.5 -19.5t19.5 -45.5t-19.5 -45.5t-45.5 -19.5t-45.5 19.5t-19.5 45.5zM105 290h80l20 -500h-120z" />
    <glyph glyph-name="cent" unicode="&#xa2;" horiz-adv-x="520" 
d="M40 240q0 49 15.5 89.5t42.5 72t62.5 53t74.5 30.5v105h90v-103q40 -5 70.5 -19.5t51.5 -30.5q25 -19 43 -42l-70 -65q-21 30 -57.5 47.5t-72.5 17.5q-33 0 -60.5 -12t-47.5 -33t-31 -49t-11 -61t11 -61t31 -49t47.5 -33t60.5 -12q38 0 75.5 19t59.5 51l70 -65
q-18 -24 -44 -44q-21 -17 -52.5 -32.5t-73.5 -20.5v-103h-90v105q-39 9 -74.5 30.5t-62.5 53t-42.5 72t-15.5 89.5z" />
    <glyph glyph-name="sterling" unicode="&#xa3;" horiz-adv-x="545" 
d="M40 100q70 0 70 70v110h-65v90h65v115q0 51 16 92.5t45 71t69.5 45.5t89.5 16q48 0 83 -13t59 -29q28 -19 48 -43l-70 -70q-12 15 -30 28q-15 10 -37.5 18.5t-52.5 8.5q-53 0 -86.5 -34t-33.5 -91v-115h195v-90h-195v-110q0 -18 -3.5 -31.5t-8.5 -21.5q-5 -10 -12 -16v-1
h339v-100h-485v100z" />
    <glyph glyph-name="currency" unicode="&#xa4;" horiz-adv-x="520" 
d="M106 242q-7 11 -13 26q-5 12 -9 29.5t-4 37.5q0 21 4 38t9 29q6 15 13 26l-56 57l60 60l56 -57q12 8 26 14q13 5 30.5 9t37.5 4q21 0 38 -4t30 -9q14 -6 26 -14l56 57l60 -60l-56 -57q7 -11 13 -26q5 -12 9 -29t4 -38q0 -20 -4 -37.5t-9 -29.5q-6 -15 -13 -26l56 -57
l-60 -60l-56 57q-12 -8 -26 -13q-13 -5 -30 -9.5t-38 -4.5q-20 0 -37.5 4.5t-30.5 9.5q-14 5 -26 13l-56 -57l-60 60zM155 335q0 -45 30 -75t75 -30t75 30t30 75t-30 75t-75 30t-75 -30t-30 -75z" />
    <glyph glyph-name="yen" unicode="&#xa5;" horiz-adv-x="650" 
d="M130 700l192 -337h6l192 337h125l-215 -365h105v-85h-155v-60h155v-85h-155v-105h-110v105h-155v85h155v60h-155v85h105l-215 365h125z" />
    <glyph glyph-name="brokenbar" unicode="&#xa6;" horiz-adv-x="340" 
d="M120 710h100v-380h-100v380zM220 170v-380h-100v380h100z" />
    <glyph glyph-name="section" unicode="&#xa7;" horiz-adv-x="530" 
d="M120 45q15 -18 36 -32q18 -13 44 -23t60 -10q49 0 72 20t23 50q0 25 -22.5 41.5t-56.5 30.5t-73.5 29t-73.5 36.5t-56.5 53.5t-22.5 79q0 34 14 59t31 42q20 20 45 34q-17 11 -30 26q-11 14 -20.5 33.5t-9.5 45.5q0 30 12.5 57t36.5 48t58.5 33t77.5 12q44 0 76 -10.5
t55 -24.5q25 -15 44 -35l-65 -65q-14 13 -31 23q-14 8 -34 15t-45 7q-45 0 -65 -17t-20 -43q0 -25 22 -41t55.5 -30t72.5 -28t72.5 -35t55.5 -52t22 -79q0 -34 -14 -59t-31 -42q-20 -20 -45 -34q18 -12 33 -29q12 -14 22 -34.5t10 -46.5q0 -31 -13.5 -60t-39 -51.5
t-61.5 -35.5t-81 -13q-53 0 -91 14t-64 31q-30 20 -50 45zM215 405q-18 -7 -32 -18q-13 -10 -23 -26t-10 -41q0 -28 25.5 -48.5t57.5 -34.5q36 -16 82 -27q18 7 33 18q12 10 22 26.5t10 40.5q0 29 -25.5 49t-56.5 34q-37 16 -83 27z" />
    <glyph glyph-name="dieresis" unicode="&#xa8;" horiz-adv-x="380" 
d="M30 630q0 26 18.5 43t41.5 17t41.5 -17t18.5 -43t-18.5 -43t-41.5 -17t-41.5 17t-18.5 43zM230 630q0 26 18.5 43t41.5 17t41.5 -17t18.5 -43t-18.5 -43t-41.5 -17t-41.5 17t-18.5 43z" />
    <glyph glyph-name="copyright" unicode="&#xa9;" horiz-adv-x="860" 
d="M430 -10q-79 0 -146.5 28t-117 77t-78 114.5t-28.5 140.5t28.5 140.5t78 114.5t117 77t146.5 28t146.5 -28t117 -77t78 -114.5t28.5 -140.5t-28.5 -140.5t-78 -114.5t-117 -77t-146.5 -28zM430 60q60 0 113 23t92 62t62 92t23 113t-23 113t-62 92t-92 62t-113 23
t-113 -23t-92 -62t-62 -92t-23 -113t23 -113t62 -92t92 -62t113 -23zM590 235q-16 -21 -38 -37q-20 -14 -48.5 -26t-68.5 -12q-41 0 -76.5 15t-62 40.5t-41.5 60.5t-15 74t15 74t41.5 60.5t62 40.5t76.5 15q40 0 68.5 -11.5t48.5 -25.5q22 -17 38 -38l-50 -50q-11 15 -26 28
q-14 10 -33.5 18.5t-45.5 8.5q-24 0 -46 -9.5t-38.5 -26t-26 -38.5t-9.5 -46t9.5 -46t26 -38.5t38.5 -26t46 -9.5q26 0 45.5 8.5t33.5 19.5q15 12 26 27z" />
    <glyph glyph-name="ordfeminine" unicode="&#xaa;" horiz-adv-x="340" 
d="M135 395q-45 0 -72.5 25.5t-27.5 59.5q0 38 25 62t70 33l100 20v1q-1 23 -17.5 38.5t-42.5 15.5q-19 0 -33 -6t-23 -14q-11 -9 -19 -20l-45 40q11 17 28 30q15 11 37.5 20.5t54.5 9.5q60 0 95 -33.5t35 -86.5v-185h-70v40q-9 -14 -23 -25q-12 -9 -29.5 -17t-42.5 -8z
M140 525q-15 -3 -25 -13.5t-10 -23.5q0 -17 11 -27.5t34 -10.5q15 0 29.5 7t25.5 18.5t18 27t7 32.5v10z" />
    <glyph glyph-name="guillemotleft" unicode="&#xab;" horiz-adv-x="505" 
d="M360 410h105l-120 -170l120 -170h-105l-120 170zM40 240l120 170h105l-120 -170l120 -170h-105z" />
    <glyph glyph-name="logicalnot" unicode="&#xac;" horiz-adv-x="470" 
d="M40 400h390v-225h-100v135h-290v90z" />
    <glyph glyph-name="uni00AD" unicode="&#xad;" horiz-adv-x="410" 
d="M45 340h320v-90h-320v90z" />
    <glyph glyph-name="registered" unicode="&#xae;" horiz-adv-x="860" 
d="M60 350q0 75 28.5 140.5t78 114.5t117 77t146.5 28t146.5 -28t117 -77t78 -114.5t28.5 -140.5t-28.5 -140.5t-78 -114.5t-117 -77t-146.5 -28t-146.5 28t-117 77t-78 114.5t-28.5 140.5zM140 350q0 -60 23 -113t62 -92t92 -62t113 -23t113 23t92 62t62 92t23 113t-23 113
t-62 92t-92 62t-113 23t-113 -23t-92 -62t-62 -92t-23 -113zM450 535q28 0 52 -9.5t41 -26t27 -38.5t10 -46q0 -28 -10.5 -47t-24.5 -31q-15 -14 -35 -22l85 -150h-80l-70 130h-70v-130h-75v370h150zM375 365h75q26 0 40.5 13.5t14.5 36.5t-14.5 36.5t-40.5 13.5h-75v-100z
" />
    <glyph glyph-name="degree" unicode="&#xb0;" horiz-adv-x="360" 
d="M35 570q0 28 11.5 53.5t31 44.5t46 30.5t56.5 11.5t56.5 -11.5t46 -30.5t31 -44.5t11.5 -53.5t-11.5 -53.5t-31 -44.5t-46 -30.5t-56.5 -11.5t-56.5 11.5t-46 30.5t-31 44.5t-11.5 53.5zM180 500q30 0 50 20t20 50t-20 50t-50 20t-50 -20t-20 -50t20 -50t50 -20z" />
    <glyph glyph-name="plusminus" unicode="&#xb1;" horiz-adv-x="515" 
d="M215 430v180h85v-180h180v-90h-180v-180h-85v180h-180v90h180zM480 100v-90h-445v90h445z" />
    <glyph glyph-name="twosuperior" unicode="&#xb2;" horiz-adv-x="305" 
d="M270 520v-70h-240q0 43 12.5 72t31.5 49.5t41 35.5t41 28t31.5 27t12.5 33t-13.5 32t-36.5 13q-15 0 -26 -7t-19 -15q-9 -10 -15 -23l-60 20q7 25 23 45q13 17 36 31t61 14q57 0 88.5 -30.5t31.5 -79.5q0 -36 -18 -60t-42.5 -42.5t-51 -35t-43.5 -37.5h155z" />
    <glyph glyph-name="threesuperior" unicode="&#xb3;" horiz-adv-x="310" 
d="M55 545q9 -10 22 -17q11 -7 27 -12.5t36 -5.5q34 0 49.5 13t15.5 32t-15.5 32t-49.5 13h-40v65h40q26 0 38 10t12 25q0 40 -50 40q-17 0 -30.5 -5.5t-23.5 -11.5q-12 -8 -21 -18l-45 45q12 15 30 28q15 10 37.5 18.5t52.5 8.5q57 0 88.5 -29t31.5 -71q0 -19 -6 -32
t-14 -22q-9 -10 -20 -16q15 -7 28 -18q10 -10 18.5 -26t8.5 -41q0 -21 -9 -40t-26.5 -33.5t-42.5 -23t-57 -8.5q-34 0 -58 8.5t-41 19.5q-18 12 -31 27z" />
    <glyph glyph-name="acute" unicode="&#xb4;" horiz-adv-x="240" 
d="M105 700h105l-105 -140h-75z" />
    <glyph glyph-name="mu" unicode="&#xb5;" horiz-adv-x="585" 
d="M70 480h100v-280q0 -53 30.5 -84t79.5 -31q53 0 86.5 34t33.5 91v270h100v-355q0 -19 10 -29.5t25 -10.5q12 0 18 3q4 1 7 2v-95q-4 -1 -10 -3q-5 -1 -11 -1.5t-14 -0.5q-31 0 -52.5 10t-34.5 23t-19 25.5t-8 17.5l-1 3h-1q-15 -22 -37 -39q-19 -15 -46.5 -27.5
t-65.5 -12.5q-23 0 -39.5 4t-27.5 9q-14 5 -23 12v-225h-100v690z" />
    <glyph glyph-name="paragraph" unicode="&#xb6;" horiz-adv-x="575" 
d="M40 530q0 36 13 67t36 54t54 36t67 13h275v-800h-90v705h-95v-705h-90v460q-36 0 -67 13t-54 36t-36 54t-13 67z" />
    <glyph glyph-name="periodcentered" unicode="&#xb7;" horiz-adv-x="210" 
d="M40 250q0 26 19.5 45.5t45.5 19.5t45.5 -19.5t19.5 -45.5t-19.5 -45.5t-45.5 -19.5t-45.5 19.5t-19.5 45.5z" />
    <glyph glyph-name="cedilla" unicode="&#xb8;" horiz-adv-x="255" 
d="M55 -135q9 -7 20 -13q10 -5 22.5 -8.5t27.5 -3.5q19 0 29.5 9.5t10.5 23.5q0 13 -10 22.5t-25 9.5q-8 0 -13 -1.5t-9 -3.5q-5 -2 -8 -5l-30 30l45 95h65l-35 -70h2q2 0 3 -0.5t3 -0.5q8 -2 20 -6t23.5 -12.5t20 -23.5t8.5 -37q0 -34 -25.5 -59.5t-74.5 -25.5
q-23 0 -40.5 5.5t-29.5 11.5q-14 8 -25 18z" />
    <glyph glyph-name="onesuperior" unicode="&#xb9;" horiz-adv-x="235" 
d="M105 700h-65v55q34 0 55 15t25 30h55v-350h-70v250z" />
    <glyph glyph-name="ordmasculine" unicode="&#xba;" horiz-adv-x="380" 
d="M190 390q-34 0 -63 12.5t-50.5 34t-34 50.5t-12.5 62q0 34 12.5 63.5t34 51t50.5 34t63 12.5t63 -12.5t50.5 -34t34 -51t12.5 -63.5q0 -33 -12.5 -62t-34 -50.5t-50.5 -34t-63 -12.5zM190 460q38 0 61.5 26t23.5 64t-23.5 64t-61.5 26t-61.5 -26t-23.5 -64t23.5 -64
t61.5 -26z" />
    <glyph glyph-name="guillemotright" unicode="&#xbb;" horiz-adv-x="505" 
d="M240 410h105l120 -170l-120 -170h-105l120 170zM160 240l-120 170h105l120 -170l-120 -170h-105z" />
    <glyph glyph-name="questiondown" unicode="&#xbf;" horiz-adv-x="465" 
d="M485 -55q-14 -46 -44 -83q-13 -15 -31 -30t-41 -26.5t-52.5 -18.5t-66.5 -7q-52 0 -94.5 15.5t-72.5 42t-46.5 60.5t-16.5 72q0 48 14.5 79.5t36 54.5t47 40.5t47 36.5t36 43.5t14.5 60.5v5h100q1 -6 3 -13q1 -6 1.5 -14t0.5 -18q0 -36 -14 -61.5t-35 -45t-46 -35.5
t-46 -33.5t-35 -38.5t-14 -51q0 -42 31.5 -71t88.5 -29q44 0 71.5 15.5t44.5 34.5q19 22 29 50zM200 425q0 26 19.5 45.5t45.5 19.5t45.5 -19.5t19.5 -45.5t-19.5 -45.5t-45.5 -19.5t-45.5 19.5t-19.5 45.5z" />
    <glyph glyph-name="Agrave" unicode="&#xc0;" horiz-adv-x="700" 
d="M10 0l280 700h120l280 -700h-115l-70 180h-310l-70 -180h-115zM465 280l-114 288h-2l-114 -288h230zM200 930h105l75 -140h-75z" />
    <glyph glyph-name="Aacute" unicode="&#xc1;" horiz-adv-x="700" 
d="M10 0l280 700h120l280 -700h-115l-70 180h-310l-70 -180h-115zM465 280l-114 288h-2l-114 -288h230zM390 930h105l-105 -140h-75z" />
    <glyph glyph-name="Acircumflex" unicode="&#xc2;" horiz-adv-x="700" 
d="M10 0l280 700h120l280 -700h-115l-70 180h-310l-70 -180h-115zM465 280l-114 288h-2l-114 -288h230zM305 930h90l115 -140h-90l-69 84h-2l-69 -84h-90z" />
    <glyph glyph-name="Adieresis" unicode="&#xc4;" horiz-adv-x="700" 
d="M10 0l280 700h120l280 -700h-115l-70 180h-310l-70 -180h-115zM465 280l-114 288h-2l-114 -288h230zM190 850q0 26 18.5 43t41.5 17t41.5 -17t18.5 -43t-18.5 -43t-41.5 -17t-41.5 17t-18.5 43zM390 850q0 26 18.5 43t41.5 17t41.5 -17t18.5 -43t-18.5 -43t-41.5 -17
t-41.5 17t-18.5 43z" />
    <glyph glyph-name="Ccedilla" unicode="&#xc7;" horiz-adv-x="745" 
d="M335 -135q9 -7 20 -13q10 -5 22.5 -8.5t27.5 -3.5q19 0 29.5 9.5t10.5 23.5q0 13 -10 22.5t-25 9.5q-8 0 -13 -1.5t-9 -3.5q-5 -2 -8 -5l-30 30l30 65q-69 11 -128.5 42t-103 78t-68.5 108t-25 132q0 75 28.5 140.5t78 114.5t117 77t146.5 28q72 0 125 -21t89 -46
q42 -30 71 -68l-70 -70q-22 29 -53 53q-27 20 -67 36t-95 16q-54 0 -101.5 -20t-83 -55.5t-55.5 -83t-20 -101.5t20 -101.5t55.5 -83t83 -55.5t101.5 -20q55 0 96 17.5t68 37.5q33 24 56 55l70 -70q-29 -37 -69 -66q-35 -26 -85 -48t-116 -26l-20 -40h5q5 -2 12 -3
q9 -2 19.5 -7t20.5 -14t16.5 -22.5t6.5 -33.5q0 -34 -25.5 -59.5t-74.5 -25.5q-23 0 -40.5 5.5t-29.5 11.5q-14 8 -25 18z" />
    <glyph glyph-name="Egrave" unicode="&#xc8;" horiz-adv-x="650" 
d="M595 700v-105h-385v-180h305v-105h-305v-205h395v-105h-505v700h495zM215 930h105l75 -140h-75z" />
    <glyph glyph-name="Eacute" unicode="&#xc9;" horiz-adv-x="650" 
d="M595 700v-105h-385v-180h305v-105h-305v-205h395v-105h-505v700h495zM390 930h105l-105 -140h-75z" />
    <glyph glyph-name="Iacute" unicode="&#xcd;" horiz-adv-x="310" 
d="M100 700h110v-700h-110v700zM195 930h105l-105 -140h-75z" />
    <glyph glyph-name="Icircumflex" unicode="&#xce;" horiz-adv-x="310" 
d="M100 700h110v-700h-110v700zM110 930h90l115 -140h-90l-69 84h-2l-69 -84h-90z" />
    <glyph glyph-name="Idieresis" unicode="&#xcf;" horiz-adv-x="310" 
d="M100 700h110v-700h-110v700zM-5 850q0 26 18.5 43t41.5 17t41.5 -17t18.5 -43t-18.5 -43t-41.5 -17t-41.5 17t-18.5 43zM195 850q0 26 18.5 43t41.5 17t41.5 -17t18.5 -43t-18.5 -43t-41.5 -17t-41.5 17t-18.5 43z" />
    <glyph glyph-name="Ntilde" unicode="&#xd1;" horiz-adv-x="795" 
d="M200 700l385 -515v515h110v-700h-100l-385 515v-515h-110v700h100zM230 790v2q0 69 27.5 101t72.5 32q24 0 42 -9.5t32.5 -20.5t27.5 -20.5t28 -9.5q19 0 29.5 13t10.5 47h65v-2q0 -69 -27.5 -101t-72.5 -32q-24 0 -42 9.5t-32.5 20.5t-27.5 20.5t-28 9.5
q-19 0 -29.5 -13t-10.5 -47h-65z" />
    <glyph glyph-name="Ograve" unicode="&#xd2;" horiz-adv-x="850" 
d="M425 -10q-79 0 -146.5 28t-117 77t-78 114.5t-28.5 140.5t28.5 140.5t78 114.5t117 77t146.5 28t146.5 -28t117 -77t78 -114.5t28.5 -140.5t-28.5 -140.5t-78 -114.5t-117 -77t-146.5 -28zM425 90q54 0 101.5 20t83 55.5t55.5 83t20 101.5t-20 101.5t-55.5 83t-83 55.5
t-101.5 20t-101.5 -20t-83 -55.5t-55.5 -83t-20 -101.5t20 -101.5t55.5 -83t83 -55.5t101.5 -20zM284 930h105l75 -140h-75z" />
    <glyph glyph-name="Oacute" unicode="&#xd3;" horiz-adv-x="850" 
d="M425 -10q-79 0 -146.5 28t-117 77t-78 114.5t-28.5 140.5t28.5 140.5t78 114.5t117 77t146.5 28t146.5 -28t117 -77t78 -114.5t28.5 -140.5t-28.5 -140.5t-78 -114.5t-117 -77t-146.5 -28zM425 90q54 0 101.5 20t83 55.5t55.5 83t20 101.5t-20 101.5t-55.5 83t-83 55.5
t-101.5 20t-101.5 -20t-83 -55.5t-55.5 -83t-20 -101.5t20 -101.5t55.5 -83t83 -55.5t101.5 -20zM459 930h105l-105 -140h-75z" />
    <glyph glyph-name="Odieresis" unicode="&#xd6;" horiz-adv-x="850" 
d="M425 -10q-79 0 -146.5 28t-117 77t-78 114.5t-28.5 140.5t28.5 140.5t78 114.5t117 77t146.5 28t146.5 -28t117 -77t78 -114.5t28.5 -140.5t-28.5 -140.5t-78 -114.5t-117 -77t-146.5 -28zM425 90q54 0 101.5 20t83 55.5t55.5 83t20 101.5t-20 101.5t-55.5 83t-83 55.5
t-101.5 20t-101.5 -20t-83 -55.5t-55.5 -83t-20 -101.5t20 -101.5t55.5 -83t83 -55.5t101.5 -20zM265 850q0 26 18.5 43t41.5 17t41.5 -17t18.5 -43t-18.5 -43t-41.5 -17t-41.5 17t-18.5 43zM465 850q0 26 18.5 43t41.5 17t41.5 -17t18.5 -43t-18.5 -43t-41.5 -17t-41.5 17
t-18.5 43z" />
    <glyph glyph-name="multiply" unicode="&#xd7;" horiz-adv-x="500" 
d="M190 310l-135 135l60 60l135 -135l135 135l60 -60l-135 -135l135 -135l-60 -60l-135 135l-135 -135l-60 60z" />
    <glyph glyph-name="Uacute" unicode="&#xda;" horiz-adv-x="770" 
d="M200 700v-420q0 -41 14 -76t39 -60.5t59 -39.5t73 -14q38 0 71.5 15t58.5 40.5t40 60.5t15 74v420h110v-420q0 -64 -21.5 -117t-60.5 -91.5t-93 -60t-120 -21.5t-120 21.5t-93 60t-60.5 91.5t-21.5 117v420h110zM420 930h105l-105 -140h-75z" />
    <glyph glyph-name="Udieresis" unicode="&#xdc;" horiz-adv-x="770" 
d="M200 700v-420q0 -41 14 -76t39 -60.5t59 -39.5t73 -14q38 0 71.5 15t58.5 40.5t40 60.5t15 74v420h110v-420q0 -64 -21.5 -117t-60.5 -91.5t-93 -60t-120 -21.5t-120 21.5t-93 60t-60.5 91.5t-21.5 117v420h110zM225 850q0 26 18.5 43t41.5 17t41.5 -17t18.5 -43
t-18.5 -43t-41.5 -17t-41.5 17t-18.5 43zM425 850q0 26 18.5 43t41.5 17t41.5 -17t18.5 -43t-18.5 -43t-41.5 -17t-41.5 17t-18.5 43z" />
    <glyph glyph-name="Yacute" unicode="&#xdd;" horiz-adv-x="650" 
d="M5 700h125l192 -335h6l192 335h125l-265 -450v-250h-110v250zM360 930h105l-105 -140h-75z" />
    <glyph glyph-name="germandbls" unicode="&#xdf;" horiz-adv-x="590" 
d="M70 500q0 47 15.5 85.5t43.5 66.5t67.5 43t88.5 15q45 0 83.5 -15.5t66.5 -42t44 -60.5t16 -72q0 -35 -11.5 -60.5t-25.5 -42.5q-17 -19 -38 -32q35 -15 63 -39q23 -20 42.5 -53.5t19.5 -82.5q0 -45 -16 -83.5t-45.5 -66.5t-71 -44t-92.5 -16h-50v100h50q28 0 51 9
t39.5 24t25.5 35t9 42q0 23 -9 43t-25.5 35t-39.5 23.5t-51 8.5h-50v100h15q49 0 79.5 29t30.5 71q0 19 -8 36t-22.5 30t-35 21t-44.5 8q-53 0 -84 -31t-31 -84v-500h-100v500z" />
    <glyph glyph-name="agrave" unicode="&#xe0;" horiz-adv-x="520" 
d="M195 -10q-36 0 -65.5 11.5t-50.5 30.5t-32.5 44.5t-11.5 53.5q0 60 38 99.5t102 50.5l175 30v2q0 36 -27.5 62t-72.5 26q-28 0 -51 -10t-40 -22q-19 -15 -34 -33l-65 65q20 25 48 45q24 17 59.5 31t82.5 14q45 0 82 -14t63 -39t40.5 -59t14.5 -73v-305h-100v68h-1
q-16 -22 -38 -39q-20 -14 -48.5 -26.5t-67.5 -12.5zM210 205q-38 -7 -56.5 -24.5t-18.5 -40.5q0 -26 21 -45.5t59 -19.5q28 0 52.5 10.5t43 29.5t29 44.5t10.5 55.5v15zM120 700h105l75 -140h-75z" />
    <glyph glyph-name="aacute" unicode="&#xe1;" horiz-adv-x="520" 
d="M195 -10q-36 0 -65.5 11.5t-50.5 30.5t-32.5 44.5t-11.5 53.5q0 60 38 99.5t102 50.5l175 30v2q0 36 -27.5 62t-72.5 26q-28 0 -51 -10t-40 -22q-19 -15 -34 -33l-65 65q20 25 48 45q24 17 59.5 31t82.5 14q45 0 82 -14t63 -39t40.5 -59t14.5 -73v-305h-100v68h-1
q-16 -22 -38 -39q-20 -14 -48.5 -26.5t-67.5 -12.5zM210 205q-38 -7 -56.5 -24.5t-18.5 -40.5q0 -26 21 -45.5t59 -19.5q28 0 52.5 10.5t43 29.5t29 44.5t10.5 55.5v15zM305 700h105l-105 -140h-75z" />
    <glyph glyph-name="acircumflex" unicode="&#xe2;" horiz-adv-x="520" 
d="M195 -10q-36 0 -65.5 11.5t-50.5 30.5t-32.5 44.5t-11.5 53.5q0 60 38 99.5t102 50.5l175 30v2q0 36 -27.5 62t-72.5 26q-28 0 -51 -10t-40 -22q-19 -15 -34 -33l-65 65q20 25 48 45q24 17 59.5 31t82.5 14q45 0 82 -14t63 -39t40.5 -59t14.5 -73v-305h-100v68h-1
q-16 -22 -38 -39q-20 -14 -48.5 -26.5t-67.5 -12.5zM210 205q-38 -7 -56.5 -24.5t-18.5 -40.5q0 -26 21 -45.5t59 -19.5q28 0 52.5 10.5t43 29.5t29 44.5t10.5 55.5v15zM220 700h90l115 -140h-90l-69 84h-2l-69 -84h-90z" />
    <glyph glyph-name="adieresis" unicode="&#xe4;" horiz-adv-x="520" 
d="M195 -10q-36 0 -65.5 11.5t-50.5 30.5t-32.5 44.5t-11.5 53.5q0 60 38 99.5t102 50.5l175 30v2q0 36 -27.5 62t-72.5 26q-28 0 -51 -10t-40 -22q-19 -15 -34 -33l-65 65q20 25 48 45q24 17 59.5 31t82.5 14q45 0 82 -14t63 -39t40.5 -59t14.5 -73v-305h-100v68h-1
q-16 -22 -38 -39q-20 -14 -48.5 -26.5t-67.5 -12.5zM210 205q-38 -7 -56.5 -24.5t-18.5 -40.5q0 -26 21 -45.5t59 -19.5q28 0 52.5 10.5t43 29.5t29 44.5t10.5 55.5v15zM105 630q0 26 18.5 43t41.5 17t41.5 -17t18.5 -43t-18.5 -43t-41.5 -17t-41.5 17t-18.5 43zM305 630
q0 26 18.5 43t41.5 17t41.5 -17t18.5 -43t-18.5 -43t-41.5 -17t-41.5 17t-18.5 43z" />
    <glyph glyph-name="ccedilla" unicode="&#xe7;" horiz-adv-x="520" 
d="M205 -135q9 -7 20 -13q10 -5 22.5 -8.5t27.5 -3.5q19 0 29.5 9.5t10.5 23.5q0 13 -10 22.5t-25 9.5q-8 0 -13 -1.5t-9 -3.5q-5 -2 -8 -5l-30 30l30 65q-43 7 -81.5 28.5t-67 53.5t-45 74.5t-16.5 93.5q0 53 19.5 98.5t53 79t79.5 53t98 19.5q51 0 88.5 -15t62.5 -32
q29 -21 49 -48l-70 -65q-14 18 -33 33q-17 12 -41 22t-56 10t-59.5 -11.5t-47.5 -32t-31.5 -49t-11.5 -62.5t11.5 -62.5t31.5 -49t47.5 -32t59.5 -11.5t57 11t42 24q21 15 36 35l70 -65q-20 -25 -47 -46q-23 -18 -56 -34t-77 -20l-20 -40h2q2 0 3 -0.5t3 -0.5q8 -2 20 -6
t23.5 -12.5t20 -23.5t8.5 -37q0 -34 -25.5 -59.5t-74.5 -25.5q-23 0 -40.5 5.5t-29.5 11.5q-14 8 -25 18z" />
    <glyph glyph-name="egrave" unicode="&#xe8;" horiz-adv-x="560" 
d="M495 80q-20 -25 -50 -45q-26 -17 -64 -31t-91 -14q-52 0 -98 19.5t-79.5 53t-53 79.5t-19.5 98q0 53 19.5 98.5t52.5 79t77.5 53t95.5 19.5t94 -17.5t74.5 -49t49 -74.5t17.5 -94q0 -11 -0.5 -20t-1.5 -16q-2 -8 -3 -14h-370q4 -24 16.5 -46t32 -38.5t45.5 -26t56 -9.5
q32 0 58 10t44 23q21 14 38 32zM415 290q-11 49 -44 79.5t-86 30.5q-57 0 -91 -30.5t-49 -79.5h270zM145 700h105l75 -140h-75z" />
    <glyph glyph-name="eacute" unicode="&#xe9;" horiz-adv-x="560" 
d="M495 80q-20 -25 -50 -45q-26 -17 -64 -31t-91 -14q-52 0 -98 19.5t-79.5 53t-53 79.5t-19.5 98q0 53 19.5 98.5t52.5 79t77.5 53t95.5 19.5t94 -17.5t74.5 -49t49 -74.5t17.5 -94q0 -11 -0.5 -20t-1.5 -16q-2 -8 -3 -14h-370q4 -24 16.5 -46t32 -38.5t45.5 -26t56 -9.5
q32 0 58 10t44 23q21 14 38 32zM415 290q-11 49 -44 79.5t-86 30.5q-57 0 -91 -30.5t-49 -79.5h270zM315 700h105l-105 -140h-75z" />
    <glyph glyph-name="iacute" unicode="&#xed;" horiz-adv-x="250" 
d="M75 480h100v-480h-100v480zM165 700h105l-105 -140h-75z" />
    <glyph glyph-name="icircumflex" unicode="&#xee;" horiz-adv-x="250" 
d="M75 0v480h100v-480h-100zM80 700h90l115 -140h-90l-69 84h-2l-69 -84h-90z" />
    <glyph glyph-name="idieresis" unicode="&#xef;" horiz-adv-x="250" 
d="M75 480h100v-480h-100v480zM-35 630q0 26 18.5 43t41.5 17t41.5 -17t18.5 -43t-18.5 -43t-41.5 -17t-41.5 17t-18.5 43zM165 630q0 26 18.5 43t41.5 17t41.5 -17t18.5 -43t-18.5 -43t-41.5 -17t-41.5 17t-18.5 43z" />
    <glyph glyph-name="ntilde" unicode="&#xf1;" horiz-adv-x="580" 
d="M170 480v-68h1q16 22 38 39q19 15 46.5 27t64.5 12q41 0 76 -14.5t60.5 -41.5t39.5 -66t14 -88v-280h-100v280q0 53 -30.5 84t-79.5 31q-28 0 -52 -10t-41 -27.5t-27 -42.5t-10 -55v-260h-100v480h100zM130 565v2q0 69 27.5 101t72.5 32q24 0 42 -9.5t32.5 -20.5
t27.5 -20.5t28 -9.5q19 0 29.5 13t10.5 47h65v-2q0 -69 -27.5 -101t-72.5 -32q-24 0 -42 9.5t-32.5 20.5t-27.5 20.5t-28 9.5q-19 0 -29.5 -13t-10.5 -47h-65z" />
    <glyph glyph-name="ograve" unicode="&#xf2;" horiz-adv-x="580" 
d="M290 -10q-52 0 -98 19.5t-79.5 53t-53 79.5t-19.5 98q0 53 19.5 98.5t53 79t79.5 53t98 19.5q53 0 98.5 -19.5t79 -53t53 -79t19.5 -98.5q0 -52 -19.5 -98t-53 -79.5t-79 -53t-98.5 -19.5zM290 85q32 0 59.5 11.5t47.5 32t31.5 49t11.5 62.5t-11.5 62.5t-31.5 49
t-47.5 32t-59.5 11.5t-59.5 -11.5t-47.5 -32t-31.5 -49t-11.5 -62.5t11.5 -62.5t31.5 -49t47.5 -32t59.5 -11.5zM150 700h105l75 -140h-75z" />
    <glyph glyph-name="oacute" unicode="&#xf3;" horiz-adv-x="580" 
d="M290 -10q-52 0 -98 19.5t-79.5 53t-53 79.5t-19.5 98q0 53 19.5 98.5t53 79t79.5 53t98 19.5q53 0 98.5 -19.5t79 -53t53 -79t19.5 -98.5q0 -52 -19.5 -98t-53 -79.5t-79 -53t-98.5 -19.5zM290 85q32 0 59.5 11.5t47.5 32t31.5 49t11.5 62.5t-11.5 62.5t-31.5 49
t-47.5 32t-59.5 11.5t-59.5 -11.5t-47.5 -32t-31.5 -49t-11.5 -62.5t11.5 -62.5t31.5 -49t47.5 -32t59.5 -11.5zM325 700h105l-105 -140h-75z" />
    <glyph glyph-name="odieresis" unicode="&#xf6;" horiz-adv-x="580" 
d="M290 -10q-52 0 -98 19.5t-79.5 53t-53 79.5t-19.5 98q0 53 19.5 98.5t53 79t79.5 53t98 19.5q53 0 98.5 -19.5t79 -53t53 -79t19.5 -98.5q0 -52 -19.5 -98t-53 -79.5t-79 -53t-98.5 -19.5zM290 85q32 0 59.5 11.5t47.5 32t31.5 49t11.5 62.5t-11.5 62.5t-31.5 49
t-47.5 32t-59.5 11.5t-59.5 -11.5t-47.5 -32t-31.5 -49t-11.5 -62.5t11.5 -62.5t31.5 -49t47.5 -32t59.5 -11.5zM130 630q0 26 18.5 43t41.5 17t41.5 -17t18.5 -43t-18.5 -43t-41.5 -17t-41.5 17t-18.5 43zM330 630q0 26 18.5 43t41.5 17t41.5 -17t18.5 -43t-18.5 -43
t-41.5 -17t-41.5 17t-18.5 43z" />
    <glyph glyph-name="divide" unicode="&#xf7;" horiz-adv-x="510" 
d="M190 480q0 26 19.5 45.5t45.5 19.5t45.5 -19.5t19.5 -45.5t-19.5 -45.5t-45.5 -19.5t-45.5 19.5t-19.5 45.5zM35 340h440v-90h-440v90zM190 110q0 26 19.5 45.5t45.5 19.5t45.5 -19.5t19.5 -45.5t-19.5 -45.5t-45.5 -19.5t-45.5 19.5t-19.5 45.5z" />
    <glyph glyph-name="uacute" unicode="&#xfa;" horiz-adv-x="580" 
d="M170 480v-280q0 -53 30.5 -84t79.5 -31q28 0 52 10t41 27.5t27 42.5t10 55v260h100v-480h-100v68h-1q-16 -22 -38 -39q-19 -14 -46.5 -26.5t-64.5 -12.5q-41 0 -76 14.5t-60.5 41.5t-39.5 66t-14 88v280h100zM330 700h105l-105 -140h-75z" />
    <glyph glyph-name="udieresis" unicode="&#xfc;" horiz-adv-x="580" 
d="M170 480v-280q0 -53 30.5 -84t79.5 -31q28 0 52 10t41 27.5t27 42.5t10 55v260h100v-480h-100v68h-1q-16 -22 -38 -39q-19 -14 -46.5 -26.5t-64.5 -12.5q-41 0 -76 14.5t-60.5 41.5t-39.5 66t-14 88v280h100zM130 630q0 26 18.5 43t41.5 17t41.5 -17t18.5 -43t-18.5 -43
t-41.5 -17t-41.5 17t-18.5 43zM330 630q0 26 18.5 43t41.5 17t41.5 -17t18.5 -43t-18.5 -43t-41.5 -17t-41.5 17t-18.5 43z" />
    <glyph glyph-name="yacute" unicode="&#xfd;" horiz-adv-x="510" 
d="M10 480h110l134 -353h2l134 353h110l-210 -535q-30 -76 -72.5 -115.5t-102.5 -39.5q-17 0 -30.5 2.5t-23.5 4.5q-12 4 -21 8v95q8 -4 17 -8q8 -2 19 -4.5t24 -2.5q30 0 51.5 17.5t33.5 47.5l20 50zM290 700h105l-105 -140h-75z" />
    <glyph glyph-name="Abreve" unicode="&#x102;" horiz-adv-x="700" 
d="M10 0l280 700h120l280 -700h-115l-70 180h-310l-70 -180h-115zM465 280l-114 288h-2l-114 -288h230zM280 930q0 -30 20 -50t50 -20t50 20t20 50h75q0 -30 -10.5 -55.5t-30 -44.5t-46 -29.5t-58.5 -10.5t-58.5 10.5t-46 29.5t-30 44.5t-10.5 55.5h75z" />
    <glyph glyph-name="abreve" unicode="&#x103;" horiz-adv-x="520" 
d="M195 -10q-36 0 -65.5 11.5t-50.5 30.5t-32.5 44.5t-11.5 53.5q0 60 38 99.5t102 50.5l175 30v2q0 36 -27.5 62t-72.5 26q-28 0 -51 -10t-40 -22q-19 -15 -34 -33l-65 65q20 25 48 45q24 17 59.5 31t82.5 14q45 0 82 -14t63 -39t40.5 -59t14.5 -73v-305h-100v68h-1
q-16 -22 -38 -39q-20 -14 -48.5 -26.5t-67.5 -12.5zM210 205q-38 -7 -56.5 -24.5t-18.5 -40.5q0 -26 21 -45.5t59 -19.5q28 0 52.5 10.5t43 29.5t29 44.5t10.5 55.5v15zM195 700q0 -30 20 -50t50 -20t50 20t20 50h75q0 -30 -10.5 -55.5t-30 -44.5t-46 -29.5t-58.5 -10.5
t-58.5 10.5t-46 29.5t-30 44.5t-10.5 55.5h75z" />
    <glyph glyph-name="Ldot" unicode="&#x13f;" horiz-adv-x="570" 
d="M100 700h110v-595h340v-105h-450v700zM370 380q0 26 18.5 43t41.5 17t41.5 -17t18.5 -43t-18.5 -43t-41.5 -17t-41.5 17t-18.5 43z" />
    <glyph glyph-name="ldot" unicode="&#x140;" horiz-adv-x="375" 
d="M75 700h100v-700h-100v700zM250 350q0 26 18.5 43t41.5 17t41.5 -17t18.5 -43t-18.5 -43t-41.5 -17t-41.5 17t-18.5 43z" />
    <glyph glyph-name="Scedilla" unicode="&#x15e;" horiz-adv-x="570" 
d="M200 -135q9 -7 20 -13q10 -5 22.5 -8.5t27.5 -3.5q19 0 29.5 9.5t10.5 23.5q0 13 -10 22.5t-25 9.5q-8 0 -13 -1.5t-9 -3.5q-5 -2 -8 -5l-30 30l30 65q-54 5 -94.5 22.5t-67.5 35.5q-31 22 -53 47l75 75q17 -22 43 -40q21 -15 54 -27.5t78 -12.5q34 0 60 8.5t44 23
t27 33.5t9 40q0 29 -16 47.5t-42 31.5t-59 22t-68 19.5t-68 25t-59 37t-42 55.5t-16 82q0 39 16.5 74.5t47.5 62.5t75.5 42.5t100.5 15.5q55 0 96 -14t68 -31q33 -20 56 -45l-75 -75q-15 18 -37 33q-18 12 -45 22t-63 10q-64 0 -97 -28.5t-33 -66.5q0 -29 16 -47.5t42 -31.5
t59 -22t68 -19.5t68 -25t59 -37t42 -55.5t16 -82q0 -39 -15.5 -74t-44 -62t-69 -45t-91.5 -24l-20 -40h4q2 -1 4 -1t5 -1q9 -2 20.5 -6.5t22 -13.5t17.5 -23t7 -35q0 -34 -25.5 -59.5t-74.5 -25.5q-23 0 -40.5 5.5t-29.5 11.5q-14 8 -25 18z" />
    <glyph glyph-name="scedilla" unicode="&#x15f;" horiz-adv-x="435" 
d="M135 -135q9 -7 20 -13q10 -5 22.5 -8.5t27.5 -3.5q19 0 29.5 9.5t10.5 23.5q0 13 -10 22.5t-25 9.5q-8 0 -13 -1.5t-9 -3.5q-5 -2 -8 -5l-30 30l30 65q-38 5 -66.5 20t-48.5 31q-23 18 -40 39l65 65q15 -18 34 -32q17 -13 40 -23t51 -10q42 0 63.5 18.5t21.5 41.5
q0 20 -19 31.5t-47 20.5t-61.5 19t-61.5 26.5t-47 43.5t-19 69q0 28 12 53.5t34.5 44.5t55 30.5t73.5 11.5q44 0 75.5 -10t52.5 -22q25 -15 42 -33l-65 -65q-12 11 -28 20q-14 8 -33 14t-44 6q-38 0 -56.5 -15.5t-18.5 -34.5q0 -20 19 -31.5t47 -20.5t61.5 -19t61.5 -26.5
t47 -43t19 -69.5q0 -30 -11 -56t-31 -45.5t-48.5 -32t-64.5 -16.5l-20 -40h4q2 -1 4 -1t5 -1q9 -2 20.5 -6.5t22 -13.5t17.5 -23t7 -35q0 -34 -25.5 -59.5t-74.5 -25.5q-23 0 -40.5 5.5t-29.5 11.5q-14 8 -25 18z" />
    <glyph glyph-name="uni0162" unicode="&#x162;" horiz-adv-x="570" 
d="M20 700h530v-105h-210v-595h-15l-25 -50q34 -4 57 -23.5t23 -56.5q0 -34 -25.5 -59.5t-74.5 -25.5q-23 0 -40.5 5.5t-29.5 11.5q-14 8 -25 18l25 45q9 -7 20 -13q10 -5 22.5 -8.5t27.5 -3.5q19 0 29.5 9.5t10.5 23.5q0 13 -10 22.5t-25 9.5q-8 0 -13 -1.5t-9 -3.5
q-5 -2 -8 -5l-30 30l35 75h-30v595h-210v105z" />
    <glyph glyph-name="uni0163" unicode="&#x163;" horiz-adv-x="395" 
d="M30 480h55q23 0 34 12.5t11 42.5v105h90v-160h110v-95h-110v-225q0 -75 70 -75q11 0 21 2.5t18 5.5q9 3 16 7v-95q-10 -4 -22 -8q-11 -2 -24 -4.5t-28 -2.5h-1l-20 -40h4q5 -2 13 -3q9 -2 19.5 -7t20.5 -14t16.5 -22.5t6.5 -33.5q0 -34 -25.5 -59.5t-74.5 -25.5
q-23 0 -40.5 5.5t-29.5 11.5q-14 8 -25 18l25 45q9 -7 20 -13q10 -5 22.5 -8.5t27.5 -3.5q19 0 29.5 9.5t10.5 23.5q0 13 -10 22.5t-25 9.5q-8 0 -13 -1.5t-9 -3.5q-5 -2 -8 -5l-30 30l35 75q-25 6 -45 24q-17 16 -31 45.5t-14 80.5v235h-90v95z" />
    <glyph glyph-name="florin" unicode="&#x192;" horiz-adv-x="385" 
d="M-80 -105q9 -3 18 -5q18 -5 37 -5q38 0 55.5 15.5t24.5 49.5l70 370h-75v90h92l28 140q17 83 55 121.5t110 38.5q15 0 28 -2.5t22 -4.5q11 -4 20 -8v-90q-9 3 -18 5q-18 5 -37 5q-38 0 -55.5 -15.5t-24.5 -49.5l-28 -140h108v-90h-125l-70 -370q-16 -83 -54.5 -121.5
t-110.5 -38.5q-15 0 -28 2.5t-22 4.5q-11 4 -20 8v90z" />
    <glyph glyph-name="uni0218" unicode="&#x218;" horiz-adv-x="570" 
d="M105 170q17 -22 43 -40q21 -15 54 -27.5t78 -12.5q34 0 60 8.5t44 23t27 33.5t9 40q0 29 -16 47.5t-42 31.5t-59 22t-68 19.5t-68 25t-59 37t-42 55.5t-16 82q0 39 16.5 74.5t47.5 62.5t75.5 42.5t100.5 15.5q55 0 96 -14t68 -31q33 -20 56 -45l-75 -75q-15 18 -37 33
q-18 12 -45 22t-63 10q-64 0 -97 -28.5t-33 -66.5q0 -29 16 -47.5t42 -31.5t59 -22t68 -19.5t68 -25t59 -37t42 -55.5t16 -82q0 -41 -17.5 -78.5t-49.5 -65.5t-78.5 -44.5t-104.5 -16.5q-64 0 -110.5 16.5t-78.5 36.5q-36 23 -61 52zM240 -80h95l-65 -140h-75z" />
    <glyph glyph-name="uni0219" unicode="&#x219;" horiz-adv-x="435" 
d="M90 145q15 -18 34 -32q17 -13 40 -23t51 -10q42 0 63.5 18.5t21.5 41.5q0 20 -19 31.5t-47 20.5t-61.5 19t-61.5 26.5t-47 43.5t-19 69q0 28 12 53.5t34.5 44.5t55 30.5t73.5 11.5q44 0 75.5 -10t52.5 -22q25 -15 42 -33l-65 -65q-12 11 -28 20q-14 8 -33 14t-44 6
q-38 0 -56.5 -15.5t-18.5 -34.5q0 -20 19 -31.5t47 -20.5t61.5 -19t61.5 -26.5t47 -43t19 -69.5q0 -30 -12.5 -57t-36.5 -48t-58.5 -33t-77.5 -12q-47 0 -82.5 14t-59.5 31q-28 20 -48 45zM170 -80h95l-65 -140h-75z" />
    <glyph glyph-name="uni021A" unicode="&#x21a;" horiz-adv-x="570" 
d="M20 700h530v-105h-210v-595h-110v595h-210v105zM240 -80h95l-65 -140h-75z" />
    <glyph glyph-name="uni021B" unicode="&#x21b;" horiz-adv-x="395" 
d="M85 480q23 0 34 12.5t11 42.5v105h90v-160h110v-95h-110v-225q0 -75 70 -75q11 0 21 2.5t18 5.5q9 3 16 7v-95q-9 -4 -21 -8q-10 -2 -23.5 -4.5t-30.5 -2.5q-72 0 -111 40.5t-39 119.5v235h-90v95h55zM190 -80h95l-65 -140h-75z" />
    <glyph glyph-name="circumflex" unicode="&#x2c6;" horiz-adv-x="380" 
d="M145 700h90l115 -140h-90l-69 84h-2l-69 -84h-90z" />
    <glyph glyph-name="breve" unicode="&#x2d8;" horiz-adv-x="350" 
d="M105 700q0 -30 20 -50t50 -20t50 20t20 50h75q0 -30 -10.5 -55.5t-30 -44.5t-46 -29.5t-58.5 -10.5t-58.5 10.5t-46 29.5t-30 44.5t-10.5 55.5h75z" />
    <glyph glyph-name="dotaccent" unicode="&#x2d9;" horiz-adv-x="180" 
d="M30 630q0 26 18.5 43t41.5 17t41.5 -17t18.5 -43t-18.5 -43t-41.5 -17t-41.5 17t-18.5 43z" />
    <glyph glyph-name="tilde" unicode="&#x2dc;" horiz-adv-x="395" 
d="M30 565v2q0 69 27.5 101t72.5 32q24 0 42 -9.5t32.5 -20.5t27.5 -20.5t28 -9.5q19 0 29.5 13t10.5 47h65v-2q0 -69 -27.5 -101t-72.5 -32q-24 0 -42 9.5t-32.5 20.5t-27.5 20.5t-28 9.5q-19 0 -29.5 -13t-10.5 -47h-65z" />
    <glyph glyph-name="acutecomb" unicode="&#x301;" horiz-adv-x="0" 
d="M-350 870h105l-105 -140h-75z" />
    <glyph glyph-name="uni0302" unicode="&#x302;" horiz-adv-x="0" 
d="M-430 870h90l115 -140h-90l-69 84h-2l-69 -84h-90z" />
    <glyph glyph-name="uni0306" unicode="&#x306;" horiz-adv-x="0" 
d="M-450 860q0 -30 20 -50t50 -20t50 20t20 50h75q0 -30 -10.5 -55.5t-30 -44.5t-46 -29.5t-58.5 -10.5t-58.5 10.5t-46 29.5t-30 44.5t-10.5 55.5h75z" />
    <glyph glyph-name="uni0307" unicode="&#x307;" horiz-adv-x="0" 
d="M-440 795q0 26 18.5 43t41.5 17t41.5 -17t18.5 -43t-18.5 -43t-41.5 -17t-41.5 17t-18.5 43z" />
    <glyph glyph-name="uni0308" unicode="&#x308;" horiz-adv-x="0" 
d="M-545 795q0 26 18.5 43t41.5 17t41.5 -17t18.5 -43t-18.5 -43t-41.5 -17t-41.5 17t-18.5 43zM-345 795q0 26 18.5 43t41.5 17t41.5 -17t18.5 -43t-18.5 -43t-41.5 -17t-41.5 17t-18.5 43z" />
    <glyph glyph-name="uni0326" unicode="&#x326;" horiz-adv-x="200" 
d="M75 -80h95l-65 -140h-75z" />
    <glyph glyph-name="uni0401" unicode="&#x401;" horiz-adv-x="650" 
d="M595 700v-105h-385v-180h305v-105h-305v-205h395v-105h-505v700h495zM190 850q0 26 18.5 43t41.5 17t41.5 -17t18.5 -43t-18.5 -43t-41.5 -17t-41.5 17t-18.5 43zM390 850q0 26 18.5 43t41.5 17t41.5 -17t18.5 -43t-18.5 -43t-41.5 -17t-41.5 17t-18.5 43z" />
    <glyph glyph-name="uni0404" unicode="&#x404;" horiz-adv-x="745" 
d="M515 405v-100h-345q8 -45 29 -84t53.5 -68.5t76.5 -46t96 -16.5q55 0 96 17.5t68 37.5q33 24 56 55l70 -70q-31 -39 -74 -70q-36 -26 -90 -48t-126 -22q-79 0 -146.5 28t-117 77t-78 114.5t-28.5 140.5t28.5 140.5t78 114.5t117 77t146.5 28q72 0 125 -21t89 -46
q42 -30 71 -68l-70 -70q-22 29 -53 53q-27 20 -67 36t-95 16q-51 0 -93.5 -16.5t-75.5 -44.5t-55 -65.5t-31 -78.5h345z" />
    <glyph glyph-name="uni0406" unicode="&#x406;" horiz-adv-x="310" 
d="M100 700h110v-700h-110v700z" />
    <glyph glyph-name="uni0407" unicode="&#x407;" horiz-adv-x="310" 
d="M100 700h110v-700h-110v700zM-5 850q0 26 18.5 43t41.5 17t41.5 -17t18.5 -43t-18.5 -43t-41.5 -17t-41.5 17t-18.5 43zM195 850q0 26 18.5 43t41.5 17t41.5 -17t18.5 -43t-18.5 -43t-41.5 -17t-41.5 17t-18.5 43z" />
    <glyph glyph-name="uni040E" unicode="&#x40e;" horiz-adv-x="625" 
d="M145 -10q-17 0 -30.5 2.5t-23.5 4.5q-12 4 -21 8v100q8 -3 17 -5q8 -2 19 -3.5t24 -1.5q26 0 46 6.5t35 18t27 28t22 37.5l15 30l-265 485h115l204 -373h2l174 373h115l-260 -545q-19 -39 -40 -70t-47 -52t-57.5 -32t-70.5 -11zM245 930q0 -30 20 -50t50 -20t50 20t20 50
h75q0 -30 -10.5 -55.5t-30 -44.5t-46 -29.5t-58.5 -10.5t-58.5 10.5t-46 29.5t-30 44.5t-10.5 55.5h75z" />
    <glyph glyph-name="uni0410" unicode="&#x410;" horiz-adv-x="700" 
d="M10 0l280 700h120l280 -700h-115l-70 180h-310l-70 -180h-115zM465 280l-114 288h-2l-114 -288h230z" />
    <glyph glyph-name="uni0411" unicode="&#x411;" horiz-adv-x="665" 
d="M100 0v700h460v-105h-350v-165h180q49 0 90 -16.5t71 -46t47 -68.5t17 -84t-17 -84t-47 -68.5t-71 -46t-90 -16.5h-290zM210 330v-230h180q24 0 45 9t36.5 24.5t24.5 36.5t9 45t-9 45t-24.5 36.5t-36.5 24.5t-45 9h-180z" />
    <glyph glyph-name="uni0412" unicode="&#x412;" horiz-adv-x="680" 
d="M100 0v700h280q47 0 85.5 -15t66.5 -40t43 -58.5t15 -71.5q0 -39 -13 -65.5t-28 -42.5q-19 -20 -42 -31v-2q33 -14 59 -38q23 -20 41 -52t18 -79q0 -41 -17 -78.5t-47.5 -65.5t-72.5 -44.5t-93 -16.5h-295zM395 95q53 0 86.5 33t33.5 82t-33.5 82t-86.5 33h-185v-230h185
zM380 415q45 0 72.5 26.5t27.5 68.5t-27.5 68.5t-72.5 26.5h-170v-190h170z" />
    <glyph glyph-name="uni0413" unicode="&#x413;" horiz-adv-x="570" 
d="M100 700h450v-105h-340v-595h-110v700z" />
    <glyph glyph-name="uni0414" unicode="&#x414;" horiz-adv-x="725" 
d="M0 -150v255h40q34 34 60 88q23 46 41.5 119t18.5 178v210h455v-595h85v-255h-110v150h-480v-150h-110zM505 105v490h-235v-105q0 -106 -17 -178.5t-38 -118.5q-24 -54 -55 -87v-1h345z" />
    <glyph glyph-name="uni0415" unicode="&#x415;" horiz-adv-x="650" 
d="M595 700v-105h-385v-180h305v-105h-305v-205h395v-105h-505v700h495z" />
    <glyph glyph-name="uni0416" unicode="&#x416;" horiz-adv-x="980" 
d="M290 410l-270 290h140l275 -295v295h110v-295l275 295h140l-270 -290l290 -410h-135l-230 330l-70 -75v-255h-110v255l-70 75l-230 -330h-135z" />
    <glyph glyph-name="uni0417" unicode="&#x417;" horiz-adv-x="595" 
d="M280 -10q-66 0 -114.5 17.5t-81.5 37.5q-38 24 -64 55l75 75q19 -24 46 -42q23 -17 57.5 -30t81.5 -13q38 0 66.5 9.5t48.5 25.5t30 37t10 43q0 21 -10 40.5t-30 35t-48.5 25t-66.5 9.5h-90v105h90q32 0 56 8t40.5 21t25 30.5t8.5 36.5q0 37 -33 65.5t-97 28.5
q-39 0 -70 -11.5t-52 -25.5q-25 -17 -43 -38l-75 75q26 28 62 50q31 19 75.5 34.5t102.5 15.5t103 -15t75.5 -40t46 -58.5t15.5 -71.5q0 -43 -17 -72t-37 -48q-24 -21 -54 -34v-2q37 -13 67 -36q25 -20 45.5 -52t20.5 -81q0 -41 -18 -79t-52.5 -67t-83.5 -46.5t-111 -17.5z
" />
    <glyph glyph-name="uni0418" unicode="&#x418;" horiz-adv-x="795" 
d="M210 700v-515l385 515h100v-700h-110v515l-385 -515h-100v700h110z" />
    <glyph glyph-name="uni0419" unicode="&#x419;" horiz-adv-x="795" 
d="M210 700v-515l385 515h100v-700h-110v515l-385 -515h-100v700h110zM325 930q0 -30 20 -50t50 -20t50 20t20 50h75q0 -30 -10.5 -55.5t-30 -44.5t-46 -29.5t-58.5 -10.5t-58.5 10.5t-46 29.5t-30 44.5t-10.5 55.5h75z" />
    <glyph glyph-name="uni041A" unicode="&#x41a;" horiz-adv-x="685" 
d="M210 700v-340l315 340h140l-270 -290l290 -410h-135l-230 330l-110 -120v-210h-110v700h110z" />
    <glyph glyph-name="uni041B" unicode="&#x41b;" horiz-adv-x="750" 
d="M-5 105q7 -3 16 -5q8 -2 18 -3.5t21 -1.5q24 0 47 14.5t40 57.5t27.5 120t10.5 203v210h475v-700h-110v595h-255v-105q0 -154 -16 -251t-44.5 -152.5t-68 -76t-86.5 -20.5q-17 0 -30.5 2.5t-23.5 4.5q-12 4 -21 8v100z" />
    <glyph glyph-name="uni041C" unicode="&#x41c;" horiz-adv-x="930" 
d="M200 700l265 -340l265 340h100v-700h-110v515l-255 -325l-255 325v-515h-110v700h100z" />
    <glyph glyph-name="uni041D" unicode="&#x41d;" horiz-adv-x="765" 
d="M210 700v-295h345v295h110v-700h-110v305h-345v-305h-110v700h110z" />
    <glyph glyph-name="uni041E" unicode="&#x41e;" horiz-adv-x="850" 
d="M425 -10q-79 0 -146.5 28t-117 77t-78 114.5t-28.5 140.5t28.5 140.5t78 114.5t117 77t146.5 28t146.5 -28t117 -77t78 -114.5t28.5 -140.5t-28.5 -140.5t-78 -114.5t-117 -77t-146.5 -28zM425 90q54 0 101.5 20t83 55.5t55.5 83t20 101.5t-20 101.5t-55.5 83t-83 55.5
t-101.5 20t-101.5 -20t-83 -55.5t-55.5 -83t-20 -101.5t20 -101.5t55.5 -83t83 -55.5t101.5 -20z" />
    <glyph glyph-name="uni041F" unicode="&#x41f;" horiz-adv-x="765" 
d="M665 700v-700h-110v595h-345v-595h-110v700h565z" />
    <glyph glyph-name="uni0420" unicode="&#x420;" horiz-adv-x="660" 
d="M100 0v700h280q51 0 94 -17.5t74.5 -48t49 -71.5t17.5 -88t-17.5 -88t-49 -71.5t-74.5 -48t-94 -17.5h-170v-250h-110zM210 600v-250h170q26 0 49 9.5t40 26.5t26.5 40t9.5 49t-9.5 49t-26.5 40t-40 26.5t-49 9.5h-170z" />
    <glyph glyph-name="uni0421" unicode="&#x421;" horiz-adv-x="745" 
d="M715 130q-31 -39 -74 -70q-36 -26 -90 -48t-126 -22q-79 0 -146.5 28t-117 77t-78 114.5t-28.5 140.5t28.5 140.5t78 114.5t117 77t146.5 28q72 0 125 -21t89 -46q42 -30 71 -68l-70 -70q-22 29 -53 53q-27 20 -67 36t-95 16q-54 0 -101.5 -20t-83 -55.5t-55.5 -83
t-20 -101.5t20 -101.5t55.5 -83t83 -55.5t101.5 -20q55 0 96 17.5t68 37.5q33 24 56 55z" />
    <glyph glyph-name="uni0422" unicode="&#x422;" horiz-adv-x="570" 
d="M20 700h530v-105h-210v-595h-110v595h-210v105z" />
    <glyph glyph-name="uni0423" unicode="&#x423;" horiz-adv-x="625" 
d="M145 -10q-17 0 -30.5 2.5t-23.5 4.5q-12 4 -21 8v100q8 -3 17 -5q8 -2 19 -3.5t24 -1.5q26 0 46 6.5t35 18t27 28t22 37.5l15 30l-265 485h115l204 -373h2l174 373h115l-260 -545q-19 -39 -40 -70t-47 -52t-57.5 -32t-70.5 -11z" />
    <glyph glyph-name="uni0424" unicode="&#x424;" horiz-adv-x="860" 
d="M45 360q0 58 22 108.5t64 89t103.5 62.5t140.5 30v70h110v-70q79 -6 140.5 -30t103.5 -62.5t64 -89t22 -108.5t-22 -108.5t-64 -89t-103.5 -62.5t-140.5 -30v-90h-110v90q-79 6 -140.5 30t-103.5 62.5t-64 89t-22 108.5zM705 360q0 38 -14.5 70.5t-43 58t-69 41.5
t-93.5 20v-380q53 4 93.5 20t69 41.5t43 58.5t14.5 70zM155 360q0 -37 14.5 -70t43 -58.5t69.5 -41.5t93 -20v380q-52 -4 -93 -20t-69.5 -41.5t-43 -58t-14.5 -70.5z" />
    <glyph glyph-name="uni0425" unicode="&#x425;" horiz-adv-x="660" 
d="M260 365l-230 335h130l169 -253h2l169 253h130l-230 -335l250 -365h-130l-189 283h-2l-189 -283h-130z" />
    <glyph glyph-name="uni0426" unicode="&#x426;" horiz-adv-x="765" 
d="M210 700v-595h335v595h110v-595h85v-255h-110v150h-530v700h110z" />
    <glyph glyph-name="uni0427" unicode="&#x427;" horiz-adv-x="725" 
d="M200 700v-210q0 -72 41.5 -113.5t113.5 -41.5q36 0 65.5 9.5t50.5 20.5q24 13 44 30v305h110v-700h-110v280q-23 -14 -51 -25q-23 -9 -56 -17t-73 -8q-113 0 -179 67.5t-66 192.5v210h110z" />
    <glyph glyph-name="uni0428" unicode="&#x428;" horiz-adv-x="1040" 
d="M210 700v-595h255v595h110v-595h255v595h110v-700h-840v700h110z" />
    <glyph glyph-name="uni0429" unicode="&#x429;" horiz-adv-x="1050" 
d="M210 700v-595h255v595h110v-595h255v595h110v-595h85v-255h-110v150h-815v700h110z" />
    <glyph glyph-name="uni042A" unicode="&#x42a;" horiz-adv-x="720" 
d="M280 700v-250h160q51 0 94 -17.5t74.5 -48t49 -71.5t17.5 -88t-17.5 -88t-49 -71.5t-74.5 -48t-94 -17.5h-270v595h-170v105h280zM280 350v-250h160q26 0 49 9.5t40 26.5t26.5 40t9.5 49t-9.5 49t-26.5 40t-40 26.5t-49 9.5h-160z" />
    <glyph glyph-name="uni042B" unicode="&#x42b;" horiz-adv-x="915" 
d="M100 0v700h110v-250h160q51 0 94 -17.5t74.5 -48t49 -71.5t17.5 -88t-17.5 -88t-49 -71.5t-74.5 -48t-94 -17.5h-270zM815 700v-700h-110v700h110zM210 100h160q26 0 49 9.5t40 26.5t26.5 40t9.5 49t-9.5 49t-26.5 40t-40 26.5t-49 9.5h-160v-250z" />
    <glyph glyph-name="uni042C" unicode="&#x42c;" horiz-adv-x="660" 
d="M100 0v700h110v-250h170q51 0 94 -17.5t74.5 -48t49 -71.5t17.5 -88t-17.5 -88t-49 -71.5t-74.5 -48t-94 -17.5h-280zM210 350v-250h170q26 0 49 9.5t40 26.5t26.5 40t9.5 49t-9.5 49t-26.5 40t-40 26.5t-49 9.5h-170z" />
    <glyph glyph-name="uni042D" unicode="&#x42d;" horiz-adv-x="740" 
d="M95 200q23 -31 56 -55q28 -20 69 -37.5t95 -17.5q53 0 96.5 16.5t76 46t54 68.5t28.5 84h-345v100h345q-9 41 -31 78.5t-55 65.5t-75.5 44.5t-93.5 16.5q-54 0 -94.5 -16t-67.5 -36q-31 -24 -53 -53l-70 70q29 38 71 68q36 25 89 46t125 21q79 0 146.5 -28t117 -77
t78 -114.5t28.5 -140.5t-28.5 -140.5t-78 -114.5t-117 -77t-146.5 -28q-72 0 -125.5 22t-90.5 48q-43 31 -74 70z" />
    <glyph glyph-name="uni042E" unicode="&#x42e;" horiz-adv-x="1075" 
d="M210 700v-295h115q6 60 34.5 115t74.5 97.5t106.5 67.5t129.5 25q73 0 137 -27.5t111 -75.5t74.5 -114t27.5 -143t-27.5 -143t-74.5 -114t-111 -75.5t-137 -27.5q-69 0 -129.5 25.5t-106.5 68.5t-74.5 100t-34.5 121h-115v-305h-110v700h110zM430 350q0 -56 19 -104
t52 -82.5t76.5 -54t92.5 -19.5t92.5 19.5t76.5 54t52 82.5t19 104t-19 104t-52 82.5t-76.5 54t-92.5 19.5t-92.5 -19.5t-76.5 -54t-52 -82.5t-19 -104z" />
    <glyph glyph-name="uni042F" unicode="&#x42f;" horiz-adv-x="685" 
d="M199 280q-38 15 -67 42q-25 23 -46 61.5t-21 96.5q0 47 17 87t47.5 69.5t72.5 46.5t93 17h290v-700h-110v260h-165l-145 -260h-125zM175 480q0 -53 33.5 -86.5t86.5 -33.5h180v240h-180q-53 0 -86.5 -33.5t-33.5 -86.5z" />
    <glyph glyph-name="uni0430" unicode="&#x430;" horiz-adv-x="520" 
d="M195 -10q-36 0 -65.5 11.5t-50.5 30.5t-32.5 44.5t-11.5 53.5q0 60 38 99.5t102 50.5l175 30v2q0 36 -27.5 62t-72.5 26q-28 0 -51 -10t-40 -22q-19 -15 -34 -33l-65 65q20 25 48 45q24 17 59.5 31t82.5 14q45 0 82 -14t63 -39t40.5 -59t14.5 -73v-305h-100v68h-1
q-16 -22 -38 -39q-20 -14 -48.5 -26.5t-67.5 -12.5zM210 205q-38 -7 -56.5 -24.5t-18.5 -40.5q0 -26 21 -45.5t59 -19.5q28 0 52.5 10.5t43 29.5t29 44.5t10.5 55.5v15z" />
    <glyph glyph-name="uni0431" unicode="&#x431;" horiz-adv-x="580" 
d="M290 680q40 8 72 17.5t55 17.5q27 10 48 20l50 -85q-20 -10 -48 -20q-24 -9 -59 -19.5t-83 -20.5q-71 -15 -114.5 -59.5t-55.5 -122.5h2q17 20 40 36q20 14 48.5 25t64.5 11q45 0 86.5 -19.5t73.5 -52.5t51 -77.5t19 -95.5t-19 -95.5t-52 -77.5t-76.5 -52.5t-92.5 -19.5
q-52 0 -98 20.5t-79.5 60t-53 98.5t-19.5 136q0 90 19 156.5t52 112t76.5 71.5t92.5 35zM160 235q0 -32 11.5 -59.5t30.5 -47.5t44.5 -31.5t53.5 -11.5t53.5 11.5t44.5 31.5t30.5 47.5t11.5 59.5t-11.5 59.5t-30.5 47.5t-44.5 31.5t-53.5 11.5t-53.5 -11.5t-44.5 -31.5
t-30.5 -47.5t-11.5 -59.5z" />
    <glyph glyph-name="uni0432" unicode="&#x432;" horiz-adv-x="515" 
d="M70 0v480h225q38 0 67.5 -10.5t50 -28.5t31.5 -41.5t11 -49.5t-9 -44t-20 -29q-13 -13 -29 -21v-2q22 -8 39 -24q15 -13 27 -34.5t12 -55.5q0 -28 -12 -53.5t-34 -44.5t-53.5 -30.5t-70.5 -11.5h-235zM300 90q34 0 52 17t18 43t-18 43t-52 17h-130v-120h130zM290 290
q30 0 45 13.5t15 36.5t-15 36.5t-45 13.5h-120v-100h120z" />
    <glyph glyph-name="uni0433" unicode="&#x433;" horiz-adv-x="430" 
d="M70 480h340v-95h-240v-385h-100v480z" />
    <glyph glyph-name="uni0434" unicode="&#x434;" horiz-adv-x="555" 
d="M35 95q22 24 40 59q15 30 27.5 76t12.5 110v140h350v-385h70v-215h-100v120h-335v-120h-100v215h35zM140 95h225v290h-150v-45q0 -64 -11.5 -110t-25.5 -76q-17 -35 -38 -58v-1z" />
    <glyph glyph-name="uni0435" unicode="&#x435;" horiz-adv-x="560" 
d="M495 80q-20 -25 -50 -45q-26 -17 -64 -31t-91 -14q-52 0 -98 19.5t-79.5 53t-53 79.5t-19.5 98q0 53 19.5 98.5t52.5 79t77.5 53t95.5 19.5t94 -17.5t74.5 -49t49 -74.5t17.5 -94q0 -11 -0.5 -20t-1.5 -16q-2 -8 -3 -14h-370q4 -24 16.5 -46t32 -38.5t45.5 -26t56 -9.5
q32 0 58 10t44 23q21 14 38 32zM415 290q-11 49 -44 79.5t-86 30.5q-57 0 -91 -30.5t-49 -79.5h270z" />
    <glyph glyph-name="uni0436" unicode="&#x436;" horiz-adv-x="740" 
d="M200 285l-185 195h125l180 -195v195h100v-195l180 195h125l-185 -195l200 -285h-115l-150 215l-55 -60v-155h-100v155l-55 60l-150 -215h-115z" />
    <glyph glyph-name="uni0437" unicode="&#x437;" horiz-adv-x="440" 
d="M210 -10q-49 0 -85.5 13t-60.5 30q-29 18 -49 42l65 65q15 -17 35 -30q17 -11 41 -20.5t54 -9.5q42 0 63.5 19.5t21.5 45.5q0 23 -21.5 41.5t-63.5 18.5h-65v90h60q38 0 56.5 15.5t18.5 34.5q0 23 -18.5 39t-56.5 16q-26 0 -47.5 -6t-36.5 -14q-17 -10 -31 -21l-65 65
q19 18 45 33q23 13 56.5 23t78.5 10q43 0 76.5 -11t56.5 -30t35 -43.5t12 -50.5q0 -29 -12 -49t-27 -33q-17 -14 -39 -22v-2q26 -8 47 -24q17 -13 31.5 -34.5t14.5 -55.5q0 -28 -13 -54t-37 -46.5t-59.5 -32.5t-80.5 -12z" />
    <glyph glyph-name="uni0438" unicode="&#x438;" horiz-adv-x="580" 
d="M170 480v-318h2l248 318h90v-480h-100v318h-2l-248 -318h-90v480h100z" />
    <glyph glyph-name="uni0439" unicode="&#x439;" horiz-adv-x="580" 
d="M170 480v-318h2l248 318h90v-480h-100v318h-2l-248 -318h-90v480h100zM220 700q0 -30 20 -50t50 -20t50 20t20 50h75q0 -30 -10.5 -55.5t-30 -44.5t-46 -29.5t-58.5 -10.5t-58.5 10.5t-46 29.5t-30 44.5t-10.5 55.5h75z" />
    <glyph glyph-name="uni043A" unicode="&#x43a;" horiz-adv-x="515" 
d="M170 480v-220l205 220h125l-185 -195l200 -285h-115l-150 215l-80 -85v-130h-100v480h100z" />
    <glyph glyph-name="uni043B" unicode="&#x43b;" horiz-adv-x="560" 
d="M-5 95l12 -2q11 -3 23 -3q21 0 37.5 9t28 35.5t18 75.5t6.5 130v140h370v-480h-100v385h-170v-45q0 -105 -12.5 -173t-34.5 -107t-52 -54.5t-66 -15.5q-25 0 -43 5q-9 2 -17 5v95z" />
    <glyph glyph-name="uni043C" unicode="&#x43c;" horiz-adv-x="650" 
d="M155 480l170 -210l170 210h85v-480h-100v320l-155 -190l-155 190v-320h-100v480h85z" />
    <glyph glyph-name="uni043D" unicode="&#x43d;" horiz-adv-x="575" 
d="M70 480h100v-190h235v190h100v-480h-100v200h-235v-200h-100v480z" />
    <glyph glyph-name="uni043E" unicode="&#x43e;" horiz-adv-x="580" 
d="M290 -10q-52 0 -98 19.5t-79.5 53t-53 79.5t-19.5 98q0 53 19.5 98.5t53 79t79.5 53t98 19.5q53 0 98.5 -19.5t79 -53t53 -79t19.5 -98.5q0 -52 -19.5 -98t-53 -79.5t-79 -53t-98.5 -19.5zM290 85q32 0 59.5 11.5t47.5 32t31.5 49t11.5 62.5t-11.5 62.5t-31.5 49
t-47.5 32t-59.5 11.5t-59.5 -11.5t-47.5 -32t-31.5 -49t-11.5 -62.5t11.5 -62.5t31.5 -49t47.5 -32t59.5 -11.5z" />
    <glyph glyph-name="uni043F" unicode="&#x43f;" horiz-adv-x="575" 
d="M505 480v-480h-100v385h-235v-385h-100v480h435z" />
    <glyph glyph-name="uni0440" unicode="&#x440;" horiz-adv-x="600" 
d="M70 480h100v-68h1q16 22 40 39q20 15 51 27t73 12q45 0 86 -18.5t71.5 -52t49 -79.5t18.5 -100t-18.5 -100t-49 -79.5t-71.5 -52t-86 -18.5q-42 0 -73 12.5t-51 26.5q-24 17 -40 39h-1v-278h-100v690zM170 240q0 -34 11.5 -62.5t31 -49t46 -32t56.5 -11.5t56.5 11.5
t46 32t31 49t11.5 62.5t-11.5 62.5t-31 49t-46 32t-56.5 11.5t-56.5 -11.5t-46 -32t-31 -49t-11.5 -62.5z" />
    <glyph glyph-name="uni0441" unicode="&#x441;" horiz-adv-x="520" 
d="M495 90q-22 -28 -52 -50q-26 -19 -64 -34.5t-89 -15.5q-52 0 -98 19.5t-79.5 53t-53 79.5t-19.5 98q0 53 19.5 98.5t53 79t79.5 53t98 19.5q51 0 88.5 -15t62.5 -32q29 -21 49 -48l-70 -65q-14 18 -33 33q-17 12 -41 22t-56 10t-59.5 -11.5t-47.5 -32t-31.5 -49
t-11.5 -62.5t11.5 -62.5t31.5 -49t47.5 -32t59.5 -11.5t57 11t42 24q21 15 36 35z" />
    <glyph glyph-name="uni0442" unicode="&#x442;" horiz-adv-x="470" 
d="M20 480h430v-95h-165v-385h-100v385h-165v95z" />
    <glyph glyph-name="uni0443" unicode="&#x443;" horiz-adv-x="510" 
d="M10 480h110l134 -353h2l134 353h110l-210 -535q-30 -76 -72.5 -115.5t-102.5 -39.5q-17 0 -30.5 2.5t-23.5 4.5q-12 4 -21 8v95q8 -4 17 -8q8 -2 19 -4.5t24 -2.5q30 0 51.5 17.5t33.5 47.5l20 50z" />
    <glyph glyph-name="uni0444" unicode="&#x444;" horiz-adv-x="720" 
d="M40 240q0 51 19 95t54 77.5t85 55t112 27.5v205h100v-205q62 -6 112 -27.5t85 -55t54 -77.5t19 -95t-19 -95t-54 -77.5t-85 -55t-112 -27.5v-195h-100v195q-62 6 -112 27.5t-85 55t-54 77.5t-19 95zM580 240q0 32 -12.5 60t-35 50t-53.5 35t-69 15v-320q38 2 69 15
t53.5 35t35 50t12.5 60zM140 240q0 -32 12.5 -60t35 -50t54 -35t68.5 -15v320q-37 -2 -68.5 -15t-54 -35t-35 -50t-12.5 -60z" />
    <glyph glyph-name="uni0445" unicode="&#x445;" horiz-adv-x="500" 
d="M10 0l180 250l-165 230h115l109 -153h2l109 153h115l-165 -230l180 -250h-115l-124 173h-2l-124 -173h-115z" />
    <glyph glyph-name="uni0446" unicode="&#x446;" horiz-adv-x="585" 
d="M170 480v-385h225v385h100v-385h70v-215h-100v120h-395v480h100z" />
    <glyph glyph-name="uni0447" unicode="&#x447;" horiz-adv-x="540" 
d="M240 140q-39 0 -72 13.5t-57 39.5t-37.5 63t-13.5 84v140h100v-140q0 -49 27.5 -77t72.5 -28q26 0 46.5 5.5t34.5 12.5q17 7 29 17v210h100v-480h-100v175q-15 -10 -35 -17q-17 -7 -41 -12.5t-54 -5.5z" />
    <glyph glyph-name="uni0448" unicode="&#x448;" horiz-adv-x="790" 
d="M170 480v-385h175v385h100v-385h175v385h100v-480h-650v480h100z" />
    <glyph glyph-name="uni0449" unicode="&#x449;" horiz-adv-x="810" 
d="M170 480v-385h175v385h100v-385h175v385h100v-385h70v-215h-100v120h-620v480h100z" />
    <glyph glyph-name="uni044A" unicode="&#x44a;" horiz-adv-x="540" 
d="M220 480v-150h100q43 0 77.5 -12.5t58.5 -34.5t36.5 -52t12.5 -66t-12.5 -66t-36.5 -52t-58.5 -34.5t-77.5 -12.5h-200v385h-120v95h220zM220 240v-150h100q42 0 63.5 20.5t21.5 54.5t-21.5 54.5t-63.5 20.5h-100z" />
    <glyph glyph-name="uni044B" unicode="&#x44b;" horiz-adv-x="695" 
d="M70 0v480h100v-150h100q43 0 77.5 -12.5t58.5 -34.5t36.5 -52t12.5 -66t-12.5 -66t-36.5 -52t-58.5 -34.5t-77.5 -12.5h-200zM625 480v-480h-100v480h100zM170 90h100q42 0 63.5 20.5t21.5 54.5t-21.5 54.5t-63.5 20.5h-100v-150z" />
    <glyph glyph-name="uni044C" unicode="&#x44c;" horiz-adv-x="500" 
d="M70 0v480h100v-150h110q43 0 77.5 -12.5t58.5 -34.5t36.5 -52t12.5 -66t-12.5 -66t-36.5 -52t-58.5 -34.5t-77.5 -12.5h-210zM170 240v-150h110q42 0 63.5 20.5t21.5 54.5t-21.5 54.5t-63.5 20.5h-110z" />
    <glyph glyph-name="uni044D" unicode="&#x44d;" horiz-adv-x="510" 
d="M85 155q15 -20 36 -35q17 -13 42 -24t57 -11q48 0 76 18.5t43 41.5q19 26 26 60h-220v85h215q-9 29 -27 53q-15 20 -42 36t-71 16q-32 0 -56 -10t-41 -22q-19 -15 -33 -33l-70 65q20 27 49 48q26 17 63 32t88 15q53 0 98.5 -19.5t79 -53t53 -79t19.5 -98.5
q0 -52 -19.5 -98t-53 -79.5t-79 -53t-98.5 -19.5q-51 0 -89 15.5t-64 34.5q-30 22 -52 50z" />
    <glyph glyph-name="uni044E" unicode="&#x44e;" horiz-adv-x="790" 
d="M170 480v-190h95q8 43 27 79.5t49.5 63.5t71.5 42t92 15q53 0 97.5 -18.5t77.5 -52t51.5 -79.5t18.5 -100t-18.5 -100t-51.5 -79.5t-77.5 -52t-97.5 -18.5q-51 0 -92.5 16t-72.5 44t-50 66.5t-25 83.5h-95v-200h-100v480h100zM360 240q0 -72 40.5 -113.5t104.5 -41.5
t104.5 41.5t40.5 113.5t-40.5 113.5t-104.5 41.5t-104.5 -41.5t-40.5 -113.5z" />
    <glyph glyph-name="uni044F" unicode="&#x44f;" horiz-adv-x="520" 
d="M145 175q-27 11 -47 31q-18 17 -33 44.5t-15 69.5q0 34 12.5 63t36.5 50.5t58.5 34t77.5 12.5h215v-480h-100v160h-105l-95 -160h-115zM150 320q0 -30 21.5 -50t63.5 -20h115v140h-115q-42 0 -63.5 -20t-21.5 -50z" />
    <glyph glyph-name="uni0451" unicode="&#x451;" horiz-adv-x="560" 
d="M495 80q-20 -25 -50 -45q-26 -17 -64 -31t-91 -14q-52 0 -98 19.5t-79.5 53t-53 79.5t-19.5 98q0 53 19.5 98.5t52.5 79t77.5 53t95.5 19.5t94 -17.5t74.5 -49t49 -74.5t17.5 -94q0 -11 -0.5 -20t-1.5 -16q-2 -8 -3 -14h-370q4 -24 16.5 -46t32 -38.5t45.5 -26t56 -9.5
q32 0 58 10t44 23q21 14 38 32zM415 290q-11 49 -44 79.5t-86 30.5q-57 0 -91 -30.5t-49 -79.5h270zM125 630q0 26 18.5 43t41.5 17t41.5 -17t18.5 -43t-18.5 -43t-41.5 -17t-41.5 17t-18.5 43zM325 630q0 26 18.5 43t41.5 17t41.5 -17t18.5 -43t-18.5 -43t-41.5 -17
t-41.5 17t-18.5 43z" />
    <glyph glyph-name="uni0454" unicode="&#x454;" horiz-adv-x="520" 
d="M365 290v-85h-220q7 -34 26 -60q15 -23 43.5 -41.5t75.5 -18.5q32 0 57 11t42 24q21 15 36 35l70 -65q-22 -28 -52 -50q-26 -19 -64 -34.5t-89 -15.5q-52 0 -98 19.5t-79.5 53t-53 79.5t-19.5 98q0 53 19.5 98.5t53 79t79.5 53t98 19.5q51 0 88.5 -15t62.5 -32
q29 -21 49 -48l-70 -65q-14 18 -33 33q-17 12 -41 22t-56 10q-43 0 -70 -16t-43 -36q-18 -24 -27 -53h215z" />
    <glyph glyph-name="uni0456" unicode="&#x456;" horiz-adv-x="250" 
d="M65 630q0 26 18.5 43t41.5 17t41.5 -17t18.5 -43t-18.5 -43t-41.5 -17t-41.5 17t-18.5 43zM75 480h100v-480h-100v480z" />
    <glyph glyph-name="uni0457" unicode="&#x457;" horiz-adv-x="250" 
d="M75 480h100v-480h-100v480zM-35 630q0 26 18.5 43t41.5 17t41.5 -17t18.5 -43t-18.5 -43t-41.5 -17t-41.5 17t-18.5 43zM165 630q0 26 18.5 43t41.5 17t41.5 -17t18.5 -43t-18.5 -43t-41.5 -17t-41.5 17t-18.5 43z" />
    <glyph glyph-name="uni045E" unicode="&#x45e;" horiz-adv-x="510" 
d="M10 480h110l134 -353h2l134 353h110l-210 -535q-30 -76 -72.5 -115.5t-102.5 -39.5q-17 0 -30.5 2.5t-23.5 4.5q-12 4 -21 8v95q8 -4 17 -8q8 -2 19 -4.5t24 -2.5q30 0 51.5 17.5t33.5 47.5l20 50zM185 700q0 -30 20 -50t50 -20t50 20t20 50h75q0 -30 -10.5 -55.5
t-30 -44.5t-46 -29.5t-58.5 -10.5t-58.5 10.5t-46 29.5t-30 44.5t-10.5 55.5h75z" />
    <glyph glyph-name="uni0490" unicode="&#x490;" horiz-adv-x="570" 
d="M100 700h345v140h105v-245h-340v-595h-110v700z" />
    <glyph glyph-name="uni0491" unicode="&#x491;" horiz-adv-x="430" 
d="M70 480h245v120h95v-215h-240v-385h-100v480z" />
    <glyph glyph-name="uni04C1" unicode="&#x4c1;" horiz-adv-x="980" 
d="M290 410l-270 290h140l275 -295v295h110v-295l275 295h140l-270 -290l290 -410h-135l-230 330l-70 -75v-255h-110v255l-70 75l-230 -330h-135zM420 930q0 -30 20 -50t50 -20t50 20t20 50h75q0 -30 -10.5 -55.5t-30 -44.5t-46 -29.5t-58.5 -10.5t-58.5 10.5t-46 29.5
t-30 44.5t-10.5 55.5h75z" />
    <glyph glyph-name="uni04C2" unicode="&#x4c2;" horiz-adv-x="740" 
d="M200 285l-185 195h125l180 -195v195h100v-195l180 195h125l-185 -195l200 -285h-115l-150 215l-55 -60v-155h-100v155l-55 60l-150 -215h-115zM300 700q0 -30 20 -50t50 -20t50 20t20 50h75q0 -30 -10.5 -55.5t-30 -44.5t-46 -29.5t-58.5 -10.5t-58.5 10.5t-46 29.5
t-30 44.5t-10.5 55.5h75z" />
    <glyph glyph-name="Germandbls" unicode="&#x1e9e;" horiz-adv-x="725" 
d="M90 0v476q0 48 17 89t47.5 71t72.5 47t93 17h305v-105l-145 -165v-5q43 -6 79 -23t61.5 -44.5t40 -63.5t14.5 -79q0 -45 -17 -84t-48.5 -68.5t-76 -46t-98.5 -16.5h-85v105h85q28 0 51 9t39.5 24t25.5 35t9 42q0 23 -9 43t-25.5 35t-39.5 23.5t-51 8.5h-85v100l150 170
h-180q-53 0 -86.5 -33.5t-33.5 -85.5v-476h-110z" />
    <glyph glyph-name="endash" unicode="&#x2013;" horiz-adv-x="490" 
d="M35 336h420v-86h-420v86z" />
    <glyph glyph-name="emdash" unicode="&#x2014;" horiz-adv-x="730" 
d="M35 336h660v-86h-660v86z" />
    <glyph glyph-name="quoteleft" unicode="&#x2018;" horiz-adv-x="230" 
d="M145 720l65 -35l-100 -215l-90 50z" />
    <glyph glyph-name="quoteright" unicode="&#x2019;" horiz-adv-x="230" 
d="M120 720l90 -50l-125 -200l-65 35z" />
    <glyph glyph-name="quotesinglbase" unicode="&#x201a;" horiz-adv-x="220" 
d="M90 120l90 -50l-125 -200l-65 35z" />
    <glyph glyph-name="quotedblleft" unicode="&#x201c;" horiz-adv-x="410" 
d="M145 720l65 -35l-100 -215l-90 50zM325 720l65 -35l-100 -215l-90 50z" />
    <glyph glyph-name="quotedblright" unicode="&#x201d;" horiz-adv-x="410" 
d="M120 720l90 -50l-125 -200l-65 35zM300 720l90 -50l-125 -200l-65 35z" />
    <glyph glyph-name="quotedblbase" unicode="&#x201e;" horiz-adv-x="400" 
d="M90 120l90 -50l-125 -200l-65 35zM270 120l90 -50l-125 -200l-65 35z" />
    <glyph glyph-name="dagger" unicode="&#x2020;" horiz-adv-x="430" 
d="M170 570v130h90v-130h120v-80h-120v-315h-90v315h-120v80h120z" />
    <glyph glyph-name="daggerdbl" unicode="&#x2021;" horiz-adv-x="430" 
d="M170 375v125h-120v80h120v120h90v-120h120v-80h-120v-125h120v-80h-120v-120h-90v120h-120v80h120z" />
    <glyph glyph-name="bullet" unicode="&#x2022;" horiz-adv-x="460" 
d="M120 240q0 23 9 43t24 35t35 23.5t42 8.5q23 0 43 -8.5t35 -23.5t23.5 -35t8.5 -43q0 -22 -8.5 -42t-23.5 -35t-35 -24t-43 -9q-22 0 -42 9t-35 24t-24 35t-9 42z" />
    <glyph glyph-name="ellipsis" unicode="&#x2026;" horiz-adv-x="710" 
d="M45 55q0 26 19.5 45.5t45.5 19.5t45.5 -19.5t19.5 -45.5t-19.5 -45.5t-45.5 -19.5t-45.5 19.5t-19.5 45.5zM290 55q0 26 19.5 45.5t45.5 19.5t45.5 -19.5t19.5 -45.5t-19.5 -45.5t-45.5 -19.5t-45.5 19.5t-19.5 45.5zM535 55q0 26 19.5 45.5t45.5 19.5t45.5 -19.5
t19.5 -45.5t-19.5 -45.5t-45.5 -19.5t-45.5 19.5t-19.5 45.5z" />
    <glyph glyph-name="perthousand" unicode="&#x2030;" horiz-adv-x="1160" 
d="M200 400q-34 0 -63 12.5t-50.5 33.5t-34 49t-12.5 60t12.5 60t34 49t50.5 33.5t63 12.5t63 -12.5t50.5 -33.5t34 -49t12.5 -60t-12.5 -60t-34 -49t-50.5 -33.5t-63 -12.5zM200 475q34 0 57 23t23 57t-23 57t-57 23t-57 -23t-23 -57t23 -57t57 -23zM590 -10
q-34 0 -63 12.5t-50.5 33.5t-34 49t-12.5 60t12.5 60t34 49t50.5 33.5t63 12.5t63 -12.5t50.5 -33.5t34 -49t12.5 -60t-12.5 -60t-34 -49t-50.5 -33.5t-63 -12.5zM960 -10q-34 0 -63 12.5t-50.5 33.5t-34 49t-12.5 60t12.5 60t34 49t50.5 33.5t63 12.5t63 -12.5t50.5 -33.5
t34 -49t12.5 -60t-12.5 -60t-34 -49t-50.5 -33.5t-63 -12.5zM590 65q34 0 57 23t23 57t-23 57t-57 23t-57 -23t-23 -57t23 -57t57 -23zM960 65q34 0 57 23t23 57t-23 57t-57 23t-57 -23t-23 -57t23 -57t57 -23zM570 700h90l-440 -700h-90z" />
    <glyph glyph-name="guilsinglleft" unicode="&#x2039;" horiz-adv-x="305" 
d="M40 240l120 170h105l-120 -170l120 -170h-105z" />
    <glyph glyph-name="guilsinglright" unicode="&#x203a;" horiz-adv-x="305" 
d="M160 240l-120 170h105l120 -170l-120 -170h-105z" />
    <glyph glyph-name="uni203D" unicode="&#x203d;" horiz-adv-x="535" 
d="M200 190q-1 6 -2 13q-3 12 -3 32l-15 350q-17 -9 -28 -22t-19 -25q-8 -14 -13 -28l-90 35q14 46 44 83q13 15 31 30t41.5 26.5t53 18.5t65.5 7q53 0 95.5 -15.5t72.5 -42t46 -60.5t16 -72q0 -47 -14.5 -79.5t-36 -57t-47 -43t-47 -39t-36 -45.5t-14.5 -61v-5h-100z
M285 380q45 26 72.5 57t27.5 73q0 35 -21 58.5t-56 33.5q-2 1 -4 1t-4 1l-5 1zM185 55q0 26 19.5 45.5t45.5 19.5t45.5 -19.5t19.5 -45.5t-19.5 -45.5t-45.5 -19.5t-45.5 19.5t-19.5 45.5z" />
    <glyph glyph-name="fraction" unicode="&#x2044;" horiz-adv-x="175" 
d="M260 700h90l-435 -700h-90z" />
    <glyph glyph-name="uni2070" unicode="&#x2070;" horiz-adv-x="350" 
d="M175 445q-30 0 -57 12.5t-48 36t-33 57t-12 74.5t12 74.5t33 57t48 36t57 12.5t57 -12.5t48 -36t33 -57t12 -74.5t-12 -74.5t-33 -57t-48 -36t-57 -12.5zM175 510q30 0 55 29t25 86t-25 86t-55 29t-55 -29t-25 -86t25 -86t55 -29z" />
    <glyph glyph-name="uni2074" unicode="&#x2074;" horiz-adv-x="305" 
d="M5 590l155 210h80v-210h40v-70h-40v-70h-70v70h-165v70zM170 590v120l-90 -120h90z" />
    <glyph glyph-name="uni2075" unicode="&#x2075;" horiz-adv-x="295" 
d="M55 545q9 -10 22 -17q11 -7 27 -12.5t36 -5.5q30 0 47.5 16t17.5 39t-17.5 39t-47.5 16q-15 0 -26 -3t-19 -7q-9 -4 -15 -10h-50l20 200h205v-64h-143q0 -4 -1 -14t-2.5 -20.5t-2.5 -20t-1 -14.5q5 4 12 7q6 2 15.5 4t22.5 2q24 0 46 -9.5t38.5 -25.5t26 -36.5t9.5 -43.5
q0 -24 -10 -46t-27.5 -38.5t-42.5 -26t-55 -9.5q-34 0 -58 8.5t-41 19.5q-18 12 -31 27z" />
    <glyph glyph-name="uni2076" unicode="&#x2076;" horiz-adv-x="310" 
d="M155 800h75l-80 -110q28 0 53.5 -7t44.5 -22t30.5 -37.5t11.5 -53.5q0 -26 -10 -49t-27.5 -40t-42.5 -26.5t-55 -9.5t-55 9.5t-42.5 26.5t-27.5 40t-10 49q0 17 5 32.5t10 26.5q7 14 15 26zM155 510q30 0 47.5 17t17.5 43t-17.5 43t-47.5 17t-47.5 -17t-17.5 -43
t17.5 -43t47.5 -17z" />
    <glyph glyph-name="uni2077" unicode="&#x2077;" horiz-adv-x="280" 
d="M190 730h-170v70h245v-70l-130 -280h-75z" />
    <glyph glyph-name="uni2078" unicode="&#x2078;" horiz-adv-x="300" 
d="M100 699q0 -18 12 -28.5t38 -10.5t38 10.5t12 28.5q0 41 -50 41t-50 -41zM85 555q0 -19 15.5 -32t49.5 -13t49.5 13t15.5 32t-15.5 32t-49.5 13t-49.5 -13t-15.5 -32zM15 548q0 26 9.5 42t20.5 27q13 11 30 18q-13 6 -22 17q-9 9 -16 23.5t-7 34.5q0 38 31.5 66.5
t88.5 28.5t88.5 -28.5t31.5 -66.5q0 -20 -7 -34.5t-15 -23.5q-10 -11 -23 -17q17 -7 30 -18q11 -11 20.5 -27t9.5 -42q0 -20 -9 -38.5t-26.5 -33t-42.5 -23t-57 -8.5t-57 8.5t-42.5 23t-26.5 33t-9 38.5z" />
    <glyph glyph-name="uni2079" unicode="&#x2079;" horiz-adv-x="310" 
d="M160 560q-28 0 -53.5 7t-44.5 22t-30.5 37.5t-11.5 53.5q0 26 10 49t27.5 40t42.5 26.5t55 9.5t55 -9.5t42.5 -26.5t27.5 -40t10 -49q0 -17 -4.5 -32.5t-10.5 -26.5q-7 -14 -15 -26l-105 -145h-75zM90 680q0 -26 17.5 -43t47.5 -17t47.5 17t17.5 43t-17.5 43t-47.5 17
t-47.5 -17t-17.5 -43z" />
    <glyph glyph-name="uni2080" unicode="&#x2080;" horiz-adv-x="350" 
d="M175 -105q-30 0 -57 12.5t-48 36t-33 57t-12 74.5t12 74.5t33 57t48 36t57 12.5t57 -12.5t48 -36t33 -57t12 -74.5t-12 -74.5t-33 -57t-48 -36t-57 -12.5zM175 -40q30 0 55 29t25 86t-25 86t-55 29t-55 -29t-25 -86t25 -86t55 -29z" />
    <glyph glyph-name="uni2081" unicode="&#x2081;" horiz-adv-x="235" 
d="M105 150h-65v55q34 0 55 15t25 30h55v-350h-70v250z" />
    <glyph glyph-name="uni2082" unicode="&#x2082;" horiz-adv-x="305" 
d="M270 -30v-70h-240q0 43 12.5 72t31.5 49.5t41 35.5t41 28t31.5 27t12.5 33t-13.5 32t-36.5 13q-15 0 -26 -7t-19 -15q-9 -10 -15 -23l-60 20q7 25 23 45q13 17 36 31t61 14q57 0 88.5 -30.5t31.5 -79.5q0 -36 -18 -60t-42.5 -42.5t-51 -35t-43.5 -37.5h155z" />
    <glyph glyph-name="uni2083" unicode="&#x2083;" horiz-adv-x="310" 
d="M55 -5q9 -10 22 -17q11 -7 27 -12.5t36 -5.5q34 0 49.5 13t15.5 32t-15.5 32t-49.5 13h-40v65h40q26 0 38 10t12 25q0 40 -50 40q-17 0 -30.5 -5.5t-23.5 -11.5q-12 -8 -21 -18l-45 45q12 15 30 28q15 10 37.5 18.5t52.5 8.5q57 0 88.5 -29t31.5 -71q0 -19 -6 -32
t-14 -22q-9 -10 -20 -16q15 -7 28 -18q10 -10 18.5 -26t8.5 -41q0 -21 -9 -40t-26.5 -33.5t-42.5 -23t-57 -8.5q-34 0 -58 8.5t-41 19.5q-18 12 -31 27z" />
    <glyph glyph-name="uni2084" unicode="&#x2084;" horiz-adv-x="305" 
d="M5 40l155 210h80v-210h40v-70h-40v-70h-70v70h-165v70zM170 40v120l-90 -120h90z" />
    <glyph glyph-name="uni2085" unicode="&#x2085;" horiz-adv-x="295" 
d="M55 -5q9 -10 22 -17q11 -7 27 -12.5t36 -5.5q30 0 47.5 16t17.5 39t-17.5 39t-47.5 16q-15 0 -26 -3t-19 -7q-9 -4 -15 -10h-50l20 200h205v-64h-143q0 -4 -1 -14t-2.5 -20.5t-2.5 -20t-1 -14.5q5 4 12 7q6 2 15.5 4t22.5 2q24 0 46 -9.5t38.5 -25.5t26 -36.5t9.5 -43.5
q0 -24 -10 -46t-27.5 -38.5t-42.5 -26t-55 -9.5q-34 0 -58 8.5t-41 19.5q-18 12 -31 27z" />
    <glyph glyph-name="uni2086" unicode="&#x2086;" horiz-adv-x="310" 
d="M155 250h75l-80 -110q28 0 53.5 -7t44.5 -22t30.5 -37.5t11.5 -53.5q0 -26 -10 -49t-27.5 -40t-42.5 -26.5t-55 -9.5t-55 9.5t-42.5 26.5t-27.5 40t-10 49q0 17 5 32.5t10 26.5q7 14 15 26zM155 -40q30 0 47.5 17t17.5 43t-17.5 43t-47.5 17t-47.5 -17t-17.5 -43
t17.5 -43t47.5 -17z" />
    <glyph glyph-name="uni2087" unicode="&#x2087;" horiz-adv-x="280" 
d="M190 180h-170v70h245v-70l-130 -280h-75z" />
    <glyph glyph-name="uni2088" unicode="&#x2088;" horiz-adv-x="300" 
d="M100 149q0 -18 12 -28.5t38 -10.5t38 10.5t12 28.5q0 41 -50 41t-50 -41zM85 5q0 -19 15.5 -32t49.5 -13t49.5 13t15.5 32t-15.5 32t-49.5 13t-49.5 -13t-15.5 -32zM15 -2q0 26 9.5 42t20.5 27q13 11 30 18q-13 6 -22 17q-9 9 -16 23.5t-7 34.5q0 38 31.5 66.5t88.5 28.5
t88.5 -28.5t31.5 -66.5q0 -20 -7 -34.5t-15 -23.5q-10 -11 -23 -17q17 -7 30 -18q11 -11 20.5 -27t9.5 -42q0 -20 -9 -38.5t-26.5 -33t-42.5 -23t-57 -8.5t-57 8.5t-42.5 23t-26.5 33t-9 38.5z" />
    <glyph glyph-name="uni2089" unicode="&#x2089;" horiz-adv-x="310" 
d="M160 10q-28 0 -53.5 7t-44.5 22t-30.5 37.5t-11.5 53.5q0 26 10 49t27.5 40t42.5 26.5t55 9.5t55 -9.5t42.5 -26.5t27.5 -40t10 -49q0 -17 -4.5 -32.5t-10.5 -26.5q-7 -14 -15 -26l-105 -145h-75zM90 130q0 -26 17.5 -43t47.5 -17t47.5 17t17.5 43t-17.5 43t-47.5 17
t-47.5 -17t-17.5 -43z" />
    <glyph glyph-name="uni20A9" unicode="&#x20a9;" horiz-adv-x="1000" 
d="M128 455l-73 245h115l144 -498h2l134 498h100l134 -498h2l144 498h115l-73 -245h98v-75h-121l-19 -65h140v-75h-163l-72 -240h-105l-129 488h-2l-129 -488h-105l-72 240h-163v75h140l-19 65h-121v75h98z" />
    <glyph glyph-name="Euro" unicode="&#x20ac;" horiz-adv-x="740" 
d="M118 310q-1 6 -1 13q-1 5 -1.5 12t-0.5 15t0.5 15t1.5 13q0 6 1 12h-88v85h105q23 66 66 118q18 22 42.5 43t56 37.5t70 26.5t85.5 10q63 0 108.5 -17t75.5 -38q36 -24 61 -55l-70 -70q-19 22 -44 40q-23 15 -55 27.5t-76 12.5q-54 0 -92 -21t-62 -46q-28 -30 -46 -68
h205v-85h-232q-1 -6 -1 -12q-1 -6 -1.5 -13t-0.5 -15t0.5 -15t1.5 -12q0 -7 1 -13h232v-85h-205q18 -38 46 -67q24 -26 62 -47t92 -21q44 0 77 12.5t56 27.5q27 18 47 40l70 -70q-26 -31 -63 -55q-32 -20 -78 -37.5t-109 -17.5q-47 0 -85.5 10t-70 26.5t-56 38t-42.5 43.5
q-43 51 -66 117h-105v85h88z" />
    <glyph glyph-name="uni20B4" unicode="&#x20b4;" horiz-adv-x="640" 
d="M50 390v85h365q4 5 8 11q2 6 4.5 14.5t2.5 19.5q0 17 -8.5 33t-25 29t-40.5 20.5t-56 7.5q-34 0 -60 -9.5t-44 -20.5q-21 -13 -36 -30l-70 70q23 25 55 45q27 17 67 31t93 14q56 0 100 -15t74 -40t45.5 -58.5t15.5 -71.5q0 -21 -5 -36q-2 -8 -5 -14h60v-85h-540zM50 225
v85h540v-85h-365q-4 -5 -7 -11t-5.5 -14.5t-2.5 -19.5q0 -17 8.5 -33t25 -29t40.5 -20.5t56 -7.5q34 0 60 9.5t44 20.5q21 13 36 30l70 -70q-23 -25 -55 -45q-27 -17 -67 -31t-93 -14q-56 0 -100 15t-74 40t-45.5 59t-15.5 71q0 11 1.5 20.5t3.5 15.5q2 8 5 14h-60z" />
    <glyph glyph-name="uni20B8" unicode="&#x20b8;" horiz-adv-x="590" 
d="M560 530v-100h-210v-430h-110v430h-210v100h530zM30 700h530v-100h-530v100z" />
    <glyph glyph-name="uni20B9" unicode="&#x20b9;" horiz-adv-x="590" 
d="M60 440v95h285q-2 11 -10 23.5t-21.5 23t-32 17t-41.5 6.5h-180v95h485v-95h-115q6 -8 11 -18q5 -9 10 -22t9 -30h85v-95h-85q-19 -75 -72.5 -122.5t-147.5 -47.5h-15l335 -270h-155l-345 270v100h180q23 0 41.5 6.5t32 17t21.5 23t10 23.5h-285z" />
    <glyph glyph-name="uni20BA" unicode="&#x20ba;" horiz-adv-x="560" 
d="M35 470l75 24v206h110v-170l180 60v-90l-180 -60v-65l180 60v-90l-180 -60v-190q58 6 99 19t66.5 31t37.5 38.5t12 41.5q0 19 -5 32q-2 7 -5 13l95 45q6 -11 10 -25q4 -12 7 -29.5t3 -40.5q0 -43 -21.5 -83t-71.5 -71.5t-132.5 -51.5t-204.5 -24v259l-75 -24v90l75 24v65
l-75 -24v90z" />
    <glyph glyph-name="uni20BD" unicode="&#x20bd;" horiz-adv-x="660" 
d="M35 270v100h80v330h275q49 0 90 -16.5t71 -46t47 -68.5t17 -84t-17 -84t-47 -68.5t-71 -46t-90 -16.5h-165v-65h230v-90h-230v-115h-110v115h-80v90h80v65h-80zM390 370q24 0 45 9t36.5 24.5t24.5 36.5t9 45t-9 45t-24.5 36.5t-36.5 24.5t-45 9h-165v-230h165z" />
    <glyph glyph-name="uni20BF" unicode="&#x20bf;" horiz-adv-x="680" 
d="M100 0v700h105v120h80v-120h60v120h80v-125q38 -6 68 -22t52 -40t33.5 -54t11.5 -64q0 -39 -13 -65.5t-28 -42.5q-19 -20 -42 -31v-2q33 -14 59 -38q23 -20 41 -52t18 -79q0 -36 -14.5 -70.5t-40 -62.5t-60.5 -47t-76 -24l-9 -1v-120h-80v120h-60v-120h-80v120h-105z
M395 95q25 0 46.5 8.5t38 23.5t26 36t9.5 47t-9.5 47t-26 36t-38 23.5t-46.5 8.5h-185v-230h185zM210 415h170q42 0 71 25t29 70t-29 70t-71 25h-170v-190z" />
    <glyph glyph-name="uni2113" unicode="&#x2113;" horiz-adv-x="375" 
d="M100 225q-12 -4 -26 -7q-12 -3 -28.5 -5.5t-35.5 -2.5v75q19 0 35.5 2.5t28.5 5.5q14 3 26 7v268q0 69 34 105.5t91 36.5q53 0 89 -40t36 -115q0 -58 -15.5 -106t-40 -86t-56 -66t-63.5 -47v-115q0 -38 17.5 -56.5t47.5 -18.5q14 0 24.5 2.5t18.5 5.5q9 3 17 7v-70
q-9 -4 -20 -8q-9 -2 -22 -4.5t-28 -2.5q-60 0 -95 36.5t-35 108.5v90zM175 335q21 17 39 38t31.5 47.5t21.5 60t8 74.5q0 45 -15.5 65t-34.5 20q-23 0 -36.5 -16.5t-13.5 -58.5v-230z" />
    <glyph glyph-name="uni2116" unicode="&#x2116;" horiz-adv-x="1150" 
d="M100 700h100l385 -515v515h110v-700h-100l-385 515v-515h-110v700zM780 340q0 34 12.5 63t34.5 50.5t52 34t66 12.5t66 -12.5t52 -34t34.5 -50.5t12.5 -63t-12.5 -63t-34.5 -50.5t-52 -34t-66 -12.5t-66 12.5t-52 34t-34.5 50.5t-12.5 63zM1100 90v-90h-310v90h310z
M860 340q0 -38 23.5 -61.5t61.5 -23.5t61.5 23.5t23.5 61.5t-23.5 61.5t-61.5 23.5t-61.5 -23.5t-23.5 -61.5z" />
    <glyph glyph-name="uni2117" unicode="&#x2117;" horiz-adv-x="860" 
d="M60 350q0 75 28.5 140.5t78 114.5t117 77t146.5 28t146.5 -28t117 -77t78 -114.5t28.5 -140.5t-28.5 -140.5t-78 -114.5t-117 -77t-146.5 -28t-146.5 28t-117 77t-78 114.5t-28.5 140.5zM140 350q0 -60 23 -113t62 -92t92 -62t113 -23t113 23t92 62t62 92t23 113t-23 113
t-62 92t-92 62t-113 23t-113 -23t-92 -62t-62 -92t-23 -113zM455 535q30 0 55.5 -10.5t44.5 -28.5t29.5 -41.5t10.5 -49.5t-10.5 -49.5t-29.5 -41.5t-44.5 -28.5t-55.5 -10.5h-70v-110h-75v370h145zM385 345h65q34 0 52 17t18 43t-18 43t-52 17h-65v-120z" />
    <glyph glyph-name="trademark" unicode="&#x2122;" horiz-adv-x="685" 
d="M305 700h65l100 -130l100 130h65v-310h-70v190l-95 -120l-95 120v-190h-70v310zM10 700h250v-65h-90v-245h-70v245h-90v65z" />
    <glyph glyph-name="Omega" unicode="&#x2126;" horiz-adv-x="880" 
d="M95 370q0 71 26.5 133t73 108t109.5 72.5t136 26.5t136 -26.5t109.5 -72.5t73 -108t26.5 -133q0 -57 -17.5 -106t-42.5 -86.5t-52 -63.5t-46 -38v-1h133v-75h-250v75q55 26 98 67q18 18 35.5 40.5t31 51t22 62.5t8.5 74q0 56 -20.5 104.5t-56 84t-84 56t-104.5 20.5
t-104.5 -20.5t-84 -56t-56 -84t-20.5 -104.5q0 -40 8.5 -74t22 -62.5t31.5 -51t36 -40.5q42 -41 97 -67v-75h-250v75h133v1q-19 12 -46 38t-52 63.5t-42.5 86.5t-17.5 106z" />
    <glyph glyph-name="estimated" unicode="&#x212e;" horiz-adv-x="870" 
d="M75 350q0 75 28 140.5t77 114.5t114.5 77t140.5 28t140.5 -28t114.5 -77t77 -114.5t28 -140.5v-5h-570v-238q25 -23 58 -41q28 -15 68.5 -28t93.5 -13q70 0 122 23.5t87 51.5q42 33 71 75l30 -25q-34 -45 -80 -80q-39 -30 -97 -55t-133 -25q-79 0 -146.5 28t-117 77
t-78 114.5t-28.5 140.5zM225 380h420v215q-42 38 -96 59t-114 21t-114 -21t-96 -59v-215z" />
    <glyph glyph-name="arrowleft" unicode="&#x2190;" horiz-adv-x="1000" 
d="M360 585l60 -60l-155 -155h630v-80h-630l155 -155l-60 -60l-255 255z" />
    <glyph glyph-name="arrowup" unicode="&#x2191;" horiz-adv-x="1000" 
d="M460 585l-155 -155l-60 60l255 255l255 -255l-60 -60l-155 155v-630h-80v630z" />
    <glyph glyph-name="arrowright" unicode="&#x2192;" horiz-adv-x="1000" 
d="M105 370h630l-155 155l60 60l255 -255l-255 -255l-60 60l155 155h-630v80z" />
    <glyph glyph-name="arrowdown" unicode="&#x2193;" horiz-adv-x="1000" 
d="M305 270l155 -155v630h80v-630l155 155l60 -60l-255 -255l-255 255z" />
    <glyph glyph-name="arrowboth" unicode="&#x2194;" horiz-adv-x="1000" 
d="M360 585l60 -60l-155 -155h470l-155 155l60 60l255 -255l-255 -255l-60 60l155 155h-470l155 -155l-60 -60l-255 255z" />
    <glyph glyph-name="arrowupdn" unicode="&#x2195;" horiz-adv-x="1000" 
d="M305 270l155 -155v470l-155 -155l-60 60l255 255l255 -255l-60 -60l-155 155v-470l155 155l60 -60l-255 -255l-255 255z" />
    <glyph glyph-name="uni2196" unicode="&#x2196;" horiz-adv-x="1000" 
d="M205 625h360v-80h-220l450 -450l-60 -60l-450 450v-220h-80v360z" />
    <glyph glyph-name="uni2197" unicode="&#x2197;" horiz-adv-x="1000" 
d="M655 545h-220v80h360v-360h-80v220l-450 -450l-60 60z" />
    <glyph glyph-name="uni2198" unicode="&#x2198;" horiz-adv-x="1000" 
d="M435 115h220l-450 450l60 60l450 -450v220h80v-360h-360v80z" />
    <glyph glyph-name="uni2199" unicode="&#x2199;" horiz-adv-x="1000" 
d="M205 395h80v-220l450 450l60 -60l-450 -450h220v-80h-360v360z" />
    <glyph glyph-name="partialdiff" unicode="&#x2202;" horiz-adv-x="600" 
d="M115 670q18 11 42 20q20 8 49 14t64 6q53 0 99 -22t81 -68.5t55 -118.5t20 -171q0 -90 -18 -154.5t-49.5 -105.5t-75.5 -60.5t-97 -19.5q-49 0 -90 17t-71 47t-47 71t-17 90q0 51 17 93t47.5 72.5t72.5 47.5t93 17q38 0 66.5 -8.5t48.5 -18.5q23 -13 40 -28
q-6 64 -23 111t-41.5 78t-55.5 46t-65 15q-30 0 -56 -7t-46 -15q-24 -10 -43 -23v75zM285 60q36 0 64.5 12.5t49 41t32.5 75.5t14 116q-17 20 -40 35q-20 14 -48.5 24.5t-66.5 10.5q-32 0 -59.5 -11.5t-47.5 -32.5t-31.5 -50.5t-11.5 -65.5q0 -72 40.5 -113.5t104.5 -41.5z
" />
    <glyph glyph-name="emptyset" unicode="&#x2205;" horiz-adv-x="880" 
d="M169 105q-44 49 -69 111.5t-25 133.5q0 75 29 141.5t78.5 116t116 78.5t141.5 29q60 0 115 -18.5t100 -52.5l60 66h100l-105 -116q45 -49 70 -111t25 -133q0 -75 -29 -141.5t-78.5 -116t-116 -78.5t-141.5 -29q-61 0 -115.5 18.5t-100.5 51.5l-59 -65h-100zM601 584
q-35 24 -75.5 37.5t-85.5 13.5q-59 0 -111 -22.5t-90.5 -61t-61 -90.5t-22.5 -111q0 -54 18 -100.5t50 -84.5zM278 115q35 -24 76 -37t86 -13q59 0 111 22.5t90.5 61t61 90.5t22.5 111q0 53 -18 100t-50 85z" />
    <glyph glyph-name="Delta" unicode="&#x2206;" horiz-adv-x="700" 
d="M320 700h60l260 -700h-580zM530 75l-180 485l-180 -485h360z" />
    <glyph glyph-name="product" unicode="&#x220f;" horiz-adv-x="780" 
d="M645 700v-810h-80v735h-350v-735h-80v810h510z" />
    <glyph glyph-name="summation" unicode="&#x2211;" horiz-adv-x="580" 
d="M70 700h450v-75h-350l230 -310l-230 -350h350v-75h-450v65l235 360l-235 320v65z" />
    <glyph glyph-name="minus" unicode="&#x2212;" horiz-adv-x="510" 
d="M35 340h440v-90h-440v90z" />
    <glyph glyph-name="radical" unicode="&#x221a;" horiz-adv-x="665" 
d="M145 160h-115v75h160l95 -235l280 810h80l-320 -920h-75z" />
    <glyph glyph-name="infinity" unicode="&#x221e;" horiz-adv-x="855" 
d="M385 330q-39 43 -74.5 71.5t-80.5 28.5q-42 0 -68.5 -27.5t-26.5 -72.5q0 -46 26.5 -73.5t68.5 -27.5q45 0 80.5 28.5t74.5 72.5zM470 330q39 -44 74.5 -72.5t80.5 -28.5q42 0 68.5 27.5t26.5 73.5q0 45 -26.5 72.5t-68.5 27.5q-45 0 -80.5 -28.5t-74.5 -71.5zM427 379
q21 23 42 44t44.5 37t51 25.5t60.5 9.5q36 0 66.5 -12t52.5 -34t34 -52.5t12 -66.5q0 -37 -12 -67t-34 -52t-52.5 -34t-66.5 -12q-33 0 -60.5 9.5t-51 25.5t-44.5 37t-42 43q-21 -22 -42 -43t-44.5 -37t-50.5 -25.5t-60 -9.5q-37 0 -67 12t-52 34t-34 52t-12 67
q0 36 12 66.5t34 52.5t52 34t67 12q33 0 60 -9.5t50.5 -25.5t44.5 -37t42 -44z" />
    <glyph glyph-name="integral" unicode="&#x222b;" horiz-adv-x="375" 
d="M40 -45h30q38 0 59 21.5t21 63.5v620q0 68 41.5 109t113.5 41h30v-65h-30q-38 0 -59 -21.5t-21 -63.5v-620q0 -68 -41.5 -109t-113.5 -41h-30v65z" />
    <glyph glyph-name="approxequal" unicode="&#x2248;" horiz-adv-x="545" 
d="M35 365q13 27 33 48q17 17 45 32t67 15q32 0 56.5 -11t45.5 -24t41 -24t42 -11q23 0 38.5 9.5t26.5 20.5q12 13 20 30l60 -45q-13 -27 -33 -47q-17 -18 -44.5 -33t-67.5 -15q-32 0 -56.5 11t-45.5 24t-40.5 24t-42.5 11t-38.5 -9.5t-26.5 -20.5q-12 -13 -20 -30zM35 185
q13 27 33 48q17 17 45 32t67 15q32 0 56.5 -11t45.5 -24t41 -24t42 -11q23 0 38.5 9.5t26.5 20.5q12 13 20 30l60 -45q-13 -27 -33 -47q-17 -18 -44.5 -33t-67.5 -15q-32 0 -56.5 11t-45.5 24t-40.5 24t-42.5 11t-38.5 -9.5t-26.5 -20.5q-12 -13 -20 -30z" />
    <glyph glyph-name="notequal" unicode="&#x2260;" horiz-adv-x="490" 
d="M40 345v90h220l50 105h90l-50 -105h100v-90h-137l-46 -100h183v-90h-220l-50 -105h-90l50 105h-100v90h137l46 100h-183z" />
    <glyph glyph-name="lessequal" unicode="&#x2264;" horiz-adv-x="500" 
d="M40 380l420 195v-95l-273 -124v-2l273 -124v-95l-420 195v50zM40 90h420v-90h-420v90z" />
    <glyph glyph-name="greaterequal" unicode="&#x2265;" horiz-adv-x="500" 
d="M40 480v95l420 -195v-50l-420 -195v95l273 124v2zM40 90h420v-90h-420v90z" />
    <glyph glyph-name="uni2318" unicode="&#x2318;" horiz-adv-x="810" 
d="M195 420q-32 0 -58.5 10.5t-46 29.5t-30 44.5t-10.5 55.5t10.5 55.5t29.5 44.5t44.5 29.5t55.5 10.5t55.5 -10.5t44.5 -30t29.5 -46t10.5 -58.5v-65h150v65q0 32 10.5 58.5t29.5 46t44.5 30t55.5 10.5t55.5 -10.5t44.5 -29.5t29.5 -44.5t10.5 -55.5t-10.5 -55.5
t-30 -44.5t-46 -29.5t-58.5 -10.5h-65v-140h65q32 0 58.5 -10.5t46 -29.5t30 -44.5t10.5 -55.5t-10.5 -55.5t-29.5 -44.5t-44.5 -29.5t-55.5 -10.5t-55.5 10.5t-44.5 30t-29.5 46t-10.5 58.5v65h-150v-65q0 -32 -10.5 -58.5t-29.5 -46t-44.5 -30t-55.5 -10.5t-55.5 10.5
t-44.5 29.5t-29.5 44.5t-10.5 55.5t10.5 55.5t30 44.5t46 29.5t58.5 10.5h65v140h-65zM480 280v140h-150v-140h150zM615 490q34 0 54.5 20t20.5 50t-20 50t-50 20t-50 -20.5t-20 -54.5v-65h65zM550 145q0 -34 20 -54.5t50 -20.5t50 20t20 50t-20.5 50t-54.5 20h-65v-65z
M120 140q0 -30 20 -50t50 -20t50 20.5t20 54.5v65h-65q-34 0 -54.5 -20t-20.5 -50zM190 630q-30 0 -50 -20t-20 -50t20.5 -50t54.5 -20h65v65q0 34 -20 54.5t-50 20.5z" />
    <glyph glyph-name="lozenge" unicode="&#x25ca;" horiz-adv-x="630" 
d="M60 350l225 350h60l225 -350l-225 -350h-60zM480 350l-165 260l-165 -260l165 -260z" />
    <glyph glyph-name="uni2E18" unicode="&#x2e18;" horiz-adv-x="465" 
d="M485 -55q-14 -46 -44 -83q-13 -15 -31 -30t-41 -26.5t-52.5 -18.5t-66.5 -7q-52 0 -94.5 15.5t-72.5 42t-46.5 60.5t-16.5 72q0 48 14.5 80t36 56t47 42t47 37.5t36 42.5t14.5 57v5h100q1 -6 3 -13q1 -6 1.5 -14t0.5 -18l15 -340q17 9 28.5 22t18.5 25q8 14 13 28z
M230 110q-45 -26 -72.5 -57t-27.5 -73q0 -34 19.5 -57t53.5 -34q2 -1 5 -1.5t5 -1.5q4 0 7 -1zM200 425q0 26 19.5 45.5t45.5 19.5t45.5 -19.5t19.5 -45.5t-19.5 -45.5t-45.5 -19.5t-45.5 19.5t-19.5 45.5z" />
    <glyph glyph-name="uniF6D1" unicode="&#xf6d1;" horiz-adv-x="350" 
d="M105 930q0 -30 20 -50t50 -20t50 20t20 50h75q0 -30 -10.5 -55.5t-30 -44.5t-46 -29.5t-58.5 -10.5t-58.5 10.5t-46 29.5t-30 44.5t-10.5 55.5h75z" />
    <glyph glyph-name="uniF6D4" unicode="&#xf6d4;" horiz-adv-x="350" 
d="M105 700q0 -30 20 -50t50 -20t50 20t20 50h75q0 -30 -10.5 -55.5t-30 -44.5t-46 -29.5t-58.5 -10.5t-58.5 10.5t-46 29.5t-30 44.5t-10.5 55.5h75z" />
    <glyph glyph-name="parenleft.case" horiz-adv-x="325" 
d="M234 -125q-49 56 -87 129q-16 31 -31.5 68.5t-28 81t-20 93t-7.5 103.5t7.5 103.5t20 93t28 81t31.5 68.5q38 73 87 129l76 -50q-42 -53 -75 -119q-28 -57 -51.5 -134.5t-23.5 -171.5t23.5 -171.5t51.5 -134.5q33 -66 75 -119z" />
    <glyph glyph-name="parenright.case" horiz-adv-x="325" 
d="M15 -75q42 53 75 119q29 57 52 134.5t23 171.5t-23 171.5t-52 134.5q-33 66 -75 119l76 50q49 -56 87 -129q33 -62 60 -149.5t27 -196.5t-27 -196.5t-60 -149.5q-38 -73 -87 -129z" />
    <glyph glyph-name="hyphen.case" horiz-adv-x="410" 
d="M45 395h320v-90h-320v90z" />
    <glyph glyph-name="at.case" horiz-adv-x="885" 
d="M445 40q48 0 82 10t57 22q27 15 46 33l45 -55q-23 -24 -57 -43q-29 -16 -71.5 -29t-101.5 -13q-81 0 -151 30t-122 82t-82 122t-30 151t30 151t82 122t122 82t151 30q84 0 155 -28t122 -77.5t79.5 -116t28.5 -143.5q0 -52 -12.5 -91.5t-34 -66t-50.5 -39.5t-63 -13
q-32 0 -54.5 10.5t-36.5 24.5q-17 15 -28 34h-2q-11 -19 -28 -34q-15 -14 -38.5 -24.5t-57.5 -10.5t-64.5 14t-54 39t-37.5 59t-14 73t14 73t37.5 59t54 39t64.5 14q29 0 49.5 -8t33.5 -18q15 -11 25 -26h2v47h80v-230q0 -26 16 -43t39 -17q30 0 55 32t25 103
q0 62 -22.5 115t-62.5 92t-96 61t-124 22q-64 0 -119.5 -24t-96.5 -65.5t-65 -98t-24 -122.5t24 -122.5t65 -98t96.5 -65.5t119.5 -24zM335 345q0 -49 29 -79.5t71 -30.5t71 30.5t29 79.5t-29 79.5t-71 30.5t-71 -30.5t-29 -79.5z" />
    <glyph glyph-name="bracketleft.case" horiz-adv-x="335" 
d="M310 810v-95h-130v-730h130v-95h-230v920h230z" />
    <glyph glyph-name="bracketright.case" horiz-adv-x="335" 
d="M25 715v95h230v-920h-230v95h130v730h-130z" />
    <glyph glyph-name="braceleft.case" horiz-adv-x="350" 
d="M30 395h15q30 0 47.5 17.5t17.5 47.5v200q0 68 41.5 109t113.5 41h60v-95h-50q-30 0 -47.5 -17.5t-17.5 -47.5v-190q0 -35 -10.5 -56.5t-23.5 -33.5q-15 -13 -34 -19v-2q19 -6 34 -19q13 -12 23.5 -33.5t10.5 -56.5v-190q0 -30 17.5 -47.5t47.5 -17.5h50v-95h-60
q-72 0 -113.5 41t-41.5 109v200q0 30 -17.5 47.5t-47.5 17.5h-15v90z" />
    <glyph glyph-name="braceright.case" horiz-adv-x="350" 
d="M30 810h60q72 0 113.5 -41t41.5 -109v-200q0 -30 17.5 -47.5t47.5 -17.5h15v-90h-15q-30 0 -47.5 -17.5t-17.5 -47.5v-200q0 -68 -41.5 -109t-113.5 -41h-60v95h50q30 0 47.5 17.5t17.5 47.5v190q0 35 10.5 56.5t23.5 33.5q15 13 34 19v2q-19 6 -34 19q-13 12 -23.5 33.5
t-10.5 56.5v190q0 30 -17.5 47.5t-47.5 17.5h-50v95z" />
    <glyph glyph-name="exclamdown.case" horiz-adv-x="310" 
d="M215 0h-120l20 510h80zM220 645q0 -26 -19.5 -45.5t-45.5 -19.5t-45.5 19.5t-19.5 45.5t19.5 45.5t45.5 19.5t45.5 -19.5t19.5 -45.5z" />
    <glyph glyph-name="guillemotleft.case" horiz-adv-x="505" 
d="M360 520h105l-120 -170l120 -170h-105l-120 170zM40 350l120 170h105l-120 -170l120 -170h-105z" />
    <glyph glyph-name="periodcentered.case" horiz-adv-x="210" 
d="M40 350q0 26 19.5 45.5t45.5 19.5t45.5 -19.5t19.5 -45.5t-19.5 -45.5t-45.5 -19.5t-45.5 19.5t-19.5 45.5z" />
    <glyph glyph-name="guillemotright.case" horiz-adv-x="505" 
d="M240 520h105l120 -170l-120 -170h-105l120 170zM160 350l-120 170h105l120 -170l-120 -170h-105z" />
    <glyph glyph-name="questiondown.case" horiz-adv-x="535" 
d="M335 510q1 -6 3 -13q1 -6 1.5 -14t0.5 -18q0 -36 -14 -62.5t-35 -47t-46 -37.5t-46 -35.5t-35 -40.5t-14 -52q0 -42 31.5 -71t88.5 -29q44 0 71.5 15.5t44.5 34.5q19 22 29 50l90 -35q-14 -46 -44 -82q-13 -16 -31 -31t-41 -26.5t-52.5 -18.5t-66.5 -7q-52 0 -94.5 15.5
t-72.5 42t-46.5 61t-16.5 71.5q0 48 14.5 80t36 56.5t47 43t47 39t36 45.5t14.5 61v5h100zM350 645q0 -26 -19.5 -45.5t-45.5 -19.5t-45.5 19.5t-19.5 45.5t19.5 45.5t45.5 19.5t45.5 -19.5t19.5 -45.5z" />
    <glyph glyph-name="endash.case" horiz-adv-x="490" 
d="M35 391h420v-86h-420v86z" />
    <glyph glyph-name="emdash.case" horiz-adv-x="730" 
d="M35 391h660v-86h-660v86z" />
    <glyph glyph-name="bullet.case" horiz-adv-x="460" 
d="M120 350q0 23 9 43t24 35t35 23.5t42 8.5q23 0 43 -8.5t35 -23.5t23.5 -35t8.5 -43q0 -22 -8.5 -42t-23.5 -35t-35 -24t-43 -9q-22 0 -42 9t-35 24t-24 35t-9 42z" />
    <glyph glyph-name="guilsinglleft.case" horiz-adv-x="305" 
d="M40 350l120 170h105l-120 -170l120 -170h-105z" />
    <glyph glyph-name="guilsinglright.case" horiz-adv-x="305" 
d="M160 350l-120 170h105l120 -170l-120 -170h-105z" />
    <glyph glyph-name="uni2E18.case" horiz-adv-x="535" 
d="M335 510q1 -6 3 -13q1 -6 1.5 -14t0.5 -18l15 -350q17 10 28.5 22.5t18.5 24.5q8 14 13 28l90 -35q-14 -46 -44 -82q-13 -16 -31 -31t-41 -26.5t-52.5 -18.5t-66.5 -7q-52 0 -94.5 15.5t-72.5 42t-46.5 61t-16.5 71.5q0 48 14.5 80t36 56.5t47 43t47 39t36 45.5t14.5 61
v5h100zM250 320q-45 -26 -72.5 -57t-27.5 -73q0 -35 21 -58.5t56 -33.5q2 0 8 -2l5 -1zM350 645q0 -26 -19.5 -45.5t-45.5 -19.5t-45.5 19.5t-19.5 45.5t19.5 45.5t45.5 19.5t45.5 -19.5t19.5 -45.5z" />
    <glyph glyph-name="zero.dnom" horiz-adv-x="350" 
d="M175 -5q-30 0 -57 12.5t-48 36t-33 57t-12 74.5t12 74.5t33 57t48 36t57 12.5t57 -12.5t48 -36t33 -57t12 -74.5t-12 -74.5t-33 -57t-48 -36t-57 -12.5zM175 60q30 0 55 29t25 86t-25 86t-55 29t-55 -29t-25 -86t25 -86t55 -29z" />
    <glyph glyph-name="one.dnom" horiz-adv-x="235" 
d="M105 250h-65v55q34 0 55 15t25 30h55v-350h-70v250z" />
    <glyph glyph-name="two.dnom" horiz-adv-x="305" 
d="M270 70v-70h-240q0 43 12.5 72t31.5 49.5t41 35.5t41 28t31.5 27t12.5 33t-13.5 32t-36.5 13q-15 0 -26 -7t-19 -15q-9 -10 -15 -23l-60 20q7 25 23 45q13 17 36 31t61 14q57 0 88.5 -30.5t31.5 -79.5q0 -36 -18 -60t-42.5 -42.5t-51 -35t-43.5 -37.5h155z" />
    <glyph glyph-name="three.dnom" horiz-adv-x="310" 
d="M55 95q9 -10 22 -17q11 -7 27 -12.5t36 -5.5q34 0 49.5 13t15.5 32t-15.5 32t-49.5 13h-40v65h40q26 0 38 10t12 25q0 40 -50 40q-17 0 -30.5 -5.5t-23.5 -11.5q-12 -8 -21 -18l-45 45q12 15 30 28q15 10 37.5 18.5t52.5 8.5q57 0 88.5 -29t31.5 -71q0 -19 -6 -32
t-14 -22q-9 -10 -20 -16q15 -7 28 -18q10 -10 18.5 -26t8.5 -41q0 -21 -9 -40t-26.5 -33.5t-42.5 -23t-57 -8.5q-34 0 -58 8.5t-41 19.5q-18 12 -31 27z" />
    <glyph glyph-name="four.dnom" horiz-adv-x="305" 
d="M5 140l155 210h80v-210h40v-70h-40v-70h-70v70h-165v70zM170 140v120l-90 -120h90z" />
    <glyph glyph-name="five.dnom" horiz-adv-x="295" 
d="M55 95q9 -10 22 -17q11 -7 27 -12.5t36 -5.5q30 0 47.5 16t17.5 39t-17.5 39t-47.5 16q-15 0 -26 -3t-19 -7q-9 -4 -15 -10h-50l20 200h205v-64h-143q0 -4 -1 -14t-2.5 -20.5t-2.5 -20t-1 -14.5q5 4 12 7q6 2 15.5 4t22.5 2q24 0 46 -9.5t38.5 -25.5t26 -36.5t9.5 -43.5
q0 -24 -10 -46t-27.5 -38.5t-42.5 -26t-55 -9.5q-34 0 -58 8.5t-41 19.5q-18 12 -31 27z" />
    <glyph glyph-name="six.dnom" horiz-adv-x="310" 
d="M155 350h75l-80 -110q28 0 53.5 -7t44.5 -22t30.5 -37.5t11.5 -53.5q0 -26 -10 -49t-27.5 -40t-42.5 -26.5t-55 -9.5t-55 9.5t-42.5 26.5t-27.5 40t-10 49q0 17 5 32.5t10 26.5q7 14 15 26zM155 60q30 0 47.5 17t17.5 43t-17.5 43t-47.5 17t-47.5 -17t-17.5 -43t17.5 -43
t47.5 -17z" />
    <glyph glyph-name="seven.dnom" horiz-adv-x="280" 
d="M190 280h-170v70h245v-70l-130 -280h-75z" />
    <glyph glyph-name="eight.dnom" horiz-adv-x="300" 
d="M100 249q0 -18 12 -28.5t38 -10.5t38 10.5t12 28.5q0 41 -50 41t-50 -41zM85 105q0 -19 15.5 -32t49.5 -13t49.5 13t15.5 32t-15.5 32t-49.5 13t-49.5 -13t-15.5 -32zM15 98q0 26 9.5 42t20.5 27q13 11 30 18q-13 6 -22 17q-9 9 -16 23.5t-7 34.5q0 38 31.5 66.5
t88.5 28.5t88.5 -28.5t31.5 -66.5q0 -20 -7 -34.5t-15 -23.5q-10 -11 -23 -17q17 -7 30 -18q11 -11 20.5 -27t9.5 -42q0 -20 -9 -38.5t-26.5 -33t-42.5 -23t-57 -8.5t-57 8.5t-42.5 23t-26.5 33t-9 38.5z" />
    <glyph glyph-name="nine.dnom" horiz-adv-x="310" 
d="M160 110q-28 0 -53.5 7t-44.5 22t-30.5 37.5t-11.5 53.5q0 26 10 49t27.5 40t42.5 26.5t55 9.5t55 -9.5t42.5 -26.5t27.5 -40t10 -49q0 -17 -4.5 -32.5t-10.5 -26.5q-7 -14 -15 -26l-105 -145h-75zM90 230q0 -26 17.5 -43t47.5 -17t47.5 17t17.5 43t-17.5 43t-47.5 17
t-47.5 -17t-17.5 -43z" />
    <glyph glyph-name="zero.numr" horiz-adv-x="350" 
d="M175 345q-30 0 -57 12.5t-48 36t-33 57t-12 74.5t12 74.5t33 57t48 36t57 12.5t57 -12.5t48 -36t33 -57t12 -74.5t-12 -74.5t-33 -57t-48 -36t-57 -12.5zM175 410q30 0 55 29t25 86t-25 86t-55 29t-55 -29t-25 -86t25 -86t55 -29z" />
    <glyph glyph-name="one.numr" horiz-adv-x="235" 
d="M105 600h-65v55q34 0 55 15t25 30h55v-350h-70v250z" />
    <glyph glyph-name="two.numr" horiz-adv-x="305" 
d="M270 420v-70h-240q0 43 12.5 72t31.5 49.5t41 35.5t41 28t31.5 27t12.5 33t-13.5 32t-36.5 13q-15 0 -26 -7t-19 -15q-9 -10 -15 -23l-60 20q7 25 23 45q13 17 36 31t61 14q57 0 88.5 -30.5t31.5 -79.5q0 -36 -18 -60t-42.5 -42.5t-51 -35t-43.5 -37.5h155z" />
    <glyph glyph-name="three.numr" horiz-adv-x="310" 
d="M55 445q9 -10 22 -17q11 -7 27 -12.5t36 -5.5q34 0 49.5 13t15.5 32t-15.5 32t-49.5 13h-40v65h40q26 0 38 10t12 25q0 40 -50 40q-17 0 -30.5 -5.5t-23.5 -11.5q-12 -8 -21 -18l-45 45q12 15 30 28q15 10 37.5 18.5t52.5 8.5q57 0 88.5 -29t31.5 -71q0 -19 -6 -32
t-14 -22q-9 -10 -20 -16q15 -7 28 -18q10 -10 18.5 -26t8.5 -41q0 -21 -9 -40t-26.5 -33.5t-42.5 -23t-57 -8.5q-34 0 -58 8.5t-41 19.5q-18 12 -31 27z" />
    <glyph glyph-name="four.numr" horiz-adv-x="305" 
d="M5 490l155 210h80v-210h40v-70h-40v-70h-70v70h-165v70zM170 490v120l-90 -120h90z" />
    <glyph glyph-name="five.numr" horiz-adv-x="295" 
d="M55 445q9 -10 22 -17q11 -7 27 -12.5t36 -5.5q30 0 47.5 16t17.5 39t-17.5 39t-47.5 16q-15 0 -26 -3t-19 -7q-9 -4 -15 -10h-50l20 200h205v-64h-143q0 -4 -1 -14t-2.5 -20.5t-2.5 -20t-1 -14.5q5 4 12 7q6 2 15.5 4t22.5 2q24 0 46 -9.5t38.5 -25.5t26 -36.5t9.5 -43.5
q0 -24 -10 -46t-27.5 -38.5t-42.5 -26t-55 -9.5q-34 0 -58 8.5t-41 19.5q-18 12 -31 27z" />
    <glyph glyph-name="six.numr" horiz-adv-x="310" 
d="M155 700h75l-80 -110q28 0 53.5 -7t44.5 -22t30.5 -37.5t11.5 -53.5q0 -26 -10 -49t-27.5 -40t-42.5 -26.5t-55 -9.5t-55 9.5t-42.5 26.5t-27.5 40t-10 49q0 17 5 32.5t10 26.5q7 14 15 26zM155 410q30 0 47.5 17t17.5 43t-17.5 43t-47.5 17t-47.5 -17t-17.5 -43
t17.5 -43t47.5 -17z" />
    <glyph glyph-name="seven.numr" horiz-adv-x="280" 
d="M190 630h-170v70h245v-70l-130 -280h-75z" />
    <glyph glyph-name="eight.numr" horiz-adv-x="300" 
d="M100 599q0 -18 12 -28.5t38 -10.5t38 10.5t12 28.5q0 41 -50 41t-50 -41zM85 455q0 -19 15.5 -32t49.5 -13t49.5 13t15.5 32t-15.5 32t-49.5 13t-49.5 -13t-15.5 -32zM15 448q0 26 9.5 42t20.5 27q13 11 30 18q-13 6 -22 17q-9 9 -16 23.5t-7 34.5q0 38 31.5 66.5
t88.5 28.5t88.5 -28.5t31.5 -66.5q0 -20 -7 -34.5t-15 -23.5q-10 -11 -23 -17q17 -7 30 -18q11 -11 20.5 -27t9.5 -42q0 -20 -9 -38.5t-26.5 -33t-42.5 -23t-57 -8.5t-57 8.5t-42.5 23t-26.5 33t-9 38.5z" />
    <glyph glyph-name="nine.numr" horiz-adv-x="310" 
d="M160 460q-28 0 -53.5 7t-44.5 22t-30.5 37.5t-11.5 53.5q0 26 10 49t27.5 40t42.5 26.5t55 9.5t55 -9.5t42.5 -26.5t27.5 -40t10 -49q0 -17 -4.5 -32.5t-10.5 -26.5q-7 -14 -15 -26l-105 -145h-75zM90 580q0 -26 17.5 -43t47.5 -17t47.5 17t17.5 43t-17.5 43t-47.5 17
t-47.5 -17t-17.5 -43z" />
    <glyph glyph-name="dollar.tab" 
d="M130 170q14 -20 34 -35t43.5 -25t48.5 -15t49 -5t48.5 6t45 19t33.5 32.5t13 47.5q0 36 -24 56t-61 34q-23 8 -48.5 15.5t-51.5 15.5q-35 11 -68 25t-59 36.5t-42 55.5t-16 82q0 38 13.5 70t38 57t58.5 41t75 22v100h100v-97q44 -7 76 -21.5t55 -29.5q25 -17 44 -37
l-75 -75q-24 32 -65 48.5t-80 16.5q-22 0 -45 -5t-42 -16.5t-31 -29.5t-12 -44q0 -34 21 -53.5t54 -32.5q22 -9 47.5 -16.5t52.5 -15.5q36 -10 71 -24t62.5 -36.5t44.5 -56.5t17 -85q0 -39 -14.5 -73t-40 -60.5t-61.5 -43.5t-79 -23v-100h-100v98q-53 7 -91 23.5t-64 33.5
q-30 21 -50 45z" />
    <glyph glyph-name="zero.tab" 
d="M310 -10q-60 0 -113 24t-92 70t-62 113t-23 153t23 153t62 113t92 70t113 24t113 -24t92 -70t62 -113t23 -153t-23 -153t-62 -113t-92 -70t-113 -24zM310 90q36 0 68.5 16t57 48.5t39.5 81t15 114.5t-15 114.5t-39.5 81t-57 48.5t-68.5 16t-68.5 -16t-57 -48.5t-39.5 -81
t-15 -114.5t15 -114.5t39.5 -81t57 -48.5t68.5 -16z" />
    <glyph glyph-name="one.tab" 
d="M130 0v105h135v430h-130v70q36 4 61 12t43 20.5t30 28t21 34.5h85v-595h135v-105h-380z" />
    <glyph glyph-name="two.tab" 
d="M535 105v-105h-470q0 79 26.5 134.5t66.5 96t87 71t87 59.5t66.5 60t26.5 74q0 49 -32.5 79.5t-92.5 30.5q-39 0 -65 -15t-42 -32q-18 -21 -28 -48l-90 40q14 45 43 80q25 30 69 55t113 25q53 0 96 -16.5t74 -46t48 -68.5t17 -84q0 -51 -19.5 -89t-50.5 -68.5t-70 -56
t-76.5 -52t-70.5 -56t-53 -68.5h340z" />
    <glyph glyph-name="three.tab" 
d="M300 -10q-62 0 -108 16.5t-76 36.5q-36 23 -61 52l75 75q17 -22 42 -40q21 -15 53 -27.5t75 -12.5q68 0 104 33t36 82q0 45 -36 77.5t-104 32.5h-75v105h75q57 0 86 26.5t29 68.5t-29 68.5t-86 26.5q-35 0 -63 -10.5t-48 -24.5q-22 -15 -39 -35l-75 75q25 27 58 48
q29 17 71 32t96 15q53 0 94.5 -15t70.5 -40t44.5 -58.5t15.5 -71.5q0 -43 -16 -72t-35 -48q-23 -21 -52 -34v-2q36 -13 64 -36q24 -20 44 -52t20 -81q0 -43 -17.5 -81.5t-49.5 -67t-78.5 -45t-104.5 -16.5z" />
    <glyph glyph-name="four.tab" 
d="M45 260l320 440h130v-460h90v-100h-90v-140h-110v140h-340v120zM385 240v325l-235 -325h235z" />
    <glyph glyph-name="five.tab" 
d="M130 170q17 -22 42 -40q21 -15 53 -27.5t75 -12.5q68 0 106.5 37.5t38.5 97.5t-38.5 97.5t-106.5 37.5q-32 0 -56 -10.5t-41 -24.5q-19 -15 -33 -35l-80 10l25 400h395v-105h-300l-10 -170q14 10 32 18q16 6 38 11.5t50 5.5q51 0 94 -17.5t74.5 -49t49 -74.5t17.5 -94
t-18 -94t-51.5 -74.5t-80.5 -49t-105 -17.5q-62 0 -108 16.5t-76 36.5q-36 23 -61 52z" />
    <glyph glyph-name="six.tab" 
d="M315 700h120l-160 -245q5 1 11 3q6 1 14.5 1.5t19.5 0.5q51 0 94.5 -18.5t76 -50.5t51 -74.5t18.5 -91.5t-18.5 -91.5t-52 -74.5t-79.5 -50.5t-100 -18.5t-100 18.5t-79.5 50.5t-52 74.5t-18.5 91.5q0 30 8 58t17 50q11 25 25 47zM310 90q30 0 55.5 10.5t44.5 29t29.5 43
t10.5 52.5t-10.5 52.5t-29.5 43t-44.5 29t-55.5 10.5t-55.5 -10.5t-44.5 -29t-29.5 -43t-10.5 -52.5t10.5 -52.5t29.5 -43t44.5 -29t55.5 -10.5z" />
    <glyph glyph-name="seven.tab" 
d="M430 595h-340v105h460v-100l-290 -600h-120z" />
    <glyph glyph-name="eight.tab" 
d="M60 200q0 49 18.5 82t40.5 53q26 24 59 39v2q-25 13 -44 34q-17 18 -30.5 46t-13.5 69q0 38 15.5 71.5t44 58.5t69 40t91.5 15t91.5 -15t69 -40t44 -58.5t15.5 -71.5q0 -41 -13.5 -69t-30.5 -46q-19 -21 -44 -34v-2q33 -15 59 -39q23 -20 41 -53t18 -82
q0 -43 -17.5 -81.5t-49.5 -67t-78.5 -45t-104.5 -16.5t-104.5 16.5t-78.5 45t-49.5 67t-17.5 81.5zM310 320q-68 0 -104 -33t-36 -82t36 -82t104 -33t104 33t36 82t-36 82t-104 33zM310 610q-53 0 -81.5 -26.5t-28.5 -68.5t28.5 -68.5t81.5 -26.5t81.5 26.5t28.5 68.5
t-28.5 68.5t-81.5 26.5z" />
    <glyph glyph-name="nine.tab" 
d="M345 245q-5 -1 -11 -2q-12 -3 -34 -3q-51 0 -94.5 18.5t-76 50.5t-51 74.5t-18.5 91.5t18.5 91.5t52 74.5t79.5 50.5t100 18.5t100 -18.5t79.5 -50.5t52 -74.5t18.5 -91.5q0 -30 -7.5 -58t-17.5 -49q-11 -26 -25 -48l-205 -320h-120zM170 475q0 -28 10.5 -52.5t29.5 -43
t44.5 -29t55.5 -10.5t55.5 10.5t44.5 29t29.5 43t10.5 52.5t-10.5 52.5t-29.5 43t-44.5 29t-55.5 10.5t-55.5 -10.5t-44.5 -29t-29.5 -43t-10.5 -52.5z" />
    <glyph glyph-name="cent.tab" 
d="M90 240q0 49 15.5 89.5t42.5 72t62.5 53t74.5 30.5v105h90v-103q40 -5 70.5 -19.5t51.5 -30.5q25 -19 43 -42l-70 -65q-21 30 -57.5 47.5t-72.5 17.5q-33 0 -60.5 -12t-47.5 -33t-31 -49t-11 -61t11 -61t31 -49t47.5 -33t60.5 -12q38 0 75.5 19t59.5 51l70 -65
q-18 -24 -44 -44q-21 -17 -52.5 -32.5t-73.5 -20.5v-103h-90v105q-39 9 -74.5 30.5t-62.5 53t-42.5 72t-15.5 89.5z" />
    <glyph glyph-name="sterling.tab" 
d="M70 100q70 0 70 70v110h-65v90h65v115q0 51 16 92.5t45 71t69.5 45.5t89.5 16q48 0 83 -13t59 -29q28 -19 48 -43l-70 -70q-12 15 -30 28q-15 10 -37.5 18.5t-52.5 8.5q-53 0 -86.5 -34t-33.5 -91v-115h195v-90h-195v-110q0 -18 -3.5 -31.5t-8.5 -21.5q-5 -10 -12 -16v-1
h339v-100h-485v100z" />
    <glyph glyph-name="yen.tab" 
d="M115 700l192 -337h6l192 337h125l-215 -365h105v-85h-155v-60h155v-85h-155v-105h-110v105h-155v85h155v60h-155v85h105l-215 365h125z" />
    <glyph glyph-name="florin.tab" 
d="M50 -105q9 -3 18 -5q18 -5 37 -5q38 0 55.5 15.5t24.5 49.5l70 370h-75v90h92l28 140q17 83 55 121.5t110 38.5q15 0 28 -2.5t22 -4.5q11 -4 20 -8v-90q-9 3 -18 5q-18 5 -37 5q-38 0 -55.5 -15.5t-24.5 -49.5l-28 -140h108v-90h-125l-70 -370q-16 -83 -54.5 -121.5
t-110.5 -38.5q-15 0 -28 2.5t-22 4.5q-11 4 -20 8v90z" />
    <glyph glyph-name="uni20A9.tab" 
d="M-5 315h76l-11 65h-65v75h52l-42 245h110l65 -385h10l75 385h90l75 -385h10l65 385h110l-42 -245h52v-75h-65l-11 -65h76v-75h-89l-41 -240h-95l-85 380h-10l-85 -380h-95l-41 240h-89v75z" />
    <glyph glyph-name="Euro.tab" 
d="M65 310q-1 5 -1 11q-1 5 -1.5 12.5t-0.5 16.5q0 8 0.5 15t1.5 13q0 6 1 12h-60v80h75q13 49 40 92.5t67 76.5t92 52t116 19q57 0 98.5 -14t70.5 -31q33 -20 56 -45l-75 -75q-15 17 -37 30q-19 11 -47 20.5t-66 9.5q-39 0 -71 -11t-56.5 -30t-41.5 -43.5t-26 -50.5h190
v-80h-212q-1 -5 -1 -11q-1 -5 -1.5 -12t-0.5 -17q0 -9 0.5 -16.5t1.5 -12.5q0 -6 1 -11h212v-80h-190q9 -26 26 -50.5t41.5 -43t56.5 -30t71 -11.5q38 0 66 9.5t47 20.5q22 13 37 30l75 -75q-23 -25 -56 -45q-29 -17 -70.5 -31t-98.5 -14q-64 0 -116 19t-92 52t-67 76.5
t-40 92.5h-75v80h60z" />
    <glyph glyph-name="uni20B4.tab" 
d="M40 390v85h365q4 5 8 11q2 6 4.5 14.5t2.5 19.5q0 17 -8.5 33t-25 29t-40.5 20.5t-56 7.5q-34 0 -60 -9.5t-44 -20.5q-21 -13 -36 -30l-70 70q23 25 55 45q27 17 67 31t93 14q56 0 100 -15t74 -40t45.5 -58.5t15.5 -71.5q0 -21 -5 -36q-2 -8 -5 -14h60v-85h-540zM40 225
v85h540v-85h-365q-4 -5 -7 -11t-5.5 -14.5t-2.5 -19.5q0 -17 8.5 -33t25 -29t40.5 -20.5t56 -7.5q34 0 60 9.5t44 20.5q21 13 36 30l70 -70q-23 -25 -55 -45q-27 -17 -67 -31t-93 -14q-56 0 -100 15t-74 40t-45.5 59t-15.5 71q0 11 1.5 20.5t3.5 15.5q2 8 5 14h-60z" />
    <glyph glyph-name="uni20B8.tab" 
d="M575 530v-100h-210v-430h-110v430h-210v100h530zM45 700h530v-100h-530v100z" />
    <glyph glyph-name="uni20B9.tab" 
d="M70 440v95h285q-2 11 -10 23.5t-21.5 23t-32 17t-41.5 6.5h-180v95h485v-95h-115q6 -8 11 -18q5 -9 10 -22t9 -30h85v-95h-85q-19 -75 -72.5 -122.5t-147.5 -47.5h-15l335 -270h-155l-345 270v100h180q23 0 41.5 6.5t32 17t21.5 23t10 23.5h-285z" />
    <glyph glyph-name="uni20BA.tab" 
d="M60 470l75 24v206h110v-170l180 60v-90l-180 -60v-65l180 60v-90l-180 -60v-190q58 6 99 19t66.5 31t37.5 38.5t12 41.5q0 19 -5 32q-2 7 -5 13l95 45q6 -11 10 -25q4 -12 7 -29.5t3 -40.5q0 -43 -21.5 -83t-71.5 -71.5t-132.5 -51.5t-204.5 -24v259l-75 -24v90l75 24v65
l-75 -24v90z" />
    <glyph glyph-name="uni20BD.tab" 
d="M15 115v90h80v65h-80v100h80v330h265q49 0 90 -16.5t71 -46t47 -68.5t17 -84t-17 -84t-47 -68.5t-71 -46t-90 -16.5h-155v-65h210v-90h-210v-115h-110v115h-80zM360 370q24 0 45 9t36.5 24.5t24.5 36.5t9 45t-9 45t-24.5 36.5t-36.5 24.5t-45 9h-155v-230h155z" />
    <glyph glyph-name="uni20BF.tab" 
d="M65 0v700h105v120h80v-120h60v120h80v-125q38 -6 68 -22t52 -40t33.5 -54t11.5 -64q0 -39 -13 -65.5t-28 -42.5q-19 -20 -42 -31v-2q33 -14 59 -38q23 -20 41 -52t18 -79q0 -36 -14.5 -70.5t-40 -62.5t-60.5 -47t-76 -24l-9 -1v-120h-80v120h-60v-120h-80v120h-105z
M360 95q25 0 46.5 8.5t38 23.5t26 36t9.5 47t-9.5 47t-26 36t-38 23.5t-46.5 8.5h-185v-230h185zM175 415h170q42 0 71 25t29 70t-29 70t-71 25h-170v-190z" />
    </font>
</defs>
</svg>
