<svg width="36" height="36" viewBox="0 0 36 36" fill="none" xmlns="http://www.w3.org/2000/svg">
<path d="M19.4964 19.4959L32.8501 19.5065C33.2495 19.5065 33.6326 19.3478 33.9151 19.0653C34.1975 18.7829 34.3562 18.3998 34.3562 18.0003C34.3562 17.6009 34.1975 17.2178 33.9151 16.9353C33.6326 16.6529 33.2495 16.4942 32.8501 16.4942L19.4964 16.5048L19.507 3.1511C19.507 2.75164 19.3483 2.36855 19.0658 2.0861C18.7834 1.80364 18.4003 1.64496 18.0008 1.64496C17.6014 1.64496 17.2183 1.80364 16.9358 2.0861C16.6534 2.36855 16.4947 2.75164 16.4947 3.1511L16.5053 16.5048L3.15159 16.4942C2.95357 16.4934 2.75736 16.5318 2.57426 16.6072C2.39116 16.6826 2.2248 16.7935 2.08478 16.9335C1.94476 17.0735 1.83385 17.2399 1.75845 17.423C1.68305 17.6061 1.64464 17.8023 1.64546 18.0003C1.64464 18.1984 1.68304 18.3946 1.75845 18.5777C1.83385 18.7608 1.94476 18.9271 2.08478 19.0671C2.2248 19.2072 2.39116 19.3181 2.57426 19.3935C2.75736 19.4689 2.95358 19.5073 3.15159 19.5065L16.5053 19.4959L16.4947 32.8496C16.4939 33.0476 16.5323 33.2438 16.6077 33.4269C16.6831 33.61 16.794 33.7764 16.934 33.9164C17.074 34.0564 17.2404 34.1673 17.4235 34.2427C17.6066 34.3181 17.8028 34.3565 18.0008 34.3557C18.1989 34.3565 18.3951 34.3181 18.5782 34.2427C18.7613 34.1673 18.9276 34.0564 19.0676 33.9164C19.2077 33.7764 19.3186 33.61 19.394 33.4269C19.4694 33.2438 19.5078 33.0476 19.507 32.8496L19.4964 19.4959Z" fill="white"/>
</svg>
