<svg width="16" height="13" viewBox="0 0 16 13" fill="none" xmlns="http://www.w3.org/2000/svg">
<path d="M14.933 5.41664H3.6332L7.15434 1.8554C7.35527 1.65158 7.46814 1.37513 7.46814 1.08687C7.46814 0.798614 7.35527 0.522165 7.15434 0.318337C6.95342 0.114509 6.68091 0 6.39676 0C6.11262 0 5.84011 0.114509 5.63918 0.318337L0.304113 5.73054C0.206972 5.83349 0.130824 5.95488 0.0800405 6.08775C-0.0266802 6.35128 -0.0266802 6.64687 0.0800405 6.9104C0.130824 7.04328 0.206972 7.16467 0.304113 7.26761L5.63918 12.6798C5.73838 12.7813 5.85639 12.8618 5.98641 12.9168C6.11644 12.9717 6.2559 13 6.39676 13C6.53762 13 6.67709 12.9717 6.80711 12.9168C6.93714 12.8618 7.05515 12.7813 7.15434 12.6798C7.25435 12.5792 7.33373 12.4595 7.3879 12.3276C7.44207 12.1957 7.46996 12.0542 7.46996 11.9113C7.46996 11.7684 7.44207 11.6269 7.3879 11.495C7.33373 11.3631 7.25435 11.2434 7.15434 11.1427L3.6332 7.58152H14.933C15.216 7.58152 15.4874 7.46747 15.6875 7.26448C15.8876 7.06148 16 6.78616 16 6.49908C16 6.212 15.8876 5.93667 15.6875 5.73368C15.4874 5.53068 15.216 5.41664 14.933 5.41664Z" fill="#2D2D2D"/>
</svg>
