<svg width="36" height="36" viewBox="0 0 36 36" fill="none" xmlns="http://www.w3.org/2000/svg">
<path d="M18.0012 20.1163L27.4362 29.5662C27.7186 29.8487 28.1017 30.0074 28.5012 30.0074C28.9006 30.0074 29.2837 29.8487 29.5662 29.5662C29.8486 29.2838 30.0073 28.9007 30.0073 28.5013C30.0073 28.1018 29.8486 27.7187 29.5662 27.4363L20.1162 18.0013L29.5662 8.56625C29.8486 8.2838 30.0073 7.9007 30.0073 7.50125C30.0073 7.1018 29.8486 6.71871 29.5662 6.43625C29.2837 6.1538 28.9006 5.99511 28.5012 5.99511C28.1017 5.99511 27.7186 6.1538 27.4362 6.43625L18.0012 15.8863L8.56618 6.43625C8.42674 6.29566 8.26084 6.18407 8.07805 6.10791C7.89526 6.03176 7.6992 5.99255 7.50119 5.99255C7.30317 5.99255 7.10711 6.03176 6.92432 6.10791C6.74153 6.18407 6.57563 6.29566 6.43619 6.43625C6.2956 6.57569 6.184 6.7416 6.10785 6.92438C6.0317 7.10717 5.99249 7.30323 5.99249 7.50125C5.99249 7.69927 6.0317 7.89533 6.10785 8.07812C6.184 8.2609 6.29559 8.42681 6.43619 8.56625L15.8862 18.0013L6.43619 27.4363C6.29559 27.5757 6.184 27.7416 6.10785 27.9244C6.0317 28.1072 5.99249 28.3032 5.99249 28.5013C5.99249 28.6993 6.0317 28.8953 6.10785 29.0781C6.184 29.2609 6.29559 29.4268 6.43619 29.5662C6.57563 29.7068 6.74153 29.8184 6.92432 29.8946C7.10711 29.9707 7.30317 30.0099 7.50119 30.0099C7.6992 30.0099 7.89526 29.9707 8.07805 29.8946C8.26084 29.8184 8.42674 29.7068 8.56618 29.5662L18.0012 20.1163Z" fill="white"/>
</svg>
