<svg width="20" height="34" viewBox="0 0 20 34" fill="none" xmlns="http://www.w3.org/2000/svg">
<path d="M0.843744 14.9876L15.1058 0.832574C15.3718 0.568615 15.6875 0.359233 16.035 0.21638C16.3825 0.0735265 16.7549 0 17.131 0C17.8906 0 18.6191 0.299486 19.1563 0.832574C19.4222 1.09653 19.6332 1.4099 19.7771 1.75477C19.9211 2.09965 19.9951 2.46929 19.9951 2.84258C19.9951 3.59648 19.6934 4.31951 19.1563 4.85259L6.89087 16.9976L19.1563 29.1426C19.4236 29.4058 19.6358 29.7189 19.7806 30.0638C19.9254 30.4088 20 30.7789 20 31.1526C20 31.5263 19.9254 31.8963 19.7806 32.2413C19.6358 32.5863 19.4236 32.8994 19.1563 33.1626C18.8911 33.4279 18.5756 33.6386 18.228 33.7823C17.8804 33.926 17.5076 34 17.131 34C16.7545 34 16.3817 33.926 16.0341 33.7823C15.6865 33.6386 15.371 33.4279 15.1058 33.1626L0.843744 19.0076C0.576391 18.7444 0.364183 18.4313 0.21937 18.0863C0.0745564 17.7413 0 17.3713 0 16.9976C0 16.6239 0.0745564 16.2538 0.21937 15.9088C0.364183 15.5639 0.576391 15.2508 0.843744 14.9876Z" fill="white"/>
</svg>
