<svg width="52" height="26" viewBox="0 0 52 26" fill="none" xmlns="http://www.w3.org/2000/svg">
<path d="M47.934 9.28778H13.844L17.097 6.35763C17.8626 5.65921 18.2932 4.71194 18.2932 3.72421C18.2932 2.73649 17.8626 1.78922 17.097 1.09079C16.3314 0.392367 15.2931 7.35913e-09 14.2103 0C13.1275 -7.35913e-09 12.0893 0.392367 11.3236 1.09079L1.1587 10.3634C0.78853 10.7162 0.498521 11.1321 0.305003 11.5874C-0.101668 12.4904 -0.101668 13.5033 0.305003 14.4063C0.498521 14.8616 0.78853 15.2775 1.1587 15.6303L11.3236 24.9029C11.7016 25.2505 12.1514 25.5265 12.6469 25.7148C13.1423 25.9031 13.6736 26 14.2103 26C14.7471 26 15.2783 25.9031 15.7738 25.7148C16.2692 25.5265 16.719 25.2505 17.097 24.9029C17.4781 24.5581 17.781 24.1479 17.9874 23.6959C18.1938 23.2439 18.3001 22.7591 18.3001 22.2694C18.3001 21.7798 18.1938 21.295 17.9874 20.843C17.781 20.3911 17.4781 19.9808 17.097 19.636L13.844 16.7059H47.934C49.0124 16.7059 50.0463 16.3151 50.8088 15.6195C51.5713 14.9239 52 13.9805 52 12.9968C52 12.0131 51.5713 11.0697 50.8088 10.3741C50.0463 9.67855 49.0124 9.28778 47.934 9.28778Z" fill="#B93160"/>
</svg>
