<svg width="38" height="38" viewBox="0 0 38 38" fill="none" xmlns="http://www.w3.org/2000/svg">
<path d="M13.7908 15.3662L17.4167 11.7245V30.0754C17.4167 30.4953 17.5835 30.898 17.8804 31.1949C18.1773 31.4919 18.5801 31.6587 19 31.6587C19.4199 31.6587 19.8226 31.4919 20.1196 31.1949C20.4165 30.898 20.5833 30.4953 20.5833 30.0754V11.7245L24.2092 15.3662C24.3563 15.5146 24.5315 15.6324 24.7244 15.7128C24.9174 15.7932 25.1243 15.8345 25.3333 15.8345C25.5423 15.8345 25.7493 15.7932 25.9422 15.7128C26.1352 15.6324 26.3103 15.5146 26.4575 15.3662C26.6059 15.219 26.7237 15.0439 26.8041 14.8509C26.8844 14.658 26.9258 14.451 26.9258 14.242C26.9258 14.033 26.8844 13.8261 26.8041 13.6331C26.7237 13.4402 26.6059 13.265 26.4575 13.1179L20.1242 6.78452C19.9736 6.64038 19.796 6.52738 19.6017 6.45202C19.2162 6.29366 18.7838 6.29366 18.3983 6.45202C18.204 6.52738 18.0264 6.64038 17.8758 6.78452L11.5425 13.1179C11.3949 13.2655 11.2778 13.4407 11.1979 13.6336C11.118 13.8265 11.0768 14.0332 11.0768 14.242C11.0768 14.4508 11.118 14.6575 11.1979 14.8504C11.2778 15.0433 11.3949 15.2186 11.5425 15.3662C11.6901 15.5138 11.8654 15.6309 12.0583 15.7108C12.2511 15.7907 12.4579 15.8318 12.6667 15.8318C12.8754 15.8318 13.0822 15.7907 13.2751 15.7108C13.4679 15.6309 13.6432 15.5138 13.7908 15.3662Z" fill="black"/>
</svg>
