<svg width="13" height="14" viewBox="0 0 13 14" fill="none" xmlns="http://www.w3.org/2000/svg">
<path d="M1.00744 7.99835L8.59744 7.99835L5.29744 11.2884C5.10914 11.4767 5.00335 11.732 5.00335 11.9984C5.00335 12.2647 5.10914 12.52 5.29744 12.7084C5.48575 12.8967 5.74114 13.0024 6.00744 13.0024C6.27374 13.0024 6.52914 12.8967 6.71744 12.7084L11.7174 7.70835C11.8085 7.61325 11.8798 7.5011 11.9274 7.37835C12.0275 7.13489 12.0275 6.86181 11.9274 6.61835C11.8798 6.4956 11.8085 6.38345 11.7174 6.28835L6.71744 1.28835C6.62448 1.19462 6.51388 1.12023 6.39202 1.06946C6.27016 1.01869 6.13945 0.992552 6.00744 0.992552C5.87543 0.992552 5.74472 1.01869 5.62287 1.06946C5.50101 1.12023 5.3904 1.19462 5.29744 1.28835C5.20371 1.38131 5.12932 1.49191 5.07855 1.61377C5.02778 1.73563 5.00164 1.86634 5.00164 1.99835C5.00164 2.13036 5.02778 2.26107 5.07855 2.38293C5.12932 2.50479 5.20371 2.61539 5.29744 2.70835L8.59744 5.99835L1.00744 5.99835C0.742226 5.99835 0.487872 6.10371 0.300335 6.29124C0.112799 6.47878 0.00744288 6.73313 0.0074429 6.99835C0.00744293 7.26357 0.112799 7.51792 0.300335 7.70546C0.487872 7.89299 0.742226 7.99835 1.00744 7.99835Z" fill="#B93160"/>
</svg>
